<?xml version="1.0" standalone="no"?>
<!DOCTYPE svg PUBLIC "-//W3C//DTD SVG 20010904//EN"
 "http://www.w3.org/TR/2001/REC-SVG-20010904/DTD/svg10.dtd">
<svg version="1.0" xmlns="http://www.w3.org/2000/svg"
 width="600.000000pt" height="930.000000pt" viewBox="0 0 600.000000 930.000000"
 preserveAspectRatio="xMidYMid meet">

<g transform="translate(0.000000,930.000000) scale(0.100000,-0.100000)"
fill="#005cb3" stroke="none">
<path d="M4580 8273 c-170 -25 -311 -93 -421 -203 -47 -46 -84 -94 -98 -125
-76 -167 -79 -172 -160 -223 -79 -50 -154 -84 -274 -122 -89 -29 -152 -64
-206 -114 -51 -49 -110 -126 -139 -182 -48 -94 -55 -308 -13 -411 25 -63 70
-137 78 -129 3 3 -6 23 -20 43 -33 49 -65 147 -73 221 -7 78 11 202 37 255 63
124 192 256 272 278 23 6 47 15 52 19 6 4 51 20 100 35 54 16 123 46 172 76
45 27 86 49 90 49 5 0 9 -35 10 -77 0 -43 10 -115 22 -160 26 -103 26 -115 -1
-77 -12 17 -29 35 -39 40 -9 5 -36 21 -60 35 -24 15 -57 29 -74 33 -22 5 -15
-2 27 -25 117 -64 183 -148 220 -277 19 -68 22 -153 28 -957 3 -245 -21 -777
-40 -905 -5 -36 -10 -88 -10 -117 0 -92 -5 -96 -118 -120 -57 -12 -153 -43
-223 -73 -130 -55 -318 -120 -347 -120 -40 0 -93 -23 -109 -46 -15 -23 -15
-29 1 -87 31 -111 54 -154 94 -174 56 -27 351 -22 804 14 63 5 71 3 131 -31
199 -111 440 -149 787 -124 149 10 265 39 320 79 60 44 134 154 175 264 127
337 130 350 128 571 -1 144 -4 188 -17 212 -10 18 -16 56 -16 92 0 33 -7 77
-15 97 -9 22 -15 68 -15 122 -1 100 -19 189 -69 341 -27 80 -42 148 -47 210
-3 30 -12 100 -20 155 -24 162 -31 244 -29 356 1 96 3 108 27 140 49 65 61
100 66 196 9 183 -63 421 -171 556 -33 43 -112 123 -164 168 -45 40 -217 138
-304 175 -113 48 -237 65 -349 47z m250 -32 c85 -21 229 -86 237 -108 3 -8 -2
-22 -11 -31 -15 -15 -21 -14 -78 7 -132 48 -249 71 -358 70 l-85 -2 110 -8
c61 -4 145 -17 188 -28 79 -21 197 -69 197 -80 0 -7 -38 -71 -43 -71 -2 0 -22
9 -46 21 -45 21 -92 22 -98 2 -5 -14 20 -41 81 -89 l40 -31 -18 -79 c-9 -43
-18 -80 -20 -82 -2 -2 -28 10 -57 27 -30 16 -88 42 -129 57 -41 14 -89 33
-107 40 -57 26 -128 33 -343 36 -116 1 -213 5 -215 9 -11 17 55 120 113 176
159 153 416 219 642 164z m355 -177 c56 -40 157 -134 143 -134 -4 0 -42 22
-85 48 -43 26 -102 58 -130 72 -29 13 -53 27 -53 31 0 13 43 38 54 32 6 -3 38
-25 71 -49z m-23 -59 c129 -66 212 -120 242 -160 42 -55 93 -171 121 -275 34
-128 36 -301 4 -367 -11 -24 -27 -43 -35 -43 -12 0 -301 136 -414 194 -14 8
-42 19 -62 25 -41 13 -46 25 -68 142 -18 94 12 343 52 434 26 59 49 95 59 95
6 0 51 -20 101 -45z m-227 -7 c33 -16 45 -28 45 -44 0 -25 -18 -42 -29 -28 -3
5 -25 22 -48 37 -42 27 -57 57 -28 57 8 0 35 -10 60 -22z m-331 -155 c125 -39
270 -102 299 -129 25 -23 27 -31 27 -107 1 -45 7 -108 14 -139 8 -31 12 -59 9
-62 -3 -3 -22 1 -42 9 -20 7 -54 16 -76 20 -22 4 -67 15 -100 25 -33 10 -78
21 -100 25 -51 8 -260 69 -322 94 -26 10 -105 46 -175 79 -123 59 -128 62
-128 92 0 17 11 52 24 78 l24 47 232 -3 c217 -3 238 -5 314 -29z m-517 -183
c35 -16 68 -30 73 -30 4 0 36 -14 70 -31 65 -32 306 -114 369 -125 63 -11 302
-74 337 -89 24 -10 34 -20 34 -36 0 -15 -4 -19 -15 -15 -24 9 -204 52 -355 85
-144 31 -199 50 -380 130 -170 76 -205 96 -208 120 -4 27 -3 27 75 -9z m129
-123 c183 -81 303 -120 484 -157 47 -10 129 -30 182 -46 l97 -28 14 -42 14
-42 -144 -83 c-79 -46 -167 -99 -196 -118 -28 -18 -144 -85 -257 -149 -113
-63 -221 -126 -240 -139 -19 -12 -37 -23 -40 -23 -3 0 -5 107 -6 237 0 214 -3
245 -22 311 -84 279 -103 362 -83 362 5 0 94 -38 197 -83z m810 -181 c103 -36
441 -204 446 -221 2 -5 -9 -11 -23 -13 -16 -2 -93 31 -223 97 -109 55 -201
100 -205 99 -20 -2 -29 5 -33 27 -3 14 -4 25 -3 25 1 0 20 -6 41 -14z m171
-142 c60 -32 121 -65 137 -74 29 -15 29 -18 27 -87 -1 -46 3 -84 13 -108 9
-21 16 -65 16 -100 0 -36 6 -75 16 -93 11 -22 14 -47 10 -81 -4 -33 0 -64 10
-93 9 -24 20 -83 25 -133 5 -49 10 -99 11 -110 2 -14 -4 -21 -18 -23 -19 -3
-23 8 -47 110 -64 282 -126 432 -269 644 -26 39 -53 83 -59 98 -7 14 -15 26
-19 26 -11 0 -40 65 -40 89 0 19 2 19 40 6 22 -8 88 -40 147 -71z m-156 -50
c24 -40 26 -38 -46 -76 -81 -42 -382 -211 -430 -242 -100 -62 -95 -61 -121
-29 -13 15 -23 31 -24 35 0 4 42 30 93 59 133 75 365 212 428 254 29 19 59 35
65 35 7 0 22 -16 35 -36z m108 -164 c59 -99 97 -170 119 -225 11 -27 31 -79
45 -115 31 -77 75 -242 83 -314 l6 -51 -103 -29 c-173 -47 -326 -118 -459
-213 -25 -18 -84 -59 -132 -93 l-87 -61 -59 48 c-32 26 -92 77 -133 112 -41
35 -110 93 -153 130 -44 36 -95 80 -113 98 l-33 31 0 120 0 120 78 50 c42 27
118 73 167 101 50 29 128 76 173 104 46 29 183 107 305 173 l222 122 17 -22
c10 -11 35 -50 57 -86z m285 100 c25 -9 26 -13 26 -90 l0 -80 -28 0 c-44 0
-57 33 -54 133 2 51 9 55 56 37z m24 -277 c-3 -93 -18 -118 -37 -61 -11 35
-15 76 -13 121 2 22 7 27 27 27 l26 0 -3 -87z m-1034 -15 c14 -18 22 -36 18
-40 -14 -14 -134 -78 -146 -78 -7 0 -25 13 -40 29 l-28 29 38 24 c87 54 110
66 121 67 6 1 23 -14 37 -31z m-180 -106 c21 -23 24 -31 14 -39 -26 -19 -107
-63 -117 -63 -6 0 -11 19 -11 43 0 39 3 45 38 65 20 12 40 22 43 22 3 0 18
-13 33 -28z m1236 -37 c21 -101 -4 -166 -35 -91 -18 44 -20 132 -2 139 23 10
26 7 37 -48z m30 -187 c0 -29 7 -74 14 -100 14 -44 13 -46 -5 -51 -30 -8 -46
29 -48 106 -2 65 8 97 30 97 5 0 9 -24 9 -52z m17 -176 c15 -10 36 -68 69
-189 35 -131 32 -267 -6 -293 -22 -15 -137 -267 -165 -360 -7 -25 -27 -83 -44
-130 -16 -47 -55 -173 -86 -280 -68 -239 -114 -370 -129 -370 -24 0 -45 26
-64 80 -37 103 -47 174 -47 330 0 112 3 133 29 205 48 134 73 195 124 305 100
213 110 237 152 350 38 102 43 127 48 222 l5 108 46 14 c58 18 54 17 68 8z
m-1328 -107 c-29 -29 -67 22 -60 80 1 5 18 -7 38 -28 34 -33 36 -38 22 -52z
m1197 -7 c-3 -46 -13 -108 -22 -138 -22 -73 -88 -247 -113 -296 -48 -92 -136
-288 -177 -392 -43 -108 -46 -121 -51 -237 -7 -140 6 -243 43 -349 13 -38 22
-72 19 -74 -5 -5 -72 18 -145 51 -272 121 -486 186 -754 227 -105 16 -143 31
-131 50 2 3 6 77 10 165 3 88 11 192 17 230 6 39 13 104 17 145 l6 74 58 12
c91 18 214 73 321 143 39 25 76 48 81 51 6 3 39 24 74 48 l64 42 49 -46 c37
-35 55 -45 76 -42 24 3 27 8 30 46 3 34 -2 51 -22 77 -24 31 -24 34 -8 48 21
18 153 107 160 107 2 0 45 19 96 41 80 36 256 95 294 98 11 1 13 -16 8 -81z
m-1135 -6 c8 -9 30 -29 48 -43 30 -24 32 -28 20 -48 -8 -11 -16 -21 -19 -21
-3 1 -27 20 -54 44 -39 34 -47 47 -42 64 9 27 26 28 47 4z m-6 -93 c215 -195
265 -242 265 -248 0 -3 -26 -22 -58 -42 -76 -49 -235 -114 -298 -123 l-50 -6
2 177 c1 98 6 215 9 260 8 98 1 99 130 -18z m184 -58 c43 -33 96 -77 119 -99
l42 -40 -28 -20 -27 -20 -45 36 c-25 20 -73 65 -108 99 -56 54 -62 64 -52 82
6 12 13 21 16 21 3 0 40 -27 83 -59z m383 -60 c20 -24 38 -56 38 -70 0 -5 -7
-17 -16 -25 -20 -20 -43 -9 -80 39 l-26 35 23 20 c30 25 41 25 61 1z m818
-191 c18 -44 6 -127 -23 -159 -93 -102 -174 -281 -307 -681 -63 -186 -73 -213
-92 -245 -27 -44 -22 -11 12 85 31 87 40 115 116 370 95 318 140 442 198 545
74 133 76 134 96 85z m41 -379 c-1 -113 -7 -198 -16 -241 -40 -174 -156 -448
-220 -519 l-35 -38 -47 13 c-97 26 -128 40 -127 60 1 11 16 55 34 99 17 44 49
136 71 205 93 292 190 510 271 604 l41 48 15 -28 c12 -22 15 -66 13 -203z
m-1629 -406 c4 -160 11 -152 -128 -141 -76 6 -87 5 -113 -13 -34 -25 -52 -26
-106 -6 -60 21 -127 19 -159 -6 l-27 -21 -49 21 c-35 15 -70 21 -124 21 -60 0
-76 3 -76 15 0 20 37 42 80 48 56 8 224 65 360 122 149 63 214 82 327 94 9 1
13 -37 15 -134z m158 -40 c197 -28 346 -67 510 -131 127 -50 137 -54 195 -80
22 -10 72 -30 110 -44 67 -26 72 -30 102 -86 46 -83 44 -90 -24 -99 -155 -21
-424 -9 -565 24 -178 42 -334 139 -417 260 -56 83 -69 171 -24 171 10 0 61 -7
113 -15z m-202 -123 c52 3 59 1 81 -25 23 -27 23 -28 5 -42 -47 -35 -145 -30
-194 11 -28 24 -38 52 -24 66 3 3 21 2 40 -3 19 -6 60 -9 92 -7z m-558 -17
c34 -19 85 -19 116 1 31 21 43 9 37 -34 -4 -26 -13 -37 -39 -50 -29 -13 -44
-14 -111 -4 -42 7 -84 18 -92 26 -32 27 -44 30 -32 8 14 -27 84 -53 158 -59
52 -5 68 -2 99 16 35 21 39 21 76 7 73 -30 165 -18 195 24 12 17 15 17 50 -1
64 -32 123 -35 173 -9 l43 22 40 -41 c23 -22 39 -43 36 -45 -4 -4 -183 -20
-354 -30 -45 -3 -370 -8 -427 -7 -51 1 -90 40 -117 114 -12 32 -21 62 -21 67
0 16 142 11 170 -5z m245 0 c51 -19 96 -19 121 0 45 34 58 6 23 -51 -19 -31
-25 -34 -71 -34 -74 0 -128 19 -139 49 -11 28 -5 51 13 51 7 -1 31 -7 53 -15z
m1573 -191 c59 -21 109 -39 112 -41 15 -13 -117 -56 -158 -51 -22 2 -34 16
-60 66 -40 75 -40 76 106 26z"/>
<path d="M4510 8170 c-13 -8 -12 -10 3 -10 9 0 17 5 17 10 0 12 -1 12 -20 0z"/>
<path d="M3640 7546 c-71 -20 -144 -61 -180 -103 -59 -67 -130 -250 -129 -333
1 -97 13 -202 24 -217 12 -15 12 -11 3 27 -14 65 -5 264 17 325 32 91 65 153
106 194 65 68 207 120 287 107 27 -5 33 -4 22 3 -20 14 -94 12 -150 -3z"/>
</g>
</svg>
