<?xml version="1.0" standalone="no"?>
<!DOCTYPE svg PUBLIC "-//W3C//DTD SVG 20010904//EN"
 "http://www.w3.org/TR/2001/REC-SVG-20010904/DTD/svg10.dtd">
<svg version="1.0" xmlns="http://www.w3.org/2000/svg"
 width="600.000000pt" height="930.000000pt" viewBox="0 0 600.000000 930.000000"
 preserveAspectRatio="xMidYMid meet">

<g transform="translate(0.000000,930.000000) scale(0.100000,-0.100000)"
fill="#005cb3" stroke="none">
<path d="M3129 8886 c-109 -30 -241 -134 -285 -224 -26 -52 -26 -175 0 -219
27 -44 83 -73 142 -73 29 0 54 -6 65 -16 26 -23 88 -43 135 -44 38 0 48 -6
118 -75 44 -44 78 -86 82 -102 10 -48 12 -49 13 -10 1 32 -5 43 -40 75 -75 68
-100 95 -96 106 8 23 38 16 71 -17 19 -19 51 -40 70 -47 32 -10 36 -15 37 -48
1 -20 5 -48 9 -62 6 -16 7 -3 3 37 l-5 62 38 7 c82 15 127 56 139 127 6 31 17
50 49 78 39 35 41 40 40 90 0 57 -16 93 -79 184 -82 119 -107 137 -221 154
-38 6 -91 15 -119 20 -66 13 -110 12 -166 -3z m118 -33 c-19 -38 -29 -83 -18
-83 4 0 11 17 15 38 3 21 14 46 25 56 16 15 25 16 60 6 36 -9 57 -30 31 -30
-5 0 -12 -11 -16 -25 -4 -17 -19 -31 -41 -40 -23 -10 -39 -26 -48 -50 -10 -23
-22 -35 -35 -35 -20 0 -95 -59 -86 -68 3 -2 22 10 42 27 40 35 53 36 70 2 15
-28 34 -49 34 -35 0 5 -5 15 -11 21 -14 14 -14 64 0 92 7 12 26 28 42 35 17 7
37 28 47 47 15 31 22 34 65 37 64 4 126 -26 161 -78 14 -22 26 -43 26 -48 0
-5 9 -17 21 -28 37 -33 69 -109 69 -161 -1 -72 -20 -91 -121 -114 -46 -11 -93
-22 -103 -25 -17 -6 -18 -2 -13 36 6 47 18 60 60 60 39 0 67 32 67 78 0 21 -7
47 -16 58 -15 19 -16 19 -9 -1 26 -79 8 -125 -48 -125 -46 0 -57 -11 -65 -64
l-7 -46 -105 -36 c-92 -32 -111 -35 -164 -29 -92 10 -136 40 -136 94 0 11 25
46 55 78 52 53 59 57 98 56 29 -2 37 1 27 7 -30 19 -71 11 -102 -20 -29 -29
-31 -30 -49 -14 -26 23 -24 39 7 59 23 15 26 22 21 59 -5 33 -1 50 20 84 29
52 46 102 32 102 -5 0 -9 -7 -9 -16 0 -9 -12 -38 -27 -65 -20 -35 -32 -47 -43
-43 -26 12 -80 17 -80 8 0 -5 13 -9 30 -10 38 -1 57 -18 65 -56 6 -26 2 -35
-25 -59 -31 -29 -32 -37 -2 -72 14 -15 13 -19 -6 -40 -14 -15 -22 -36 -22 -60
0 -36 -1 -37 -38 -37 -59 0 -125 38 -139 80 -22 65 -16 152 15 211 38 74 58
72 54 -4 -2 -42 1 -66 13 -84 9 -13 19 -22 22 -20 2 3 -3 16 -12 30 -12 19
-14 37 -9 76 4 33 3 56 -5 65 -9 11 -4 20 26 45 21 17 42 31 47 31 15 0 46
-32 46 -47 0 -7 4 -13 10 -13 12 0 2 29 -18 53 -11 12 -12 21 -5 28 22 22 111
48 166 49 l58 0 -14 -27z m369 -480 c-14 -78 -73 -123 -163 -123 -47 0 -58 4
-93 36 -45 40 -50 54 -20 54 11 0 20 -4 20 -9 0 -5 15 -19 34 -30 35 -22 109
-28 136 -11 10 6 -4 7 -40 4 -44 -4 -61 -1 -87 15 -18 11 -33 28 -33 37 0 13
7 15 33 10 70 -14 133 -17 157 -8 20 8 12 10 -40 8 -36 0 -67 3 -70 9 -3 5 27
17 65 26 108 26 108 26 101 -18z"/>
<path d="M3370 8766 c0 -4 6 -14 14 -21 14 -14 11 -43 -9 -100 -7 -20 -6 -20
9 -1 9 11 16 29 16 40 0 30 11 43 44 56 16 6 27 13 24 16 -3 2 -18 0 -33 -6
-22 -9 -31 -7 -46 6 -11 10 -19 14 -19 10z"/>
<path d="M3512 8758 c-7 -7 -12 -22 -12 -33 0 -12 -13 -31 -30 -43 -23 -17
-30 -30 -30 -56 0 -31 -4 -36 -44 -51 -35 -14 -51 -15 -75 -7 -17 6 -31 7 -31
3 0 -23 66 -27 117 -9 46 17 61 0 32 -36 -12 -15 -19 -29 -16 -32 3 -3 15 9
28 27 18 26 20 35 11 50 -19 30 -14 76 10 99 12 11 25 20 29 20 8 0 31 71 26
77 -2 1 -9 -3 -15 -9z"/>
<path d="M2863 8550 c1 -17 12 -29 32 -39 39 -18 65 -41 76 -66 7 -19 8 -19 8
2 1 27 -20 49 -65 68 -19 8 -39 24 -44 37 l-10 23 3 -25z"/>
<path d="M3301 8464 c-25 -32 -26 -44 -5 -70 15 -19 16 -19 8 1 -19 54 -2 77
64 86 l47 6 -47 2 c-39 1 -50 -3 -67 -25z"/>
<path d="M3110 8431 c0 -4 10 -6 23 -4 15 3 36 -6 61 -26 21 -17 48 -31 60
-31 17 1 16 3 -9 14 -16 7 -39 23 -49 35 -19 21 -86 31 -86 12z"/>
</g>
</svg>
