<?xml version="1.0" standalone="no"?>
<!DOCTYPE svg PUBLIC "-//W3C//DTD SVG 20010904//EN"
 "http://www.w3.org/TR/2001/REC-SVG-20010904/DTD/svg10.dtd">
<svg version="1.0" xmlns="http://www.w3.org/2000/svg"
 width="600.000000pt" height="930.000000pt" viewBox="0 0 600.000000 930.000000"
 preserveAspectRatio="xMidYMid meet">

<g transform="translate(0.000000,930.000000) scale(0.100000,-0.100000)"
fill="#005cb3" stroke="none">
<path d="M3125 8889 c-16 -5 -66 -28 -110 -52 -60 -32 -91 -57 -126 -101 -57
-69 -74 -124 -66 -212 8 -102 55 -149 159 -161 29 -3 67 -14 85 -25 18 -11 62
-24 98 -29 63 -10 69 -14 140 -83 52 -50 77 -82 81 -104 9 -46 28 -41 21 6 -5
30 -21 51 -79 106 -69 64 -72 69 -51 78 18 9 26 5 52 -25 17 -19 46 -40 63
-48 42 -16 44 -20 47 -76 1 -26 4 -50 7 -55 8 -12 24 0 19 15 -2 7 -6 33 -9
58 l-5 47 40 6 c87 14 139 66 139 138 0 27 5 38 18 42 37 12 65 54 70 105 5
54 -18 113 -82 206 -60 89 -100 122 -158 134 -29 5 -88 17 -131 25 -85 17
-175 19 -222 5z m125 -13 c0 -2 -7 -20 -15 -39 -17 -41 -19 -67 -6 -67 5 0 14
20 20 44 6 25 16 48 22 51 6 4 31 4 56 0 41 -6 43 -8 30 -23 -8 -9 -16 -22
-18 -29 -2 -6 -20 -22 -39 -35 -19 -13 -41 -38 -49 -56 -10 -23 -21 -32 -38
-32 -25 0 -92 -54 -81 -65 4 -4 21 4 38 19 42 35 65 33 79 -4 5 -16 15 -30 22
-30 7 0 8 7 4 18 -20 45 -17 78 10 110 15 18 35 32 46 32 10 0 19 6 19 14 0 8
10 27 23 42 21 24 27 26 74 19 68 -9 106 -34 139 -92 15 -26 38 -59 50 -73 31
-34 64 -108 64 -145 0 -42 -34 -93 -67 -101 -15 -3 -54 -12 -86 -20 -79 -19
-79 -19 -75 24 3 35 5 37 40 40 27 2 44 12 63 33 29 35 32 67 10 109 -17 32
-43 43 -29 13 14 -33 16 -93 4 -108 -7 -8 -28 -17 -49 -21 -51 -9 -61 -21 -61
-70 0 -42 -1 -43 -42 -55 -24 -6 -75 -22 -113 -34 -57 -20 -80 -23 -125 -16
-56 7 -99 25 -112 45 -4 6 -8 28 -8 48 0 31 5 40 29 53 16 8 32 24 36 35 9 28
42 43 82 37 24 -4 33 -2 30 6 -2 7 -22 13 -44 15 -33 3 -44 -2 -70 -28 l-31
-32 -15 23 c-15 21 -14 24 13 55 24 28 27 39 23 73 -5 33 -1 48 20 79 30 42
46 102 28 102 -6 0 -11 -7 -11 -16 0 -9 -14 -41 -31 -71 -22 -38 -34 -51 -42
-44 -21 17 -87 18 -87 1 0 -5 15 -10 33 -10 39 -1 62 -17 70 -51 5 -20 0 -32
-23 -54 -35 -34 -37 -44 -11 -77 19 -24 19 -24 1 -36 -13 -8 -20 -26 -22 -54
l-3 -43 -43 2 c-54 2 -102 30 -122 69 -9 17 -15 57 -15 99 0 59 4 78 28 117
42 72 51 71 43 -3 -7 -61 -6 -66 20 -89 23 -21 26 -22 18 -5 -5 11 -9 50 -9
87 0 36 -3 70 -7 74 -14 13 -9 21 31 47 39 26 39 26 60 6 11 -11 21 -24 21
-29 0 -6 5 -10 10 -10 17 0 11 22 -11 46 l-21 22 26 17 c36 24 104 44 154 44
23 1 42 -1 42 -3z m360 -497 c0 -36 -31 -89 -62 -105 -17 -9 -53 -18 -82 -21
-42 -4 -57 -1 -85 19 -19 12 -39 31 -45 40 -19 31 3 31 37 1 39 -34 87 -47
132 -35 47 13 30 26 -29 23 -44 -2 -58 2 -82 22 l-28 24 22 8 c14 4 29 2 39
-7 19 -16 129 -16 145 0 19 19 3 24 -40 13 -24 -7 -49 -8 -63 -2 -22 8 -20 10
21 20 25 7 50 14 55 16 6 2 22 4 38 4 21 1 27 -4 27 -20z"/>
<path d="M3373 8752 c21 -23 22 -54 2 -92 -9 -17 -11 -30 -6 -30 14 0 30 25
37 59 5 22 16 37 38 48 17 9 26 18 19 20 -7 2 -21 0 -31 -6 -15 -8 -23 -7 -32
4 -7 8 -19 15 -28 15 -13 0 -13 -2 1 -18z"/>
<path d="M3507 8763 c-4 -3 -7 -15 -7 -26 0 -12 -16 -35 -36 -53 -27 -26 -35
-40 -32 -61 4 -37 -31 -55 -95 -50 -60 5 -71 -9 -18 -23 32 -8 48 -7 77 5 20
8 40 15 45 15 14 0 10 -26 -6 -40 -8 -7 -15 -19 -15 -28 0 -12 6 -10 25 8 25
24 33 64 15 75 -5 3 -10 19 -10 34 0 21 10 36 35 55 23 18 35 35 35 52 0 13 5
24 10 24 6 0 10 5 10 10 0 11 -23 14 -33 3z"/>
<path d="M2850 8561 c0 -26 17 -45 57 -62 32 -13 48 -28 56 -49 13 -33 27 -40
27 -12 0 28 -28 61 -67 77 -19 8 -37 24 -40 35 -5 20 -33 29 -33 11z"/>
<path d="M3318 8484 c-30 -16 -44 -50 -33 -83 11 -34 27 -24 20 12 -8 41 8 57
64 64 23 3 38 9 35 14 -8 14 -56 10 -86 -7z"/>
<path d="M3117 8443 c-27 -7 -9 -23 27 -23 22 0 40 -8 56 -25 22 -24 78 -37
65 -15 -3 6 -14 10 -24 10 -9 0 -30 14 -46 30 -28 29 -40 33 -78 23z"/>
</g>
</svg>
