<?xml version="1.0" standalone="no"?>
<!DOCTYPE svg PUBLIC "-//W3C//DTD SVG 20010904//EN"
 "http://www.w3.org/TR/2001/REC-SVG-20010904/DTD/svg10.dtd">
<svg version="1.0" xmlns="http://www.w3.org/2000/svg"
 width="600.000000pt" height="930.000000pt" viewBox="0 0 600.000000 930.000000"
 preserveAspectRatio="xMidYMid meet">

<g transform="translate(0.000000,930.000000) scale(0.100000,-0.100000)"
fill="#005cb3" stroke="none">
<path d="M1594 6940 c-12 -4 -56 -62 -98 -127 -43 -65 -107 -163 -143 -218
-138 -213 -236 -377 -243 -410 -6 -26 -3 -44 12 -75 18 -35 50 -61 227 -178
113 -75 210 -139 216 -142 5 -3 51 -32 100 -64 50 -32 119 -78 155 -101 36
-23 106 -68 155 -101 122 -79 117 -76 166 -104 l44 -25 -45 -3 c-71 -5 -68
-19 7 -24 66 -5 162 -42 179 -69 3 -6 -6 -21 -22 -34 l-28 -22 31 -7 c25 -6
35 -16 48 -49 31 -74 31 -170 0 -298 -26 -108 -35 -265 -20 -333 3 -11 9 -66
15 -121 5 -55 12 -115 16 -132 6 -32 6 -33 -30 -33 -83 0 -112 -84 -103 -300
4 -112 9 -144 27 -180 25 -54 67 -89 120 -102 73 -19 161 47 191 143 15 48 12
204 -5 268 -23 83 -56 125 -120 151 l-54 23 -12 61 c-6 34 -17 129 -26 211
-15 161 -11 220 25 360 26 103 26 188 0 270 -15 46 -29 69 -41 73 -18 4 -18 6
-2 23 11 12 25 17 36 13 50 -15 2 20 -140 104 -86 52 -166 99 -177 105 -68 41
-448 286 -657 423 -255 168 -279 189 -278 251 1 15 12 46 25 68 14 22 34 56
45 75 11 19 28 47 38 62 9 15 48 76 85 135 134 213 239 368 264 396 29 29 64
35 100 14 12 -6 122 -79 244 -161 339 -226 633 -405 645 -393 3 3 -37 29 -88
58 -155 89 -347 210 -625 396 -182 121 -220 139 -259 123z m783 -2686 c13 -4
21 -9 18 -13 -5 -8 29 -121 45 -151 12 -22 40 -26 57 -9 8 8 5 28 -13 75 -13
36 -24 67 -24 71 0 10 51 -40 63 -62 20 -37 47 -160 47 -216 0 -172 -111 -290
-220 -234 -35 18 -34 17 -16 53 30 58 38 148 22 235 -35 183 -44 242 -40 249
6 9 30 10 61 2z m61 -42 c6 -18 -15 -14 -22 4 -4 10 -1 14 6 12 6 -2 14 -10
16 -16z m-133 -2 c3 -5 1 -10 -4 -10 -6 0 -11 5 -11 10 0 6 2 10 4 10 3 0 8
-4 11 -10z m10 -222 c16 -85 14 -135 -7 -190 -15 -40 -25 -35 -43 25 -11 36
-16 91 -15 177 0 188 15 246 36 139 7 -35 20 -103 29 -151z m154 161 c14 -40
14 -59 0 -59 -10 0 -39 59 -39 80 0 23 29 8 39 -21z m-152 -66 c-3 -10 -5 -4
-5 12 0 17 2 24 5 18 2 -7 2 -21 0 -30z"/>
<path d="M1513 6695 c-13 -19 -23 -37 -23 -40 0 -2 22 -16 49 -30 27 -13 52
-29 56 -35 10 -16 -3 -12 -45 16 -22 15 -43 25 -46 22 -3 -3 16 -18 41 -32
l45 -27 -17 -27 c-9 -15 -18 -29 -20 -31 -1 -2 -25 11 -53 29 -51 33 -52 38
-18 76 11 12 15 25 10 28 -5 3 -21 -12 -36 -34 l-26 -40 47 -30 c59 -36 52
-39 -10 -4 l-46 25 -24 -38 -24 -38 21 -15 c12 -9 45 -31 74 -49 45 -27 56
-30 70 -19 13 11 15 10 9 -4 -4 -12 3 -24 22 -38 38 -26 43 -26 64 11 10 18
20 29 23 26 4 -3 -4 -20 -16 -37 -12 -17 -21 -32 -19 -34 25 -19 56 -36 64
-36 10 0 59 69 53 75 -2 1 -22 12 -45 24 -23 11 -44 25 -48 31 -9 15 1 12 37
-10 l32 -19 23 34 c13 19 23 36 23 39 0 2 -14 14 -30 26 -26 19 -33 20 -47 9
-14 -12 -15 -11 -9 7 5 17 -1 24 -34 40 -37 18 -59 44 -25 30 8 -3 21 -8 28
-11 10 -4 57 50 57 67 0 3 -15 15 -34 26 l-35 20 -16 -21 -16 -22 11 22 c5 12
10 24 10 26 0 6 -69 47 -78 47 -4 0 -17 -16 -29 -35z m62 3 c29 -13 31 -20 9
-53 -17 -26 -16 -26 -72 11 -4 3 28 54 34 54 2 0 15 -5 29 -12z m88 -52 c20
-16 21 -25 2 -49 -17 -23 -50 -15 -66 15 -7 13 -7 18 0 14 5 -4 15 3 21 14 12
23 19 24 43 6z m-3 -136 c0 -4 -8 -17 -17 -29 -17 -20 -20 -20 -40 -6 -21 15
-21 17 -5 44 15 27 17 28 39 14 13 -9 23 -19 23 -23z m-169 -6 c32 -19 61 -40
65 -45 6 -11 -23 -49 -38 -49 -7 0 -112 63 -126 76 -4 3 30 53 37 54 2 0 30
-16 62 -36z m99 22 c0 -2 -7 -9 -15 -16 -13 -11 -14 -10 -9 4 5 14 24 23 24
12z m-34 -37 c19 -22 19 -22 -3 -10 -24 12 -39 31 -25 31 5 0 17 -10 28 -21z
m114 -7 c0 -5 -9 -19 -19 -31 -19 -22 -21 -22 -46 -5 -30 20 -27 32 4 12 18
-11 23 -10 36 10 17 23 25 28 25 14z m64 -14 c16 -26 -19 -61 -48 -46 -11 6
-22 12 -24 13 -2 2 4 15 14 30 18 28 41 30 58 3z m-105 -80 c-14 -27 -38 -34
-56 -16 -13 14 -13 18 2 41 16 25 18 25 41 11 19 -13 22 -20 13 -36z m-59 38
c0 -3 -4 -8 -10 -11 -5 -3 -10 -1 -10 4 0 6 5 11 10 11 6 0 10 -2 10 -4z m145
-66 c3 -5 -2 -21 -11 -35 -14 -21 -19 -23 -38 -13 -11 6 -22 12 -24 13 -2 2 4
17 13 34 13 26 19 30 35 21 10 -6 22 -14 25 -20z"/>
<path d="M2002 6648 c-20 -20 -14 -38 14 -38 20 0 25 4 22 22 -4 26 -19 33
-36 16z m28 -18 c0 -5 -4 -10 -9 -10 -6 0 -13 5 -16 10 -3 6 1 10 9 10 9 0 16
-4 16 -10z"/>
<path d="M1682 6583 c-12 -19 -21 -37 -20 -38 6 -5 67 -35 72 -35 5 0 46 65
46 73 0 7 -55 37 -67 37 -4 -1 -18 -17 -31 -37z m62 8 c15 -16 15 -22 4 -40
-15 -24 -21 -25 -49 -11 -19 11 -19 12 -2 40 20 35 24 36 47 11z"/>
<path d="M2080 6581 c0 -27 19 -36 37 -18 18 18 9 37 -18 37 -12 0 -19 -7 -19
-19z m30 -1 c0 -5 -4 -10 -10 -10 -5 0 -10 5 -10 10 0 6 5 10 10 10 6 0 10 -4
10 -10z"/>
<path d="M1771 6536 c-12 -18 -21 -36 -21 -39 0 -4 14 -14 32 -23 31 -16 32
-16 55 10 31 36 29 52 -7 71 -38 20 -35 20 -59 -19z m62 1 c16 -11 16 -14 2
-35 -17 -24 -31 -27 -54 -13 -12 8 -13 14 -3 35 13 29 29 33 55 13z"/>
<path d="M2167 6533 c-12 -12 -7 -31 9 -37 21 -8 45 11 37 30 -5 14 -34 19
-46 7z m33 -13 c0 -5 -4 -10 -10 -10 -5 0 -10 5 -10 10 0 6 5 10 10 10 6 0 10
-4 10 -10z"/>
<path d="M1850 6483 l-22 -37 22 -16 c19 -15 20 -18 6 -29 -13 -11 -16 -11
-16 2 0 14 -44 57 -59 57 -3 0 -17 -17 -30 -37 l-24 -37 23 -18 c12 -10 30
-18 40 -18 10 0 20 -7 24 -15 7 -19 -5 -19 -30 0 -28 21 -31 19 -60 -26 -19
-30 -30 -39 -42 -34 -9 4 -22 9 -28 11 -6 3 -16 -7 -23 -22 -6 -15 -14 -24
-17 -21 -3 3 2 16 11 30 16 24 15 25 -21 47 -30 19 -38 21 -45 9 -4 -8 -15
-23 -24 -34 -9 -11 -7 -3 5 17 l21 38 -93 60 c-51 33 -97 60 -103 60 -5 0 -20
-15 -32 -34 -20 -30 -20 -35 -6 -49 15 -15 14 -16 -4 -11 -15 4 -25 -3 -40
-28 l-20 -33 66 -43 c36 -23 70 -41 74 -39 5 1 20 21 33 44 l25 40 -67 42
c-64 40 -66 42 -51 64 8 12 23 22 33 21 21 0 164 -91 164 -104 0 -4 -8 -18
-19 -31 -17 -21 -21 -22 -36 -9 -14 11 -19 12 -22 3 -3 -7 -15 -28 -29 -48
l-24 -36 99 -64 c54 -36 101 -65 104 -65 10 0 49 69 44 77 -3 5 6 14 19 20 23
11 24 10 18 -10 -4 -12 -12 -26 -19 -32 -15 -12 -45 -57 -45 -66 0 -4 46 -36
103 -73 56 -36 140 -90 187 -120 176 -114 203 -128 212 -114 14 21 39 68 37
70 -1 2 12 24 28 49 28 45 30 46 54 33 33 -18 31 -19 59 26 14 22 28 40 32 40
13 0 19 -20 6 -20 -7 0 -24 -19 -38 -41 -14 -23 -30 -37 -37 -34 -7 3 -19 7
-25 10 -11 4 -58 -53 -58 -70 0 -2 14 -12 31 -20 17 -9 28 -19 25 -22 -3 -3
-17 2 -30 11 -14 9 -27 16 -30 16 -9 0 -47 -75 -39 -77 4 -2 63 -39 130 -83
67 -44 127 -80 132 -80 6 0 11 -3 11 -7 0 -11 61 -45 68 -38 3 3 1 5 -4 5 -5
0 -17 7 -28 15 -18 13 -18 15 3 43 22 32 26 42 14 42 -5 0 -16 -14 -26 -31
-10 -18 -20 -29 -23 -26 -4 3 4 19 16 34 l22 28 -34 28 c-18 15 -26 25 -17 22
28 -11 73 70 75 136 1 52 -1 56 -29 73 -30 17 -31 17 -53 -11 -29 -34 -27 -50
8 -71 25 -15 28 -15 48 3 l22 20 -13 -28 c-11 -24 -11 -30 2 -38 28 -17 0 -9
-33 11 l-33 19 -24 -35 c-13 -19 -26 -32 -29 -29 -3 3 4 19 16 35 12 16 22 31
22 34 0 2 -14 13 -32 24 -26 17 -35 18 -47 9 -12 -10 -14 -9 -9 4 4 9 1 22 -5
28 -16 16 6 14 29 -4 29 -22 40 -18 65 23 12 20 24 38 25 40 1 2 13 -4 27 -12
22 -15 25 -15 42 4 10 11 13 20 7 20 -6 0 -14 -4 -17 -10 -8 -13 -18 -13 -39
3 -15 11 -16 17 -5 40 12 27 33 35 44 17 3 -5 12 -10 18 -10 13 1 -30 40 -43
40 -4 0 -12 -10 -19 -22 -36 -69 -36 -69 -57 -52 -13 10 -14 14 -4 11 14 -3
60 46 60 64 0 4 -14 18 -31 30 l-32 22 -18 -24 c-10 -13 -19 -19 -19 -13 0 5
6 16 13 23 10 10 6 17 -18 37 -30 24 -55 31 -55 16 0 -4 -11 -23 -24 -40 l-23
-32 -24 20 c-22 19 -22 21 -3 15 15 -4 26 3 42 25 12 16 22 34 22 40 0 6 11 5
30 -5 16 -8 31 -15 34 -15 2 0 14 17 26 37 21 36 21 38 3 51 -45 34 -50 34
-75 -6 -12 -20 -22 -40 -20 -44 3 -12 -7 -9 -40 10 -18 10 -32 13 -34 7 -2 -5
-13 -25 -24 -43 -19 -31 -21 -32 -48 -18 -27 14 -28 13 -51 -26 -12 -22 -21
-41 -19 -43 2 -2 17 -11 33 -19 27 -15 31 -14 42 1 18 23 27 9 11 -16 -7 -12
-19 -19 -25 -16 -7 3 -19 7 -25 10 -11 4 -25 -12 -64 -74 -2 -1 -7 0 -13 3 -5
4 3 20 20 38 36 41 36 49 -1 72 -26 15 -33 16 -47 4 -14 -11 -15 -10 -9 8 5
16 0 25 -18 38 -37 24 -51 20 -72 -19 -21 -39 -31 -42 -60 -19 -19 15 -19 15
3 9 16 -4 26 2 42 24 12 16 21 34 21 40 0 14 5 14 40 -4 27 -14 29 -14 35 5 4
11 11 20 16 20 13 0 11 -11 -6 -30 -15 -16 -13 -19 20 -39 20 -11 38 -21 40
-21 9 0 45 73 39 81 -12 19 -61 38 -72 27 -7 -7 -10 -5 -9 6 1 9 -12 25 -29
36 l-31 20 -27 -40 c-28 -43 -35 -47 -54 -28 -10 10 -17 10 -34 -1 -19 -11
-20 -11 -14 4 3 10 1 24 -5 31 -15 18 1 17 25 -1 31 -24 51 -18 72 20 21 40
22 40 53 18 26 -18 23 -20 72 48 12 18 18 20 36 11 18 -10 23 -8 38 14 9 14
19 23 22 21 2 -3 -3 -16 -12 -30 -15 -24 -15 -25 19 -45 31 -18 35 -19 50 -4
9 10 16 12 16 5 0 -7 -5 -15 -10 -18 -8 -5 -7 -11 1 -21 15 -18 -1 -17 -25 1
-11 8 -25 15 -30 15 -10 -1 -60 -70 -54 -75 2 -1 18 -10 37 -20 34 -17 35 -17
52 6 10 13 21 32 25 42 3 11 12 16 20 13 8 -3 20 -8 27 -11 10 -4 57 50 57 67
0 3 -15 15 -32 27 l-33 20 -17 -22 c-10 -12 -18 -17 -18 -10 0 6 5 15 10 18
17 11 11 22 -22 43 -24 15 -36 18 -45 10 -10 -8 -13 -6 -13 9 0 16 -56 62 -64
51 -42 -56 -47 -69 -36 -83 17 -20 7 -19 -32 4 l-32 20 -22 -31 c-13 -17 -25
-36 -27 -42 -2 -7 -14 -4 -32 8 -28 18 -28 18 -46 -5 -21 -28 -25 -19 -6 14 6
12 13 23 14 25 1 2 13 -4 27 -14 15 -9 28 -15 29 -13 1 2 13 19 26 38 19 27
21 35 10 42 -8 4 -23 15 -34 23 l-20 15 20 1 c11 0 29 15 42 35 l22 34 -33 20
c-18 12 -36 21 -39 21 -3 0 -15 -17 -27 -37z m80 -12 c0 -3 -9 -17 -19 -30
-15 -20 -21 -22 -39 -12 -26 14 -27 24 -6 56 15 23 17 23 40 8 13 -8 24 -18
24 -22z m-117 -45 c18 -14 18 -16 2 -40 -20 -30 -24 -31 -49 -13 -15 11 -16
17 -5 40 14 30 25 33 52 13z m17 -61 c-7 -9 -15 -13 -18 -10 -3 2 1 11 8 20 7
9 15 13 18 10 3 -2 -1 -11 -8 -20z m80 -4 c0 -11 -31 -51 -39 -51 -4 0 -16 6
-26 14 -18 13 -18 15 -2 40 15 23 20 24 42 14 14 -6 25 -14 25 -17z m173 15
c18 -14 18 -16 2 -40 -20 -30 -23 -30 -48 -12 -15 12 -16 18 -6 40 14 29 26
32 52 12z m-673 -67 c20 -13 21 -18 11 -37 -16 -29 -22 -28 -87 13 -54 35 -54
35 -38 60 l16 25 37 -23 c21 -12 48 -29 61 -38z m754 16 c18 -13 18 -16 2 -40
-19 -29 -24 -30 -49 -11 -18 14 -18 16 -2 40 20 30 23 31 49 11z m-374 -10
c18 -22 -15 -72 -35 -55 -8 7 -20 10 -27 7 -8 -3 -2 -9 14 -17 22 -10 30 -11
43 0 8 7 15 8 15 2 0 -19 -28 -34 -46 -24 -13 7 -22 5 -35 -12 -19 -22 -26
-12 -9 14 5 9 5 19 -2 27 -6 7 -6 13 -1 13 5 0 17 14 26 30 20 33 38 38 57 15z
m210 -14 c0 -3 -8 -16 -18 -29 -16 -21 -21 -22 -45 -11 l-26 12 20 28 c18 25
23 27 44 17 14 -6 25 -14 25 -17z m-397 5 c17 -13 17 -16 2 -39 -11 -17 -22
-23 -36 -20 -29 8 -33 21 -15 48 19 29 24 30 49 11z m657 -50 c-1 -15 -25 -46
-37 -46 -5 0 -17 6 -28 14 -18 13 -18 14 1 38 16 21 22 24 41 15 13 -6 23 -15
23 -21z m-700 -51 c0 -8 -4 -17 -10 -20 -5 -3 -10 -12 -10 -18 1 -7 10 -1 21
12 11 13 17 31 14 40 -3 8 -3 12 1 8 4 -4 13 -2 21 4 17 15 18 -5 0 -23 -7 -7
-21 -26 -31 -42 -10 -16 -21 -25 -25 -20 -3 5 -29 25 -58 44 -52 34 -52 34
-36 61 l16 27 49 -30 c26 -16 48 -36 48 -43z m305 63 c30 -13 30 -16 5 -46
-16 -19 -22 -21 -44 -11 -24 11 -24 13 -10 40 17 33 15 33 49 17z m-181 -13
c18 -13 18 -16 2 -40 -19 -29 -24 -30 -50 -10 -18 13 -18 16 -2 40 19 29 24
30 50 10z m80 -50 c17 -13 18 -18 6 -40 -15 -28 -27 -31 -53 -10 -18 13 -18
14 0 39 21 30 22 30 47 11z m190 4 l25 -12 -20 -28 c-18 -25 -23 -28 -42 -18
-12 7 -23 13 -25 14 -4 4 28 55 34 55 2 0 14 -5 28 -11z m195 -3 c10 -12 9
-20 -4 -40 -16 -24 -18 -24 -41 -10 -13 9 -21 21 -17 28 22 39 42 46 62 22z
m192 4 c19 -10 19 -12 2 -35 -20 -28 -32 -30 -56 -12 -16 11 -16 14 -2 35 18
25 27 27 56 12z m-714 -38 c22 -17 22 -17 3 -42 -17 -22 -20 -23 -44 -11 -25
14 -25 15 -9 43 20 33 21 33 50 10z m225 -58 c-19 -27 -25 -28 -53 -13 -19 10
-19 10 1 39 20 28 22 29 45 14 24 -15 24 -17 7 -40z m183 42 c18 -13 18 -17 6
-40 -16 -30 -33 -33 -51 -11 -11 13 -11 20 0 40 15 29 19 30 45 11z m194 2
c19 -12 19 -12 0 -40 -19 -26 -21 -27 -44 -12 -23 15 -23 17 -8 40 17 27 25
29 52 12z m-453 -27 c-17 -19 -17 -20 4 -31 12 -6 19 -14 16 -17 -2 -3 -28 10
-55 28 -28 18 -49 34 -47 36 2 3 16 -3 31 -13 25 -16 27 -16 42 5 8 12 18 20
21 17 3 -3 -3 -15 -12 -25z m-55 -24 c19 -12 74 -47 122 -77 48 -30 113 -72
145 -92 31 -20 81 -51 110 -68 28 -17 52 -35 52 -40 0 -4 -8 -18 -18 -30 l-18
-22 -159 102 c-88 57 -193 123 -232 148 -40 25 -73 49 -73 54 0 15 20 48 29
48 4 0 23 -10 42 -23z m413 -15 c7 -12 -22 -52 -38 -52 -8 0 -19 7 -26 15 -10
12 -9 20 4 40 14 21 20 23 36 15 10 -6 21 -14 24 -18z m-200 3 c17 -13 18 -18
6 -40 -15 -28 -22 -30 -50 -15 -17 9 -17 12 -4 40 17 34 21 35 48 15z m231 5
c3 -5 0 -19 -8 -30 -14 -19 -14 -19 -13 10 1 30 10 38 21 20z m155 -5 c10 -12
9 -20 -4 -40 -14 -21 -20 -23 -36 -15 -24 13 -33 13 -25 0 4 -6 -6 -30 -22
-54 -29 -43 -30 -43 -57 -29 -15 8 -29 13 -29 11 -1 -2 -13 -18 -25 -36 -13
-19 -21 -37 -17 -40 4 -4 10 0 15 8 26 46 36 53 58 41 27 -14 27 -19 2 -51
-15 -20 -21 -23 -31 -12 -7 6 -18 12 -23 12 -6 0 0 -9 14 -20 42 -33 15 -22
-55 22 -36 22 -62 44 -57 47 5 3 17 21 26 39 16 31 17 32 41 16 30 -19 30 -20
7 -49 -13 -16 -23 -21 -33 -14 -23 15 -36 10 -15 -6 28 -21 38 -19 63 17 17
24 20 35 11 45 -14 17 -4 16 34 -3 34 -18 30 -21 75 56 45 77 58 85 83 55z
m-105 -56 c7 -10 -21 -49 -35 -49 -3 0 -14 6 -24 13 -18 13 -18 15 -1 40 14
21 21 25 35 17 11 -6 22 -15 25 -21z m-186 -31 c-14 -26 -33 -32 -59 -18 l-21
11 21 29 c20 28 22 29 45 14 20 -13 23 -20 14 -36z m371 40 c18 -11 18 -14 2
-40 -19 -32 -21 -33 -47 -14 -17 12 -18 18 -7 40 13 29 23 32 52 14z m-450
-23 c-7 -8 -10 -22 -6 -30 5 -14 2 -14 -24 0 -16 8 -32 20 -36 26 -4 7 1 7 16
-1 19 -10 24 -9 37 10 8 12 17 19 20 16 3 -3 0 -12 -7 -21z m372 -14 l-8 -22
-24 21 c-24 20 -24 21 -3 15 12 -3 24 -1 28 5 11 18 16 5 7 -19z m-18 -29 c3
-5 -3 -20 -13 -35 -16 -25 -19 -26 -39 -11 -21 14 -21 17 -7 45 13 24 19 28
35 19 10 -6 21 -14 24 -18z m-324 -12 c0 -5 -2 -10 -4 -10 -3 0 -8 5 -11 10
-3 6 -1 10 4 10 6 0 11 -4 11 -10z m407 -46 c1 -5 -5 -19 -15 -32 -16 -21 -19
-21 -39 -7 -21 15 -21 16 -5 45 15 26 19 28 36 16 11 -7 21 -17 23 -22z m73
-39 c10 -12 9 -20 -4 -40 -14 -21 -20 -24 -36 -15 -23 12 -25 23 -10 51 13 23
33 25 50 4z m-186 -8 c18 -13 18 -15 1 -40 -20 -31 -23 -32 -48 -13 -18 14
-18 16 -2 40 20 30 24 31 49 13z m12 -69 c-9 -14 -13 -28 -9 -31 3 -4 2 -7 -4
-7 -21 0 -21 13 -1 41 26 34 37 31 14 -3z m69 18 c18 -13 18 -15 2 -40 -20
-30 -25 -31 -50 -12 -18 14 -18 16 -2 40 20 30 24 31 50 12z m-99 -62 c46 -30
52 -39 44 -54 -6 -11 -14 -21 -19 -25 -9 -5 -121 60 -121 70 0 11 25 45 33 45
5 0 33 -16 63 -36z m198 -2 c2 -4 -4 -17 -14 -30 -17 -21 -21 -22 -45 -10
l-26 14 21 27 c17 22 25 25 40 17 10 -6 21 -13 24 -18z m-112 -23 c47 -30 63
-55 18 -27 -19 12 -24 10 -47 -17 l-25 -30 18 33 19 33 -25 19 c-40 31 -12 23
42 -11z m98 -96 c0 -2 -8 -15 -17 -27 l-18 -24 -45 31 c-25 17 -47 32 -49 33
-2 2 4 15 13 28 l16 25 50 -31 c27 -17 50 -33 50 -35z"/>
<path d="M1939 6424 l-22 -37 22 -18 c13 -11 29 -19 36 -19 15 0 55 47 55 64
0 10 -49 46 -63 46 -3 0 -16 -16 -28 -36z m65 1 c17 -13 17 -15 2 -30 -9 -9
-16 -21 -16 -26 0 -13 -13 -11 -35 5 -18 13 -18 17 -6 40 16 29 28 32 55 11z"/>
<path d="M2000 6258 c-22 -36 -20 -42 20 -63 27 -14 29 -13 55 21 15 19 25 37
24 38 -27 20 -56 36 -66 36 -7 0 -22 -14 -33 -32z m74 -6 c7 -12 -22 -52 -38
-52 -8 0 -19 6 -25 14 -19 23 14 69 39 56 11 -6 21 -14 24 -18z"/>
<path d="M2369 6173 c-43 -52 -43 -51 -7 -73 18 -11 36 -20 40 -20 3 0 16 16
28 35 l22 35 -24 20 c-29 24 -41 25 -59 3z m44 -7 c21 -16 21 -25 2 -54 -15
-20 -18 -21 -40 -6 -23 15 -23 16 -7 45 19 33 21 33 45 15z"/>
<path d="M2441 6107 c-11 -19 -21 -37 -21 -40 0 -4 18 -16 40 -27 22 -11 40
-16 40 -11 0 5 -13 14 -30 21 -33 14 -36 26 -15 54 8 11 20 16 30 12 11 -4 15
-2 13 6 -9 26 -36 18 -57 -15z"/>
<path d="M2460 5708 c-24 -26 -25 -34 -4 -42 24 -9 29 -7 17 5 -9 9 -8 18 4
35 19 30 10 31 -17 2z"/>
</g>
</svg>
