<?xml version="1.0" standalone="no"?>
<!DOCTYPE svg PUBLIC "-//W3C//DTD SVG 20010904//EN"
 "http://www.w3.org/TR/2001/REC-SVG-20010904/DTD/svg10.dtd">
<svg version="1.0" xmlns="http://www.w3.org/2000/svg"
 width="600.000000pt" height="930.000000pt" viewBox="0 0 600.000000 930.000000"
 preserveAspectRatio="xMidYMid meet">

<g transform="translate(0.000000,930.000000) scale(0.100000,-0.100000)"
fill="#005cb3" stroke="none">
<path d="M1042 3105 c-24 -52 -8 -189 35 -315 47 -137 161 -298 363 -515 142
-151 240 -263 240 -273 0 -9 -207 -168 -233 -178 -15 -5 -189 177 -253 266
-67 93 -104 187 -104 268 0 37 6 50 35 79 38 38 40 52 5 33 -34 -18 -60 -70
-60 -121 0 -46 24 -129 54 -187 29 -56 118 -166 209 -259 56 -57 88 -96 82
-101 -6 -5 -41 -33 -80 -62 -225 -169 -290 -237 -272 -284 11 -28 27 -17 20
14 -5 26 0 36 38 73 24 23 58 53 74 67 54 45 238 180 244 179 9 -1 133 -147
174 -204 35 -50 99 -171 112 -213 6 -21 5 -21 -19 -10 -31 14 -47 3 -22 -15
17 -13 17 -16 -13 -49 -17 -19 -28 -38 -24 -42 4 -4 24 13 44 36 l37 43 12
-30 c7 -18 10 -67 8 -126 -3 -88 -7 -103 -42 -173 -49 -100 -40 -119 12 -25
37 67 54 150 51 244 l-4 86 26 -29 c48 -53 72 -135 72 -242 1 -105 -13 -152
-62 -226 -17 -24 -26 -46 -21 -49 10 -6 65 78 86 135 24 65 24 198 -1 279 -14
47 -32 78 -67 116 -26 29 -48 55 -48 58 0 2 18 32 41 66 65 98 90 172 88 265
-2 68 -7 89 -35 145 -18 36 -54 89 -79 118 l-46 52 61 77 c68 85 84 113 111
192 38 110 17 208 -51 245 l-35 19 32 -29 c18 -15 37 -41 43 -56 35 -96 -22
-260 -134 -383 l-44 -49 -43 50 c-24 27 -98 108 -164 180 -264 286 -362 422
-409 570 -23 73 -42 224 -35 270 8 48 6 53 -9 20z m712 -1175 c26 -30 60 -83
77 -116 53 -112 34 -251 -51 -382 l-35 -53 -27 60 c-38 86 -105 184 -187 276
-39 43 -71 82 -71 86 0 3 49 43 109 88 61 44 113 86 116 92 10 15 18 9 69 -51z"/>
<path d="M2285 1351 c-4 -17 0 -44 9 -66 21 -50 20 -141 -2 -185 -14 -29 -26
-37 -63 -46 -60 -15 -82 -27 -112 -63 l-25 -30 -16 47 -16 47 35 33 c19 18 35
34 35 37 0 12 -21 3 -49 -21 l-31 -26 0 34 c0 19 5 39 12 46 9 9 8 12 -4 12
-31 0 -39 -80 -13 -129 24 -47 29 -104 12 -137 -27 -51 -99 -111 -187 -155
-47 -23 -80 -44 -74 -46 20 -7 126 47 187 94 l58 45 26 -19 c74 -52 75 -53
171 -53 93 0 126 -9 149 -39 6 -9 15 -12 20 -7 4 4 -6 20 -23 34 l-32 25 59
28 c32 16 59 33 59 39 0 7 -3 10 -7 8 -98 -50 -134 -62 -201 -66 -96 -6 -130
2 -175 39 l-37 30 40 59 c69 102 104 118 260 121 77 1 104 -3 144 -20 51 -22
107 -25 113 -5 2 6 -7 9 -25 6 -16 -2 -46 4 -67 13 l-39 16 44 25 c57 33 80
53 80 73 0 10 -10 5 -32 -16 -52 -50 -112 -73 -195 -73 l-71 0 10 34 c7 23 20
39 38 46 34 14 96 77 86 87 -4 4 -15 -3 -25 -15 -17 -23 -70 -62 -83 -62 -25
0 6 120 33 127 10 3 19 9 19 14 0 14 -22 10 -41 -7 -15 -14 -18 -12 -28 17 -6
17 -8 42 -5 55 4 14 2 24 -4 24 -6 0 -13 -13 -17 -29z"/>
<path d="M540 1363 c0 -5 28 -19 63 -32 34 -13 87 -40 117 -59 l55 -36 -45 -7
c-25 -4 -72 -16 -105 -28 -32 -12 -72 -21 -88 -21 -18 0 -26 -4 -21 -11 4 -7
23 -9 51 -5 42 6 44 5 37 -17 -10 -34 -43 -95 -54 -102 -5 -3 -10 -11 -10 -17
0 -7 13 1 29 16 l29 28 7 -41 c4 -23 11 -41 16 -41 12 0 11 26 -1 72 -8 29 -7
48 3 80 17 49 50 66 128 67 38 1 52 -5 86 -34 22 -19 53 -39 68 -45 34 -13
185 -13 185 0 0 6 -33 10 -79 10 -44 0 -91 4 -105 10 -14 5 -54 36 -89 68 -71
66 -131 104 -209 133 -58 21 -68 23 -68 12z"/>
<path d="M1045 944 c-20 -43 -15 -96 13 -133 29 -40 109 -104 124 -99 7 3 -5
16 -29 32 -86 57 -120 134 -89 197 19 37 19 39 7 39 -5 0 -16 -16 -26 -36z"/>
<path d="M460 874 c0 -12 62 -95 79 -106 16 -10 8 -16 -61 -50 -44 -21 -88
-38 -99 -38 -10 0 -19 -5 -19 -11 0 -17 56 -3 115 28 73 38 101 44 159 32 79
-16 106 -29 171 -84 33 -28 71 -58 84 -67 l23 -17 -43 -10 c-92 -23 -125 -34
-162 -53 -48 -24 -157 -133 -157 -155 1 -13 8 -8 28 17 74 95 149 141 272 164
162 31 195 39 247 64 56 27 101 67 89 79 -4 4 -12 0 -17 -9 -21 -37 -135 -88
-199 -88 -41 0 -76 20 -145 82 -60 54 -120 88 -156 88 -65 0 -142 50 -175 113
-13 24 -34 37 -34 21z"/>
<path d="M1822 617 c7 -23 112 -66 179 -73 40 -4 81 -15 102 -28 19 -11 55
-33 79 -48 32 -20 67 -31 124 -38 125 -15 184 -18 184 -9 0 9 -18 12 -165 28
-91 11 -105 15 -164 54 -64 41 -64 42 -35 48 16 4 65 16 108 28 94 25 170 27
221 5 28 -12 36 -12 33 -2 -13 39 -174 47 -272 13 -23 -8 -78 -20 -123 -27
-94 -14 -156 -3 -231 38 -25 13 -42 18 -40 11z"/>
</g>
</svg>
