<?xml version="1.0" standalone="no"?>
<!DOCTYPE svg PUBLIC "-//W3C//DTD SVG 20010904//EN"
 "http://www.w3.org/TR/2001/REC-SVG-20010904/DTD/svg10.dtd">
<svg version="1.0" xmlns="http://www.w3.org/2000/svg"
 width="600.000000pt" height="930.000000pt" viewBox="0 0 600.000000 930.000000"
 preserveAspectRatio="xMidYMid meet">

<g transform="translate(0.000000,930.000000) scale(0.100000,-0.100000)"
fill="#005cb3" stroke="none">
<path d="M1030 3048 c0 -64 31 -214 57 -278 67 -164 156 -279 516 -669 l89
-96 -34 -29 c-45 -38 -188 -144 -202 -149 -6 -2 -9 -7 -6 -10 7 -7 90 49 188
126 l65 51 36 -41 c60 -66 92 -119 112 -180 24 -71 24 -116 0 -191 -18 -59
-83 -186 -100 -197 -5 -3 -23 25 -41 62 -60 129 -138 229 -340 438 -183 190
-249 289 -275 412 -12 57 -12 71 1 103 8 20 26 43 39 50 13 7 22 17 19 22 -10
16 -72 -52 -78 -86 -3 -17 -1 -58 5 -91 20 -111 88 -217 247 -385 l99 -104
-101 -75 c-221 -165 -284 -232 -257 -278 9 -15 10 -13 11 17 0 30 10 44 68 98
60 57 211 176 268 212 20 13 26 9 80 -50 85 -91 150 -183 195 -276 44 -90 48
-110 22 -99 -10 4 -24 9 -30 12 -7 3 -13 1 -13 -5 0 -5 10 -12 22 -15 22 -6
22 -7 -12 -42 -18 -19 -31 -37 -27 -41 3 -3 20 10 37 30 18 20 36 36 40 36 5
0 14 -30 20 -68 11 -57 10 -80 -4 -147 -9 -43 -30 -104 -47 -135 -27 -50 -28
-53 -5 -28 47 52 69 132 70 252 l0 109 33 -39 c68 -78 93 -253 53 -363 -11
-30 -31 -71 -45 -92 -30 -46 -32 -59 -6 -35 10 9 31 45 46 79 67 149 36 367
-62 446 -40 31 -41 47 -7 92 15 19 43 68 62 109 33 69 36 83 37 165 0 79 -3
97 -28 148 -16 32 -53 86 -83 120 l-54 62 39 40 c97 102 152 218 153 325 1 81
-15 117 -62 144 -29 17 -33 17 -21 3 7 -9 19 -17 26 -17 24 0 40 -53 40 -136
-1 -75 -4 -89 -38 -156 -34 -67 -139 -200 -149 -188 -2 3 -65 70 -139 150
-407 439 -477 552 -508 815 -4 39 -6 76 -3 83 2 6 -1 12 -7 12 -6 0 -11 -15
-11 -32z"/>
<path d="M2289 1359 c-8 -17 -7 -31 7 -67 20 -53 20 -149 -1 -198 -11 -27 -21
-34 -66 -44 -37 -9 -66 -25 -96 -53 -24 -22 -45 -38 -46 -36 -2 2 -8 24 -14
49 -13 51 -5 73 35 94 16 9 21 15 11 16 -8 0 -25 -9 -37 -20 -12 -11 -26 -20
-32 -20 -16 0 -12 52 7 72 18 20 4 25 -15 6 -18 -18 -15 -70 8 -123 11 -26 20
-63 20 -84 0 -68 -109 -172 -227 -217 -24 -9 -43 -21 -43 -25 0 -23 148 57
202 109 l38 36 27 -25 c58 -52 63 -54 178 -59 92 -4 117 -9 134 -24 12 -11 24
-17 27 -13 3 3 -11 16 -30 30 l-36 24 40 12 c22 6 52 23 67 37 25 22 22 22
-36 -8 -58 -30 -74 -33 -167 -36 -103 -4 -103 -4 -149 29 -25 18 -45 34 -45
36 0 12 72 112 96 135 43 40 70 46 195 49 90 2 121 -1 146 -14 19 -10 52 -16
80 -16 30 1 37 3 18 6 -49 5 -105 23 -105 33 0 5 15 16 34 25 18 9 46 30 62
47 l29 31 -45 -32 c-69 -50 -105 -61 -190 -61 l-78 0 16 33 c8 19 30 42 48 52
36 19 90 72 82 80 -2 3 -24 -13 -47 -35 -60 -57 -75 -54 -68 13 5 41 12 57 34
74 31 26 20 31 -14 8 -20 -14 -23 -14 -34 6 -6 12 -9 37 -6 55 7 39 2 43 -14
13z"/>
<path d="M550 1356 c0 -2 26 -13 58 -24 58 -22 172 -88 172 -100 0 -4 -22 -8
-49 -10 -28 -1 -67 -10 -88 -18 -21 -9 -58 -20 -83 -25 l-45 -8 53 3 c28 2 52
1 52 -1 0 -14 -35 -82 -56 -110 -14 -18 -21 -33 -15 -33 5 0 17 10 25 22 19
26 33 17 39 -27 3 -16 3 -6 1 24 -1 30 2 74 8 97 11 39 16 44 54 53 76 19 127
14 155 -15 43 -46 91 -64 173 -64 41 0 78 5 81 10 4 6 -28 10 -87 10 l-94 0
-89 76 c-51 44 -118 91 -159 110 -61 30 -106 42 -106 30z"/>
<path d="M1052 955 c-18 -40 -14 -104 9 -141 19 -32 115 -111 124 -102 2 2
-17 19 -42 38 -26 19 -55 47 -65 61 -28 37 -35 103 -14 133 18 28 20 36 8 36
-5 0 -14 -11 -20 -25z"/>
<path d="M460 871 c0 -5 22 -34 50 -64 l49 -54 -97 -46 c-53 -26 -91 -47 -83
-47 8 0 54 18 102 40 l88 41 68 -12 c81 -13 109 -28 207 -111 49 -42 69 -64
58 -66 -156 -24 -262 -80 -324 -169 -40 -59 -30 -65 13 -7 37 51 105 104 159
126 19 8 80 23 135 32 55 10 123 24 151 32 56 15 145 70 152 94 3 9 -8 4 -24
-11 -67 -62 -194 -100 -244 -74 -15 8 -34 20 -42 27 -45 43 -128 107 -155 122
-18 9 -47 16 -64 16 -52 0 -116 37 -149 85 -32 46 -50 63 -50 46z"/>
<path d="M1820 616 c0 -2 16 -14 36 -25 40 -24 141 -51 190 -51 19 0 54 -16
95 -43 35 -24 84 -48 109 -54 45 -12 247 -27 238 -18 -2 2 -61 11 -130 18
-108 12 -133 18 -173 43 -26 16 -58 35 -72 42 -13 8 -23 15 -21 17 2 1 49 14
106 29 117 30 218 34 262 11 17 -9 30 -11 30 -6 0 5 -15 15 -32 22 -52 22
-161 15 -267 -16 -122 -36 -228 -33 -308 8 -52 27 -63 31 -63 23z"/>
</g>
</svg>
