<?xml version="1.0" encoding="utf-8"?>
<svg version="1.0" width="600.000000pt" height="930.000000pt" viewBox="0 0 600.000000 930.000000" preserveAspectRatio="xMidYMid meet" xmlns="http://www.w3.org/2000/svg">
  <defs>
    <path id="path-0" style="fill: none;" d="M 66.732 39.295 C 76.514 47.464 86.121 52.184 95.245 56.746 C 97.572 56.746 99.761 57.739 101.789 57.993 C 108.148 59.861 111.339 60.324 114.566 60.953 C 116.963 61.421 119.396 63.053 119.396 60.174 C 119.396 55.597 118.617 51.838 118.617 48.021 C 120.863 47.865 123.069 47.242 125.005 47.242 C 126.078 46.324 127.533 46.272 128.277 45.528 C 129.915 45.372 131.585 45.372 133.107 45.372 L 133.73 45.528 C 134.636 45.754 135.988 46.151 136.846 46.151"/>
  </defs>
  <g transform="matrix(0.1, 0, 0, -0.1, 0, 930)" fill="#005cb3" stroke="none">
    <path d="M573 9015 c-3 -9 -3 -19 1 -22 3 -4 6 1 6 10 0 13 15 17 88 20 l87 3 -88 2 c-71 2 -89 -1 -94 -13z"/>
    <path d="M838 9023 c34 -2 90 -2 125 0 34 2 6 3 -63 3 -69 0 -97 -1 -62 -3z"/>
    <path d="M1048 9013 c12 -2 30 -2 40 0 9 3 -1 5 -23 4 -22 0 -30 -2 -17 -4z"/>
    <path d="M591 8988 c1 -17 3 -18 6 -6 4 16 24 18 186 21 l182 2 -187 3 -188 2 1 -22z"/>
    <path d="M1138 9003 c12 -2 32 -2 45 0 12 2 2 4 -23 4 -25 0 -35 -2 -22 -4z"/>
    <path d="M1013 8993 c15 -2 37 -2 50 0 12 2 0 4 -28 4 -27 0 -38 -2 -22 -4z"/>
    <path d="M 704.677 9030.676 C 726.643 9036.608 1649.927 8994.966 1666.91 8987.051 C 1683.893 8979.136 1379.385 8991.051 1275 8997 C 1170.615 9002.949 682.711 9024.744 704.677 9030.676 Z"/>
    <path d="M1108 8983 c12 -2 30 -2 40 0 9 3 -1 5 -23 4 -22 0 -30 -2 -17 -4z"/>
    <path d="M1520 8983 l156 -3 -3 -103 c-3 -127 4 -116 10 16 l4 97 -161 -2 -161 -2 155 -3z"/>
    <path d="M 564 8845 C 564 8768 567.983 8581.349 568.983 8621.349 C 570.983 8661.349 576.932 8978.164 574.932 9015.164 C 572.932 9052.164 564 8922 564 8845 Z"/>
    <path d="M 846.073 9008.693 C 858.942 9016.654 1489.21 8967.788 1503.883 8961.102 C 1516.9 8955.17 1263.966 8973.034 1230 8977 C 1196.034 8980.966 830.073 8998.795 846.073 9008.693 Z"/>
    <path d="M1477 8963 l172 -3 4 -33 c4 -31 4 -31 5 6 l2 37 -177 -2 -178 -2 172 -3z"/>
    <path d="M584 8860 c0 -58 1 -81 3 -52 2 28 2 76 0 105 -2 28 -3 5 -3 -53z"/>
    <path d="M 1653 8795 C 1653 8773 1670.801 8524.034 1672.801 8537.034 C 1674.801 8549.034 1657.025 8922.558 1655.025 8932.558 C 1652.025 8941.558 1652 8817 1653 8795 Z"/>
    <path d="M 1672.085 8754.915 C 1672.085 8738.915 1685.983 8576.263 1688.983 8586.263 C 1702.881 8595.263 1677.102 8795.659 1675.102 8802.659 C 1672.102 8808.659 1672.085 8771.915 1672.085 8754.915 Z"/>
    <path d="M 593 8685 C 610.853 8651.455 595 8632 597 8653 C 598.906 8673.009 593.151 8972.681 595.017 8990.695 C 596.983 9009.678 571.188 8725.983 593 8685 Z"/>
    <path d="M1662 8725 c0 -16 2 -22 5 -12 2 9 2 23 0 30 -3 6 -5 -1 -5 -18z"/>
    <path d="M1697 8650 c3 -36 9 -81 13 -100 6 -28 8 -20 9 43 1 75 2 77 26 77 22 0 25 -5 25 -32 0 -18 5 -40 10 -48 8 -12 10 -9 10 13 0 19 5 27 18 27 29 0 56 -58 63 -135 l5 -70 2 68 c2 57 -2 74 -23 107 -18 29 -32 40 -50 40 -19 0 -25 5 -25 21 0 19 -4 21 -39 16 -35 -4 -40 -2 -44 17 -3 11 -3 -8 0 -44z"/>
    <path d="M1672 8665 c0 -16 2 -22 5 -12 2 9 2 23 0 30 -3 6 -5 -1 -5 -18z"/>
    <path d="M473 8661 c-5 -20 -55 -36 -61 -20 -2 5 -10 9 -18 9 -10 0 -8 -6 7 -21 16 -16 23 -18 29 -9 14 23 43 3 37 -26 -2 -14 -1 -22 3 -17 5 4 10 26 12 48 3 35 7 40 31 43 l27 3 0 -75 c0 -42 4 -76 9 -76 11 0 22 52 19 94 -1 25 -2 23 -8 -14 -7 -45 -7 -44 -8 18 l-2 62 -36 0 c-27 0 -37 -5 -41 -19z"/>
    <path d="M241 8553 l-106 -108 100 96 c55 53 109 101 120 107 12 7 15 12 6 12 -8 0 -62 -48 -120 -107z"/>
    <path d="M 1680 8579 L 1680 8528 L 1623 8534 C 1591 8537 1546 8542 1524 8545 C 1498 8549 1480 8548 1476 8541 C 1467 8526 824 8526 815 8540 C 807 8553 737 8553 725 8541 C 719 8536 605.219 8528.025 588.219 8525.025 C 561.219 8521.025 658 8523 692 8521 C 712 8521 732 8525 735 8530 C 738 8536 754 8540 770 8540 C 786 8540 802 8536 805 8530 C 809 8524 933 8520 1146 8520 C 1362 8520 1480 8524 1480 8530 C 1480 8536 1495 8540 1514 8540 C 1533 8540 1552 8536 1555 8530 C 1558 8525 1590 8520 1626 8520 L 1690 8520 L 1690 8575 C 1690 8605 1688 8630 1685 8630 C 1682 8630 1680 8607 1680 8579 Z"/>
    <path d="M349 8605 c-1 -3 -2 -11 -3 -17 -1 -7 -7 -12 -14 -10 -7 1 -11 -1 -11 -5 3 -20 -2 -33 -13 -30 -7 1 -12 -5 -13 -13 0 -8 -6 -14 -11 -13 -6 1 -11 -5 -11 -13 0 -9 11 -14 29 -14 23 0 31 -6 39 -30 6 -16 14 -30 19 -30 4 0 0 16 -8 35 -10 21 -23 35 -34 35 -25 0 -22 10 13 49 40 44 54 30 54 -54 0 -36 3 -65 8 -65 4 0 7 25 7 56 0 40 -6 67 -21 90 -20 33 -28 40 -30 29z"/>
    <path d="M 580 8581 C 580 8565 577 8545 574 8536 C 569 8523 575 8520 601 8521 C 628 8523 630 8524 610 8527 C 587 8531 585 8535 588 8570 C 590 8592 604.801 8659.378 591.925 8687.03 C 579.049 8714.682 580 8597 580 8581 Z"/>
    <path d="M480 8475 l0 -25 125 0 125 0 0 25 0 25 -125 0 -125 0 0 -25z"/>
    <path d="M812 8478 l3 -23 327 0 327 -1 4 23 4 23 -334 0 -334 0 3 -22z"/>
    <path d="M1560 8475 c0 -24 3 -25 55 -25 46 0 55 3 55 18 1 16 1 16 11 0 7 -13 23 -18 54 -18 41 0 45 2 45 25 l0 25 -110 0 -110 0 0 -25z"/>
    <path d="M1923 8488 c-21 -33 -31 -58 -24 -58 5 0 14 14 21 30 10 25 18 30 46 30 27 0 34 -4 34 -19 0 -11 5 -21 11 -23 6 -2 14 -19 19 -38 5 -23 8 -28 9 -13 1 12 -8 41 -20 63 -18 35 -26 40 -54 40 -19 0 -37 -6 -42 -12z"/>
    <path d="M 249 8485 C 248 8482 247 8476 246 8471 C 246 8466 202 8412 150 8350 C 65 8250 55 8241 50 8262 C 44 8285 44 8285 38 8263 C 31 8237 57 8223 74 8244 C 80 8251 114 8293 150 8335 L 214 8412 L 223 8381 C 227 8364 234 8350 239 8350 C 244 8350 251 8339 254 8325 C 259 8304 266 8300 295 8300 C 314 8300 330 8296 330 8291 C 330 8286 321 8252 309 8215 C 298 8178 291 8146 293 8144 C 295 8141 311 8188 329 8247 C 346 8306 369 8364 380 8375 C 398 8393 424 8396 662 8407 C 807 8414 931 8418 938 8415 C 956 8408 950 8330 930 8319 C 922 8315 870 8292 816 8269 C 762 8246 705 8216 691 8204 L 665 8181 L 1123 8180 C 1486 8180 1581 8183 1578 8193 C 1572 8210 1492 8253 1393 8292 L 1310 8325 L 1310 8367 C 1310 8390 1314 8411 1319 8414 C 1324 8417 1446 8415 1590 8408 C 1899 8394 1889 8398 1915 8290 C 1924 8252 1934 8220 1937 8220 C 1942 8220 1936 8251 1925 8290 C 1921 8302 1928 8305 1958 8304 C 1989 8303 2027.801 8326.88 2000.801 8329.88 C 1974.801 8332.88 1929 8318 1920 8346 C 1914 8365 1904 8380 1898 8380 C 1891 8380 1879 8386 1871 8394 C 1859 8404 1787 8411 1588 8420 C 1442 8427 1314 8430 1305 8427 C 1293 8422 1290 8409 1292 8373 L 1295 8325 L 1415 8267 C 1504 8224 1530 8206 1520 8200 C 1492 8182 1439 8190 1379 8221 C 1306 8257 1290 8254 1358 8217 L 1405 8190 L 1370 8190 C 1348 8190 1320 8200 1298 8215 C 1251 8247 1236 8247 1275 8215 L 1305 8191 L 1267 8190 C 1239 8190 1223 8196 1209 8213 L 1189 8235 L 1200 8213 C 1210 8191 1209 8190 1175 8190 C 1151 8190 1140 8194 1140 8205 C 1140 8213 1136 8220 1130 8220 C 1125 8220 1120 8213 1120 8205 C 1120 8194 1109 8190 1084 8190 C 1052 8190 1049 8192 1055 8213 L 1061 8235 L 1044 8213 C 1032 8196 1017 8190 992 8190 L 957 8190 L 981 8216 C 1002 8240 1003 8242 984 8232 C 973 8226 958 8214 950 8206 C 942 8195 921 8190 886 8190 L 835 8191 L 893 8222 C 924 8239 948 8255 946 8258 C 943 8260 911 8246 873 8226 C 826 8201 794 8190 765 8191 L 725 8192 L 760 8207 C 860 8250 910 8273 907 8277 C 905 8279 870 8267 830 8250 C 729 8208 731 8219 832 8264 C 973 8326 965 8319 962 8376 C 960 8403 957 8427 954 8429 C 952 8431 832 8427 688 8420 C 393 8406 355 8397 342 8345 C 335 8319 329 8315 300 8315 C 273 8315 264 8320 262 8335 C 259 8346 252 8359 244 8363 C 226 8373 226 8424 243 8442 C 251 8449 257 8463 257 8473 C 257 8489 252 8497 249 8485 Z"/>
    <path d="M303 8395 c0 -22 2 -30 4 -17 2 12 2 30 0 40 -3 9 -5 -1 -4 -23z"/>
    <path d="M 71 8396 C 53 8377 50 8364 53 8329 L 57 8285 L 58 8329 C 59 8359 67 8381 82 8397 C 94 8410 345.65 8648.52 342.65 8648.52 C 340.65 8648.52 83 8409 71 8396 Z"/>
    <path d="M94 8388 l-19 -23 23 19 c12 11 22 21 22 23 0 8 -8 2 -26 -19z"/>
    <path d="M 1972.87 8415.87 C 1972.87 8404.87 1929.006 8326.888 1932.006 8334.888 C 1935.006 8341.888 1952.751 8466.485 1949.751 8469.485 C 1946.751 8473.485 1971.87 8426.87 1972.87 8415.87 Z"/>
    <path d="M 2012 8361 C 2004 8356 2000 8345 2002 8336 C 2004 8324 2008 8326 2017 8345 C 2023 8359 2039.932 8396.859 2039.932 8396.859 C 2030.974 8409.791 2019 8366 2012 8361 Z"/>
    <path d="M1000 8327 c-49 -17 -51 -43 -3 -64 75 -33 293 -14 293 25 0 22 -41 43 -91 47 l-54 4 46 -8 c26 -5 57 -14 69 -21 19 -10 20 -14 8 -26 -23 -23 -135 -37 -207 -25 -110 18 -115 45 -14 67 47 10 51 12 23 13 -19 0 -51 -5 -70 -12z"/>
    <path d="M1395 8246 c39 -18 81 -36 95 -40 14 -3 -6 9 -45 28 -38 18 -81 36 -95 40 -14 3 7 -9 45 -28z"/>
    <path d="M1946 8180 c4 -19 11 -44 15 -55 6 -14 7 -9 3 15 -4 19 -11 44 -15 55 -6 14 -7 9 -3 -15z"/>
    <path d="M 276 8104 C 272 8090 255.509 8035.724 257.509 8032.724 C 320.923 8077.196 287.196 8094.942 290.196 8109.942 C 314.526 8123.942 337.022 8305.243 335.022 8308.243 C 332.022 8310.243 279 8119 276 8104 Z"/>
    <path d="M 276.48 8071.427 C 241.227 8056.929 743 8095 1120 8095 C 1497 8095 1985.419 8062.731 1950.077 8079.492 C 1876.519 8114.377 393.988 8119.754 276.48 8071.427 Z"/>
    <path d="M 1948.256 8161.131 C 1948.256 8150.131 1966.089 8077.911 1969.089 8085.911 C 1982.597 8103.42 1936.479 8245.296 1933.479 8248.296 C 1930.479 8252.296 1947.256 8172.131 1948.256 8161.131 Z"/>
    <path d="M393 8083 c9 -2 23 -2 30 0 6 3 -1 5 -18 5 -16 0 -22 -2 -12 -5z"/>
    <path d="M1828 8083 c6 -2 18 -2 25 0 6 3 1 5 -13 5 -14 0 -19 -2 -12 -5z"/>
    <path d="M 256 8038 C 253 8025 251 7945 252 7860 L 254 7705 L 264.492 7893.731 C 276.583 7997.822 284.597 8075.224 284.597 8077.224 C 283.597 8078.224 260 8050 256 8038 Z"/>
    <path d="M 2013.777 7695.194 C 2004.491 7704.573 2007.866 7643.515 2008.866 7683.515 C 2010.866 7722.515 1994.57 8085.345 1962.39 8124.184 C 1937.5 8154.225 1997.526 7682.333 2013.777 7695.194 Z"/>
    <path d="M350 7747 c0 -8 5 -51 11 -96 10 -75 9 -95 -16 -227 -15 -80 -25 -147 -23 -149 3 -3 17 62 32 144 26 140 27 154 16 245 -7 53 -14 96 -16 96 -2 0 -4 -6 -4 -13z"/>
    <path d="M1896 7729 c-3 -17 -5 -43 -5 -58 1 -14 5 -2 10 28 10 58 6 83 -5 30z"/>
    <path d="M1375 7721 c-6 -28 10 -71 27 -71 5 0 8 -9 8 -20 0 -24 -27 -17 -32 8 -3 13 -5 12 -10 -5 -5 -17 -2 -23 11 -23 9 0 22 -5 29 -12 9 -9 12 -4 13 23 1 31 2 32 9 9 8 -25 8 -25 9 -2 1 13 6 32 11 43 8 14 7 19 -2 19 -10 0 -10 2 0 9 27 17 9 46 -30 49 -33 3 -37 1 -43 -27z m75 3 c0 -11 -8 -14 -27 -12 -39 4 -42 28 -4 28 21 0 31 -5 31 -16z m-10 -54 c0 -5 -9 -10 -19 -10 -11 0 -23 5 -26 10 -4 6 5 10 19 10 14 0 26 -4 26 -10z"/>
    <path d="M682 7716 c-20 -26 -35 -26 -25 0 4 11 -5 14 -35 14 -27 0 -42 -5 -46 -16 -12 -31 -6 -36 33 -32 22 2 37 0 35 -4 -2 -3 0 -9 6 -13 17 -10 11 -44 -10 -57 -27 -17 -28 -86 -2 -95 9 -4 19 -10 22 -13 3 -4 15 -10 26 -14 19 -6 21 -3 17 19 -4 19 -9 23 -21 16 -17 -10 -52 -3 -52 10 0 5 17 9 39 9 38 0 38 1 44 42 4 27 14 48 28 58 21 17 21 17 -10 12 -20 -3 -31 0 -31 7 0 8 12 11 33 9 28 -3 32 -7 32 -30 -1 -20 4 -28 17 -28 10 0 18 6 18 14 0 12 28 25 53 26 11 0 8 -38 -4 -46 -7 -4 -9 -22 -5 -48 8 -59 8 -59 1 -83 -4 -13 -3 -23 3 -23 5 0 9 8 8 18 -1 12 8 18 29 20 29 3 30 1 30 -35 0 -34 -3 -38 -27 -41 -16 -2 -28 1 -28 7 0 5 12 12 28 14 25 4 25 4 -5 6 -31 1 -33 -1 -33 -34 0 -20 -6 -37 -16 -43 -11 -6 -14 -20 -12 -48 3 -36 6 -39 33 -40 28 -1 28 -1 3 3 -41 6 -35 26 6 21 33 -4 34 -2 33 29 -1 18 -4 33 -8 33 -4 0 -6 -10 -5 -23 2 -20 -1 -23 -26 -19 -30 5 -38 29 -13 38 8 4 15 15 15 25 0 13 7 19 23 19 13 0 28 5 35 12 16 16 15 85 0 91 -10 3 -10 9 -1 25 8 14 10 38 6 67 l-6 45 33 0 c24 0 31 -4 26 -15 -3 -8 -2 -15 3 -15 11 0 22 80 14 109 -5 18 -11 22 -42 19 -30 -3 -36 -7 -38 -28 -3 -25 -3 -25 7 -2 6 14 18 22 35 22 27 0 32 -9 13 -28 -8 -8 -9 -12 -1 -12 6 0 14 5 16 10 3 6 4 5 3 -2 -1 -7 -19 -14 -39 -16 -33 -3 -37 -6 -37 -32 0 -23 -4 -28 -20 -27 -14 1 -20 8 -20 24 0 20 -3 21 -24 13 -24 -9 -36 -5 -36 12 0 10 51 10 66 0 6 -4 14 -14 17 -22 4 -10 6 -9 6 6 1 24 -21 48 -34 36 -4 -4 -3 3 4 15 14 27 14 33 0 33 -5 0 -8 -4 -5 -9 8 -13 -20 -33 -41 -29 -11 2 -17 11 -15 22 3 17 2 18 -12 3 -9 -8 -16 -21 -16 -28 0 -7 -3 -9 -7 -5 -4 4 -8 15 -8 24 0 12 -10 18 -31 20 -24 2 -36 -3 -52 -22z m71 7 c4 -3 1 -13 -6 -21 -10 -13 -9 -14 2 -7 10 5 12 4 7 -3 -4 -7 -20 -12 -35 -12 -26 0 -29 -4 -34 -37 -2 -21 0 -46 5 -56 13 -25 3 -34 -32 -29 -33 5 -42 31 -12 39 11 2 19 15 20 33 4 53 30 100 55 100 13 0 27 -3 30 -7z m-109 -18 c-6 -16 -64 -22 -64 -7 0 15 13 22 41 22 21 0 27 -4 23 -15z m153 -52 c-10 -32 -13 -34 -15 -15 -4 28 4 52 17 52 5 0 4 -16 -2 -37z m183 7 c0 -5 -13 -10 -30 -10 -16 0 -30 5 -30 10 0 6 14 10 30 10 17 0 30 -4 30 -10z m-274 -57 c-11 -11 -17 4 -9 23 7 18 8 18 11 1 2 -10 1 -21 -2 -24z m207 -17 c8 -20 1 -23 -33 -18 -39 6 -40 32 -1 32 16 0 31 -6 34 -14z m-8 -55 c-8 -13 -42 -14 -50 -2 -3 5 7 11 22 13 33 4 37 3 28 -11z m-8 -27 c-3 -3 -12 -4 -19 -1 -8 3 -5 6 6 6 11 1 17 -2 13 -5z"/>
    <path d="M1045 7730 c-4 -6 -4 -14 -1 -17 3 -4 6 -1 6 5 0 13 42 17 53 5 4 -3 1 -13 -6 -21 -10 -13 -9 -14 2 -7 10 5 12 4 7 -3 -4 -7 -20 -12 -37 -12 -34 0 -41 -29 -9 -37 12 -3 20 -14 20 -27 0 -18 6 -21 40 -21 22 0 40 3 40 8 0 4 -9 7 -20 7 -16 0 -19 8 -22 63 -3 62 -3 62 -35 65 -17 2 -34 -2 -38 -8z m60 -70 c-3 -5 -17 -10 -31 -10 -13 0 -24 5 -24 10 0 6 14 10 31 10 17 0 28 -4 24 -10z m5 -35 c0 -8 -4 -15 -10 -15 -5 0 -10 7 -10 15 0 8 5 15 10 15 6 0 10 -7 10 -15z"/>
    <path d="M1157 7734 c-11 -11 -8 -72 3 -79 24 -15 3 -98 -23 -90 -6 2 -23 6 -37 9 l-25 5 -1 -105 c-1 -88 -4 -107 -19 -118 -16 -11 -14 -12 13 -8 29 4 32 2 30 -20 -2 -20 -6 -24 -28 -20 -14 3 -29 10 -33 16 -7 11 2 -42 10 -56 7 -12 48 -9 61 4 7 7 12 27 12 46 0 25 -5 35 -20 39 -12 3 -20 14 -20 27 0 20 4 22 32 18 22 -3 35 0 45 14 12 16 13 14 13 -18 0 -21 -6 -38 -13 -41 -18 -7 -20 -72 -2 -87 20 -16 59 -9 63 13 3 13 -3 17 -27 17 -16 0 -32 4 -35 9 -4 5 4 7 16 5 23 -5 23 -5 0 6 -31 13 -17 33 19 28 15 -3 26 -1 23 4 -3 4 -12 8 -20 8 -11 0 -14 25 -14 140 0 87 4 140 10 140 6 0 11 -12 11 -27 2 -28 2 -28 7 -3 10 53 18 -11 11 -92 -9 -96 -5 -107 31 -115 33 -6 49 -43 19 -43 -10 0 -19 -6 -19 -12 0 -7 -3 -23 -6 -35 -6 -21 -3 -23 30 -23 20 0 36 -5 36 -11 0 -7 -12 -10 -30 -7 -19 3 -27 1 -21 -5 14 -14 55 -4 59 16 3 13 -3 17 -27 17 -16 0 -33 5 -37 12 -4 6 -3 8 4 5 6 -5 8 0 5 13 -8 30 44 28 57 -2 7 -18 9 -19 9 -5 1 9 -8 25 -19 34 -13 11 -20 30 -20 51 0 33 -1 34 -33 30 -20 -2 -34 1 -34 7 0 7 10 11 21 10 14 -2 15 -1 4 2 -30 7 -22 35 10 31 19 -2 27 -8 26 -20 -1 -10 1 -18 5 -18 4 0 7 25 7 55 0 55 0 55 -31 54 -30 -2 -30 -2 -2 -6 30 -5 38 -23 10 -23 -25 0 -40 12 -40 30 0 12 10 14 39 12 42 -4 51 13 23 42 -20 20 -19 26 5 26 18 0 20 -7 20 -59 0 -41 4 -59 13 -58 31 1 47 -4 47 -14 0 -7 -10 -9 -24 -7 -20 4 -25 0 -30 -24 -7 -37 7 -66 36 -70 28 -4 36 -34 11 -40 -21 -6 -28 -50 -12 -79 13 -26 62 -22 67 5 3 16 -1 18 -30 14 -20 -2 -35 1 -35 7 0 6 16 9 39 7 22 -3 38 0 38 6 0 22 -13 42 -27 42 -13 0 -14 10 -9 54 4 31 3 63 -2 73 -11 20 9 59 23 45 4 -4 5 2 3 13 -2 15 -10 19 -31 17 -16 -2 -36 2 -45 10 -15 11 -15 11 -5 -3 7 -9 10 -19 6 -22 -3 -4 6 -7 20 -7 15 0 27 -4 27 -10 0 -14 -47 -13 -56 2 -12 18 -13 89 -3 129 13 51 4 69 -36 69 -40 0 -48 -17 -39 -77 6 -39 4 -43 -15 -43 -17 0 -21 6 -21 30 0 27 -3 30 -31 30 -16 0 -28 4 -24 9 3 5 1 12 -5 16 -5 3 -10 10 -10 16 0 12 57 12 63 -1 3 -6 4 -5 3 2 -3 14 -57 23 -69 12z m181 -21 c2 -9 -7 -13 -25 -13 -20 0 -30 -5 -30 -15 0 -9 10 -15 24 -15 13 0 23 -4 23 -10 0 -5 -11 -10 -25 -10 -24 0 -27 4 -27 35 0 42 2 46 29 43 14 -2 28 -9 31 -15z m-118 -53 c0 -5 -11 -10 -24 -10 -14 0 -28 5 -31 10 -4 6 7 10 24 10 17 0 31 -4 31 -10z m78 -67 c2 -9 -7 -13 -27 -13 -21 0 -31 5 -31 16 0 19 51 16 58 -3z m-148 -52 c0 -14 -38 -24 -52 -14 -9 5 -3 10 17 14 17 4 31 7 33 8 1 0 2 -3 2 -8z m20 -33 c-1 -34 -3 -39 -11 -25 -5 9 -16 17 -24 17 -10 0 -8 7 8 24 12 13 23 24 25 25 1 1 2 -18 2 -41z m110 1 c0 -5 -11 -9 -25 -9 -14 0 -25 6 -25 14 0 9 8 12 25 8 14 -2 25 -8 25 -13z m-180 -9 c0 -5 11 -10 24 -10 25 0 43 -35 24 -47 -6 -3 -8 -1 -5 4 4 7 -5 10 -25 9 -29 -1 -33 2 -33 27 -1 15 3 27 7 27 4 0 8 -4 8 -10z m300 -24 c0 -14 -58 -28 -65 -16 -6 10 9 27 30 32 25 6 35 1 35 -16z m-10 -46 c0 -5 -11 -10 -25 -10 -14 0 -25 5 -25 10 0 6 11 10 25 10 14 0 25 -4 25 -10z m-240 -10 c0 -5 -11 -10 -25 -10 -14 0 -25 5 -25 10 0 6 11 10 25 10 14 0 25 -4 25 -10z m130 0 c0 -5 -9 -10 -19 -10 -11 0 -23 5 -26 10 -4 6 5 10 19 10 14 0 26 -4 26 -10z m148 -77 c2 -9 -7 -13 -27 -13 -21 0 -31 5 -31 16 0 19 51 16 58 -3z m-8 -53 c0 -5 -11 -10 -25 -10 -14 0 -25 5 -25 10 0 6 11 10 25 10 14 0 25 -4 25 -10z m-315 -10 c-3 -5 -17 -10 -31 -10 -13 0 -24 5 -24 10 0 6 14 10 31 10 17 0 28 -4 24 -10z m105 0 c0 -5 -11 -10 -24 -10 -14 0 -28 5 -31 10 -4 6 7 10 24 10 17 0 31 -4 31 -10z"/>
    <path d="M1486 7715 c-4 -14 -2 -34 4 -45 12 -23 22 -27 14 -6 -3 8 0 17 7 22 7 4 10 3 5 -4 -4 -6 5 -12 21 -15 26 -4 26 -5 7 -11 -14 -5 -20 -14 -17 -26 4 -14 0 -17 -21 -13 -14 3 -26 11 -26 19 0 7 -4 16 -10 19 -6 4 -7 -1 -3 -10 3 -10 0 -21 -7 -25 -7 -4 -15 -32 -17 -61 -3 -36 -1 -49 5 -40 11 16 32 6 32 -14 0 -9 -8 -14 -21 -12 -18 2 -22 -4 -25 -34 -4 -38 6 -54 40 -60 26 -5 31 -25 8 -31 -13 -4 -19 -15 -20 -39 -1 -40 13 -59 44 -59 26 0 28 3 38 43 6 26 5 27 -14 15 -14 -9 -25 -10 -36 -3 -25 16 -17 30 17 30 24 0 27 2 14 11 -8 6 -15 24 -16 40 0 16 -3 23 -6 17 -2 -7 -16 -13 -30 -13 -36 0 -23 24 15 28 36 4 42 24 16 53 -14 16 -14 19 6 39 25 25 13 42 -24 31 -21 -6 -21 -6 2 -9 26 -4 30 -22 5 -22 -27 0 -39 12 -40 40 -1 14 1 19 4 13 3 -7 10 -13 16 -13 8 0 7 4 -1 12 -19 19 -14 28 18 28 23 0 30 -4 30 -20 0 -11 5 -20 10 -20 6 0 10 -12 10 -26 0 -14 4 -23 9 -20 5 3 15 -2 22 -11 12 -15 12 -16 -3 -11 -25 10 -35 -58 -12 -83 9 -10 23 -19 30 -19 7 0 15 -8 17 -17 4 -14 5 -13 6 4 0 12 6 25 11 28 21 13 9 25 -22 24 -31 -2 -31 -2 -5 -6 30 -5 27 -23 -4 -23 -12 0 -23 10 -29 26 -14 35 -13 38 8 23 14 -11 15 -11 5 1 -20 22 -15 30 18 30 26 0 31 -3 26 -20 -3 -11 -1 -20 4 -20 19 0 8 41 -13 50 -18 7 -19 9 -5 9 10 1 20 8 23 16 7 16 44 21 44 5 0 -5 8 -14 19 -19 36 -20 64 22 64 97 0 25 5 32 20 32 16 0 18 -5 12 -27 -3 -15 -11 -31 -17 -34 -7 -5 -7 -22 2 -57 6 -28 9 -61 5 -73 -11 -33 13 -69 46 -69 31 0 45 23 23 40 -8 7 -14 9 -14 5 0 -5 -9 0 -20 10 -28 25 -25 35 9 35 20 0 31 -6 34 -17 3 -14 4 -13 3 2 -1 15 -9 21 -31 23 -27 4 -44 16 -45 34 0 4 15 5 33 4 17 -2 23 -1 12 1 -40 9 -41 25 -2 21 l38 -4 -3 35 c-3 31 -7 36 -30 39 -23 3 -29 10 -34 40 -4 20 -8 48 -8 62 -1 21 -6 25 -37 28 -34 3 -37 1 -43 -29 -5 -24 -1 -37 19 -61 33 -38 32 -45 -6 -40 -33 5 -48 29 -43 71 6 46 -4 61 -41 61 -29 0 -36 -4 -41 -27 -5 -17 -1 -37 9 -56 23 -39 21 -49 -5 -45 -18 2 -24 11 -26 35 -2 23 -9 33 -25 36 -21 4 -21 4 1 6 18 1 23 6 20 24 -2 17 -10 23 -39 25 -32 3 -37 0 -43 -23z m74 0 c0 -12 -9 -15 -34 -13 -23 1 -32 6 -29 15 7 19 63 17 63 -2z m105 -10 c0 -22 -34 -29 -47 -10 -16 22 -8 36 20 33 19 -2 27 -9 27 -23z m115 9 c0 -11 -8 -14 -27 -12 -39 4 -42 28 -4 28 21 0 31 -5 31 -16z m-120 -54 c0 -5 -11 -10 -25 -10 -14 0 -25 5 -25 10 0 6 11 10 25 10 14 0 25 -4 25 -10z m120 0 c0 -5 -11 -10 -24 -10 -14 0 -28 5 -31 10 -4 6 7 10 24 10 17 0 31 -4 31 -10z m-217 -57 c2 -36 4 -38 42 -44 l40 -6 -40 -3 c-32 -2 -35 -4 -12 -7 15 -2 27 -9 27 -14 0 -15 -36 -10 -50 6 -7 8 -9 15 -6 15 4 0 0 10 -8 22 -16 23 -21 60 -9 71 10 11 15 1 16 -40z m106 10 c0 -29 -17 -78 -18 -55 -1 7 -16 12 -41 12 -29 0 -40 4 -40 15 0 19 56 21 64 3 3 -7 3 2 0 20 -5 28 -3 32 15 32 16 0 21 -6 20 -27z m69 -34 c2 -11 -6 -18 -25 -22 -35 -7 -42 -2 -36 24 4 15 12 19 32 17 14 -2 27 -10 29 -19z m112 2 c0 -12 -9 -20 -27 -24 -33 -6 -46 3 -37 26 9 25 64 23 64 -2z m-120 -51 c0 -5 -11 -10 -25 -10 -14 0 -25 5 -25 10 0 6 11 10 25 10 14 0 25 -4 25 -10z m-227 -49 c4 -1 7 -7 7 -15 0 -8 -14 -16 -32 -19 -39 -6 -39 -6 -32 19 4 14 12 20 27 18 12 -1 25 -3 30 -3z m302 -60 c-6 -5 -25 10 -25 20 0 5 6 4 14 -3 8 -7 12 -15 11 -17z m40 -21 c-3 -5 -15 -10 -25 -10 -10 0 -22 5 -25 10 -4 6 7 10 25 10 18 0 29 -4 25 -10z m-360 -80 c3 -5 1 -10 -4 -10 -6 0 -11 5 -11 10 0 6 2 10 4 10 3 0 8 -4 11 -10z m45 -30 c0 -5 -11 -10 -24 -10 -14 0 -28 5 -31 10 -4 6 7 10 24 10 17 0 31 -4 31 -10z"/>
    <path d="M466 7713 c-9 -21 4 -34 46 -42 32 -7 32 -8 11 -19 -18 -10 -25 -9 -38 4 -19 19 -19 19 -32 -21 -6 -18 -19 -32 -34 -36 -21 -6 -20 -7 9 -8 22 -1 32 -5 30 -13 -6 -18 -49 -22 -60 -6 -6 8 -7 1 -2 -22 8 -44 12 -50 30 -50 20 0 18 -19 -3 -27 -39 -14 -45 -53 -9 -53 33 0 57 -10 50 -21 -8 -13 -52 -11 -57 4 -3 7 -6 5 -6 -5 -1 -13 7 -18 28 -18 37 0 50 17 49 65 -1 22 2 59 7 83 5 29 4 42 -4 42 -12 0 -15 -10 -12 -57 1 -17 -4 -35 -10 -39 -9 -5 -10 0 -6 19 6 21 4 24 -12 20 -10 -3 -22 0 -25 6 -4 7 1 11 12 11 11 0 23 8 26 18 12 33 45 87 46 75 0 -8 9 -4 22 9 23 23 35 98 15 98 -6 0 -7 -3 -4 -7 12 -11 -15 -33 -40 -33 -20 0 -23 4 -18 20 8 24 0 27 -9 3z m14 -87 c0 -8 -4 -18 -10 -21 -5 -3 -10 3 -10 14 0 12 5 21 10 21 6 0 10 -6 10 -14z m-25 -164 c6 -4 11 -14 12 -22 2 -13 -5 -15 -32 -12 -38 5 -45 15 -17 31 21 12 24 13 37 3z"/>
    <path d="M 2003 7660 C 2003 7624 2012.055 7612.646 2014.055 7630.646 C 2016.055 7647.646 2020.485 7729.023 2010.528 7744.151 C 1993.535 7769.97 2003 7696 2003 7660 Z"/>
    <path d="M243 7620 c0 -36 2 -50 4 -32 2 17 2 47 0 65 -2 17 -4 3 -4 -33z"/>
    <path d="M1009 7648 c-3 -21 -1 -38 4 -38 4 0 5 -10 2 -21 -5 -16 -4 -19 5 -14 8 5 11 4 7 -2 -11 -18 -66 -3 -70 21 -3 17 -5 15 -6 -6 0 -16 4 -28 12 -29 52 -3 68 -15 36 -28 -18 -7 -27 -5 -36 7 -7 9 -13 11 -13 5 0 -7 4 -14 9 -18 6 -3 7 -28 4 -55 l-6 -49 38 6 c28 4 36 3 31 -5 -4 -7 -18 -12 -30 -12 -19 0 -25 -7 -28 -30 -3 -22 0 -31 13 -35 26 -9 12 -35 -18 -35 -20 0 -24 4 -20 20 3 11 1 20 -4 20 -5 0 -9 -11 -9 -25 0 -21 5 -25 29 -25 36 0 48 -15 24 -29 -17 -10 -17 -10 -1 -11 10 0 22 9 28 20 13 24 3 70 -16 70 -8 0 -14 10 -14 25 0 20 5 25 25 25 45 0 57 67 17 96 -14 10 -14 14 1 38 15 22 16 33 7 64 -5 20 -11 48 -13 62 -2 19 -4 16 -8 -12z m-9 -138 c0 -5 -4 -10 -10 -10 -5 0 -10 5 -10 10 0 6 5 10 10 10 6 0 10 -4 10 -10z m22 -44 c-2 -12 1 -16 9 -10 7 4 10 3 6 -3 -3 -5 -20 -8 -37 -5 -22 3 -30 10 -30 24 0 15 6 19 28 16 20 -2 26 -8 24 -22z"/>
    <path d="M564 7638 c-8 -27 -15 -34 -42 -36 -30 -3 -44 -24 -23 -36 21 -13 20 -71 -1 -138 -20 -62 -24 -68 -50 -68 -17 0 -31 -7 -38 -19 -14 -28 -13 -31 13 -30 16 1 17 3 5 6 -10 2 -15 10 -11 19 3 9 21 14 55 14 51 0 57 -12 14 -31 -18 -8 -17 -9 7 -4 21 4 27 2 21 -6 -4 -8 -3 -9 4 -5 7 4 12 3 12 -3 0 -15 -35 -31 -69 -31 -47 0 -46 18 1 23 l43 4 -47 1 c-49 2 -58 -4 -36 -26 17 -17 69 -15 96 4 22 15 33 62 11 48 -8 -4 -9 0 -4 15 5 17 2 21 -15 21 -19 0 -21 4 -15 28 9 37 25 52 25 24 0 -18 6 -22 35 -22 29 0 36 4 41 26 7 27 -9 54 -20 35 -11 -17 -56 -14 -56 4 0 14 28 20 70 16 13 -2 13 -1 0 8 -12 9 -11 20 9 81 12 39 29 74 37 77 8 3 14 10 14 15 0 6 -6 5 -15 -2 -8 -7 -22 -9 -32 -5 -16 7 -15 9 7 15 24 8 24 8 -6 9 -27 1 -32 -3 -40 -31z m40 -7 c10 -15 -5 -40 -20 -34 -18 7 -18 43 0 43 8 0 17 -4 20 -9z m-19 -58 c0 -7 -3 -13 -7 -13 -5 0 -21 0 -37 0 -16 0 -31 6 -34 14 -4 10 5 13 36 12 26 -1 42 -6 42 -13z m-14 -67 c-6 -14 -17 -26 -26 -26 -21 0 -19 20 3 21 12 0 10 3 -8 11 l-25 11 30 7 c38 8 38 8 26 -24z m19 -66 c0 -5 -5 -10 -11 -10 -5 0 -7 5 -4 10 3 6 8 10 11 10 2 0 4 -4 4 -10z m-5 -30 c-3 -5 -17 -10 -31 -10 -13 0 -24 5 -24 10 0 6 14 10 31 10 17 0 28 -4 24 -10z"/>
    <path d="M 1869.122 7633.512 C 1871.122 7592.512 1902 7424 1919 7336 C 1958 7131 1961 7136 1815 7125 C 1440 7098 898 7092 547 7111 C 307 7124 305 7125 314 7210 L 340.171 7389.377 L 295.768 7268.634 C 272.183 7218.28 304 7134 330 7120 C 362 7103 583 7095 1035 7095 C 1513 7095 1819 7106 1907 7125 C 1920 7128 1936 7141 1945 7153 C 1958 7174 1957 7192 1929 7340 C 1911 7431 1894 7537 1889 7575 L 1894.232 7729.682 L 1869.122 7633.512 Z"/>
    <path d="M798 7600 c-21 -36 -55 -40 -61 -7 -2 12 -4 3 -4 -21 0 -24 4 -45 9 -48 4 -3 5 2 2 10 -5 12 1 16 25 16 17 0 31 -4 31 -10 0 -9 -14 -14 -32 -11 -4 0 -5 -6 -2 -13 3 -8 -3 -23 -14 -34 -17 -17 -19 -26 -11 -59 12 -54 11 -60 -11 -66 -22 -6 -28 -42 -7 -50 9 -4 9 -6 -1 -6 -10 -1 -10 -6 -2 -21 6 -11 18 -19 28 -19 16 1 16 2 0 6 -26 6 -22 23 5 24 18 0 19 2 5 7 -15 6 -14 9 7 19 19 8 23 8 18 0 -7 -12 -12 -47 -7 -47 2 0 8 9 14 20 13 24 3 70 -16 70 -23 0 -16 18 14 32 23 11 27 20 29 56 1 23 -2 42 -7 42 -4 0 -6 19 -3 42 4 29 3 39 -5 34 -8 -5 -10 -2 -6 8 3 9 10 13 15 10 5 -3 9 6 9 20 0 33 -1 32 -22 -4z m9 -138 c-1 -14 -7 -17 -29 -14 -38 6 -37 32 1 32 22 0 29 -4 28 -18z m-2 -52 c-3 -5 -17 -10 -31 -10 -13 0 -24 5 -24 10 0 6 14 10 31 10 17 0 28 -4 24 -10z m-27 -72 c-7 -20 -58 -23 -58 -4 0 11 10 16 31 16 20 0 29 -4 27 -12z"/>
    <path d="M2013 7525 c0 -27 2 -38 4 -22 2 15 2 37 0 50 -2 12 -4 0 -4 -28z"/>
    <path d="M233 7485 c0 -27 2 -38 4 -22 2 15 2 37 0 50 -2 12 -4 0 -4 -28z"/>
    <path d="M1656 7500 c3 -19 13 -43 22 -52 17 -20 3 -25 -16 -6 -9 9 -12 9 -12 -3 0 -22 32 -49 58 -49 23 0 40 -18 26 -29 -14 -10 -16 -61 -3 -77 6 -8 19 -14 28 -13 11 0 9 3 -6 9 -13 5 -21 17 -20 28 1 12 6 18 15 15 11 -5 11 -7 0 -15 -9 -7 -8 -8 5 -4 10 3 37 6 59 6 35 0 39 3 36 22 -2 12 -9 23 -16 24 -7 1 -8 0 -2 -3 5 -2 10 -11 10 -19 0 -15 -53 -20 -84 -8 -25 10 -19 33 7 28 12 -2 15 -1 7 2 -24 11 -30 26 -30 76 0 50 -11 64 -48 59 -15 -2 -25 5 -32 21 -8 19 -9 17 -4 -12z m74 -36 c0 -11 -8 -14 -27 -12 -39 4 -42 28 -4 28 21 0 31 -5 31 -16z m0 -54 c0 -5 -11 -10 -24 -10 -14 0 -28 5 -31 10 -4 6 7 10 24 10 17 0 31 -4 31 -10z"/>
    <path d="M626 7475 c-9 -26 -7 -32 5 -12 6 10 9 21 6 23 -2 3 -7 -2 -11 -11z"/>
    <path d="M685 7459 c-5 -8 -4 -10 3 -5 7 4 12 3 12 -3 0 -5 -15 -11 -32 -13 -30 -3 -33 -6 -30 -34 2 -25 -2 -33 -18 -37 -11 -3 -20 -11 -19 -19 0 -10 2 -10 6 0 2 6 18 12 35 12 41 0 31 -24 -13 -29 -32 -4 -33 -4 -9 -11 24 -8 24 -8 3 -9 -13 -1 -23 -5 -23 -9 0 -4 17 -6 38 -4 41 5 35 -13 -8 -21 -25 -4 -25 -4 2 -6 35 -1 62 36 52 73 -3 14 -12 26 -20 26 -23 0 -16 18 13 32 15 7 29 21 31 32 5 23 -13 42 -23 25z m10 -39 c-3 -5 -17 -10 -31 -10 -13 0 -24 5 -24 10 0 6 14 10 31 10 17 0 28 -4 24 -10z m-15 -84 c0 -2 -8 -10 -17 -17 -16 -13 -17 -12 -4 4 13 16 21 21 21 13z"/>
    <path d="M2023 7425 c0 -27 2 -38 4 -22 2 15 2 37 0 50 -2 12 -4 0 -4 -28z"/>
    <path d="M223 7370 c0 -30 2 -43 4 -27 2 15 2 39 0 55 -2 15 -4 2 -4 -28z"/>
    <path d="M1575 7342 c-7 -34 6 -62 29 -62 6 0 3 5 -8 11 -15 9 -16 13 -5 20 8 5 26 9 42 9 20 0 27 5 27 19 0 11 -4 22 -9 25 -5 4 -7 -3 -4 -14 8 -30 -45 -28 -56 3 -8 21 -9 20 -16 -11z m20 -12 c3 -5 1 -10 -4 -10 -6 0 -11 5 -11 10 0 6 2 10 4 10 3 0 8 -4 11 -10z"/>
    <path d="M2033 7320 c0 -25 2 -35 4 -22 2 12 2 32 0 45 -2 12 -4 2 -4 -23z"/>
    <path d="M1215 7320 c-3 -5 -1 -10 4 -10 6 0 11 5 11 10 0 6 -2 10 -4 10 -3 0 -8 -4 -11 -10z"/>
    <path d="M1640 7295 c0 -8 2 -15 4 -15 2 0 6 7 10 15 3 8 1 15 -4 15 -6 0 -10 -7 -10 -15z"/>
    <path d="M 221.065 7255 C 229.13 7222.623 207.929 7135.161 200.869 7149.658 C 197.492 7156.593 240.645 7808.435 254.754 7826.603 C 281.551 7861.107 214.297 7282.17 221.065 7255 Z"/>
    <path d="M1826 7284 c-5 -14 -4 -15 9 -4 17 14 19 20 6 20 -5 0 -12 -7 -15 -16z"/>
    <path d="M930 7281 c0 -6 4 -13 10 -16 6 -3 7 1 4 9 -7 18 -14 21 -14 7z"/>
    <path d="M 2014.323 7494.903 C 2014.323 7469.903 2057.855 7132.59 2059.855 7145.59 C 2061.855 7157.59 2008.457 7693.776 2006.457 7706.776 C 2004.457 7718.776 2014.323 7519.903 2014.323 7494.903 Z"/>
    <path d="M557 7244 c-4 -4 -7 -14 -7 -23 0 -12 3 -11 13 3 11 15 22 17 68 11 99 -13 922 -17 945 -4 12 6 44 9 72 8 28 -2 48 -1 45 4 -7 11 -107 9 -119 -3 -11 -11 -843 -7 -949 5 -33 4 -63 3 -68 -1z"/>
    <path d="M 1701 7209 C 1700 7196 1678 7192 1563 7187 C 1488 7183 1378 7180 1318 7180 C 1222 7180 1122.196 7173 1149.196 7156 C 1154.196 7153 1334 7155 1465 7161 C 1596 7166 1705 7168 1708 7165 C 1720 7154 1696 7146 1627 7140 L 1555 7133 L 1621 7131 C 1705 7130 1725 7143 1712 7190 C 1706 7209 1701 7218 1701 7209 Z"/>
    <path d="M542 7166 c3 -26 7 -31 31 -32 25 -1 25 -1 2 3 -14 2 -25 9 -25 14 0 7 112 8 322 3 225 -5 319 -4 314 4 -3 6 -2 12 4 14 5 1 -119 4 -276 6 -156 1 -305 6 -330 11 l-45 9 3 -32z"/>
    <path d="M 202 7132 C 200 7072 202 7066 234 7034 C 255 7013 277 7000 292 7001 C 312 7002 310 7003 284 7011 C 234 7025 218.038 7082.528 211.038 7157.528 L 203 7195 L 202 7132 Z"/>
    <path d="M 2052 7127 C 2050 7086 2045 7073 2016 7044 C 1981 7009 1981 7000 2016 7025 C 2045 7045 2076.986 7125.834 2068.419 7168.988 C 2014.589 7440.151 2053 7172 2052 7127 Z"/>
    <path d="M613 7133 c9 -14 513 -24 712 -15 126 6 77 8 -235 8 -217 1 -415 4 -439 9 -27 4 -41 4 -38 -2z"/>
    <path d="M 1354.453 7127.354 C 1342.453 7119.354 1488 7120 1505 7120 C 1516 7120 1530.575 7129.59 1540 7130 C 1602.28 7132.707 1530.829 7142.646 1513.829 7142.646 C 1502.829 7142.646 1362.453 7132.354 1354.453 7127.354 Z"/>
    <path d="M 1938 7003 C 1944 7001 1989.29 7011.77 1996.29 7013.77 C 2002.29 7016.77 2024.705 7024.645 2010.705 7024.645 C 1996.705 7024.645 1931 7006 1938 7003 Z"/>
    <path d="M 285.21 7008.326 C 297.21 7006.326 714.714 6953.746 811.082 6962.655 C 881.116 6962.2 726.479 6952.733 446.526 6965.552 C 257.547 6994.341 272.21 7010.326 285.21 7008.326 Z"/>
    <path d="M 1803.181 6989.594 C 1812.181 6987.594 1984.849 7019.95 1994.849 7021.95 C 2003.849 7024.95 1864.724 6980.971 1845.724 6980.971 C 1826.724 6980.971 1793.181 6992.594 1803.181 6989.594 Z"/>
    <path d="M 433 6983 C 448 6981 469.869 6983.754 483 6983 C 501.075 6981.963 483 6987 455 6987 C 428 6987 417 6985 433 6983 Z"/>
    <path d="M1778 6983 c12 -2 32 -2 45 0 12 2 2 4 -23 4 -25 0 -35 -2 -22 -4z"/>
    <path d="M 459.448 6983.217 C 482.448 6981.217 750.045 6962.485 771.045 6964.485 C 791.045 6966.485 637.698 6959.005 595.217 6965.08 C 552.736 6971.155 435.448 6985.217 459.448 6983.217 Z"/>
    <path d="M 1454.535 6966.648 C 1472.383 6969.723 1787.394 6989.412 1832.798 6990.029 C 1929.482 6991.343 1833.511 6979.283 1693.515 6968.485 C 1655.628 6965.563 1429.277 6962.296 1454.535 6966.648 Z"/>
    <path d="M 738 6963 C 777 6961 642.533 6959.481 682.533 6961.481 C 721.533 6962.481 867.22 6961.444 787.22 6961.444 C 707.22 6961.444 698 6964 738 6963 Z"/>
    <path d="M 1300.825 6952.783 C 1337.825 6950.783 1665.183 6971.217 1703.183 6973.217 C 1740.183 6975.217 1532.08 6967.703 1458.08 6967.703 C 1384.08 6967.703 1262.825 6954.783 1300.825 6952.783 Z"/>
    <path d="M 584.91 6970.81 C 618.91 6968.81 1417.495 6962.92 1452.495 6964.92 C 1486.495 6966.92 1146.862 6944.08 1077.862 6944.08 C 1008.862 6944.08 549.91 6972.81 584.91 6970.81 Z"/>
  </g>
  <text style="white-space: pre; fill: rgb(0, 92, 179); font-size: 2.3px;" x="84.806" y="43.347"> </text>
  <text style="white-space: pre; fill: rgb(0, 92, 179); font-size: 2.3px;" x="63.148" y="37.737">console.log('Stoned Worker')</text>
  <text style="white-space: pre; fill: rgb(0, 92, 179); font-size: 2.3px;" x="65.797" y="66.251">alert('wtf ???')</text>
  <text style="white-space: pre; fill: rgb(0, 92, 179); font-size: 2.3px;" x="83.871" y="42.723">error('brainstorm')</text>
  <text style="white-space: pre; fill: rgb(0, 92, 179); font-size: 2.3px;" x="94.31" y="54.253" transform="matrix(1, 0, 0, 1, -32.538731, -6.388204)">const Idea = () =&gt; {<tspan x="94.30999755859375" dy="1em">​</tspan>    alert('HELP ME')<tspan x="94.30999755859375" dy="1em">​</tspan>}</text>
  <text style="white-space: pre; fill: rgb(0, 92, 179); font-size: 2.3px;" x="86.052" y="51.76" transform="matrix(1, 0, 0, 1, -4.362676, 3.116197)">00101010010101001010101001010110<tspan x="86.052001953125" dy="1em">​</tspan>10101010101001011010010101010100<tspan x="86.052001953125" dy="1em">​</tspan>0101010101010101001011</text>
  <text style="white-space: pre; fill: rgb(0, 92, 179); font-size: 2.3px;" x="86.052" y="51.76" transform="matrix(1, 0, 0, 1, 8.987761, 13.493587)">00101010010101001010101001010110<tspan x="86.052001953125" dy="1em">​</tspan>10101010101001011010010101010100<tspan x="86.052001953125" dy="1em">​</tspan>0101010101010101001011</text>
  <text style="white-space: pre; fill: rgb(0, 92, 179); font-size: 3.4px;" x="112.087" y="58.589">Enter your text here</text>
  <text style="white-space: pre; fill: rgb(0, 92, 179); font-size: 3.4px;" x="118.906" y="51.542">Enter your text here</text>
  <text style="white-space: pre; fill: rgb(0, 92, 179); font-size: 3.4px;" x="90.037" y="45.404">Enter your text here</text>
  <text style="white-space: pre; fill: rgb(0, 92, 179); font-size: 3.4px;" x="87.081" y="48.814">Enter your text here</text>
  <text style="white-space: pre; fill: rgb(0, 92, 179); font-size: 3.4px;" x="73.897" y="39.949">Enter your text here</text>
  <text style="white-space: pre; fill: rgb(0, 92, 179); font-size: 3.4px;" x="62.531" y="40.858">Enter your text here</text>
  <text style="white-space: pre; fill: rgb(0, 92, 179); font-size: 3.4px;" x="68.441" y="60.635">Enter your text here</text>
  <text style="white-space: pre; fill: rgb(0, 92, 179); font-size: 3.4px;" x="68.441" y="52.906">Enter your text here</text>
  <text style="white-space: pre; fill: rgb(0, 92, 179); font-size: 3.4px;" x="75.261" y="44.95">Enter your text here</text>
  <text style="white-space: pre; fill: rgb(0, 92, 179); font-size: 3.4px;" x="120.498" y="39.721">Enter your text here</text>
  <text style="white-space: pre; fill: rgb(0, 92, 179); font-size: 3.4px;" x="112.996" y="36.766">Enter your text here</text>
  <text style="white-space: pre; fill: rgb(0, 92, 179); font-size: 3.4px;" x="109.132" y="40.631">Enter your text here</text>
  <text style="white-space: pre; fill: rgb(0, 92, 179); font-size: 3.4px;" x="140.957" y="64.045">Enter your text here</text>
  <text style="white-space: pre; fill: rgb(0, 92, 179); font-size: 3.4px;" x="86.172" y="66.545">Enter your text here</text>
  <text style="white-space: pre; fill: rgb(0, 92, 179); font-size: 3.4px;" x="71.851" y="71.092">Enter your text here</text>
  <text style="white-space: pre; fill: rgb(0, 92, 179); font-size: 3.4px;" x="63.667" y="59.726">Enter your text here</text>
  <text style="white-space: pre; fill: rgb(0, 92, 179); font-size: 3.4px;" x="110.041" y="51.542">Enter your text here</text>
  <text style="white-space: pre; fill: rgb(0, 92, 179); font-size: 3.4px;" x="137.319" y="46.996">Enter your text here</text>
  <text style="white-space: pre; fill: rgb(0, 92, 179); font-size: 3.4px;" x="81.398" y="34.266">Enter your text here</text>
  <text style="white-space: pre; fill: rgb(0, 92, 179); font-size: 3.4px;" x="71.624" y="34.266">Enter your text here</text>
  <text style="white-space: pre; fill: rgb(0, 92, 179); font-size: 3.4px;" x="124.135" y="53.815">Enter your text here</text>
  <text style="white-space: pre; fill: rgb(0, 92, 179); font-size: 3.4px;" x="136.865" y="71.774">Enter your text here</text>
  <text style="white-space: pre; fill: rgb(0, 92, 179); font-size: 3.4px;" x="122.771" y="72.91">Enter your text here</text>
  <text style="white-space: pre; fill: rgb(0, 92, 179); font-size: 3.4px;" x="106.176" y="73.365">Enter your text here</text>
  <text style="white-space: pre; fill: rgb(0, 92, 179); font-size: 3.4px;" x="81.171" y="65.409">Enter your text here</text>
  <text style="white-space: pre; fill: rgb(0, 92, 179); font-size: 3.4px;" x="70.032" y="55.634">Enter your text here</text>
  <text style="white-space: pre; fill: rgb(0, 92, 179); font-size: 3.4px;" x="107.54" y="51.315">Enter your text here</text>
  <text style="white-space: pre; fill: rgb(0, 92, 179); font-size: 3.4px;" x="124.589" y="46.314">Enter your text here</text>
</svg>