<svg width="600" height="930" xmlns="http://www.w3.org/2000/svg" preserveAspectRatio="xMidYMid meet" version="1.0">

 <g>
  <title>Layer 1</title>
  <g id="svg_1" fill="#005cb3" transform="translate(0.000000,930.000000) scale(0.100000,-0.100000)">
   <path id="svg_2" d="m575,9031c-17,-28 -25,-128 -19,-234c6,-109 14,-133 27,-82c3,11 5,-6 6,-37c1,-60 -18,-94 -21,-36c-1,26 -3,22 -8,-17l-7,-50l-1,53l-2,52l-36,0c-27,0 -37,-5 -41,-19c-6,-23 -49,-33 -64,-15c-6,8 -25,14 -41,14c-25,0 -54,-23 -173,-140c-140,-139 -142,-142 -148,-193c-4,-29 -8,-61 -9,-72c-7,-46 31,-23 105,65c53,64 77,85 77,71c0,-11 6,-26 14,-33c8,-8 15,-23 18,-34c2,-14 13,-20 41,-22c25,-2 37,-8 34,-15c-2,-7 -20,-68 -40,-137c-34,-121 -36,-133 -41,-342c-4,-120 -15,-313 -26,-430c-25,-273 -25,-303 0,-338c25,-35 58,-46 175,-59c285,-33 1075,-40 1355,-12c203,21 241,30 279,68l34,34l-6,92c-4,51 -15,184 -26,297c-11,113 -23,288 -26,390c-6,168 -10,196 -41,307c-19,68 -34,127 -34,132c0,6 17,11 37,13c29,2 39,8 42,23c2,11 9,24 17,28c17,9 19,83 3,92c-5,4 -14,18 -19,31c-8,20 -17,24 -49,24c-34,0 -40,-4 -50,-30c-17,-50 -31,-35 -31,33c0,50 -5,70 -25,100c-16,22 -34,37 -46,37c-12,0 -23,8 -26,20c-4,16 -14,20 -43,20l-37,0l-13,90c-7,49 -10,111 -6,137c3,27 7,57 8,67c3,19 -5,20 -192,22c-107,2 -242,8 -300,14c-233,24 -312,29 -462,30c-86,0 -159,-4 -163,-9zm138,-18c-119,-4 -123,-4 -124,-26c0,-12 -3,-16 -6,-9c-3,7 -2,19 1,27c4,12 28,15 128,13l123,-2l-122,-3zm332,-2c24,-5 -8,-6 -80,-3c-66,3 -122,6 -124,8c-8,7 164,3 204,-5zm73,-32l122,-13l1,-36l1,-35l7,30l6,30l196,0l196,0l0,-85c1,-47 8,-128 17,-180c9,-52 16,-110 16,-127l0,-33l-54,0c-30,0 -58,5 -61,10c-3,6 -24,10 -45,10c-21,0 -42,-4 -45,-10c-4,-6 -125,-10 -331,-10c-209,0 -324,4 -324,10c0,6 -20,10 -44,10c-25,0 -48,-4 -51,-10c-3,-5 -34,-10 -68,-10l-62,0l1,224c1,123 5,229 9,236c10,16 318,9 513,-11zm65,14c-13,-2 -33,-2 -45,0c-13,2 -3,4 22,4c25,0 35,-2 23,-4zm369,-13c70,0 128,-3 128,-7c0,-10 -460,4 -469,13c-3,4 43,4 103,0c60,-3 167,-6 238,-6zm-975,-153c-2,-23 -3,-1 -3,48c0,50 1,68 3,42c2,-26 2,-67 0,-90zm1090,-9c-2,-24 -4,-5 -4,42c0,47 2,66 4,43c2,-24 2,-62 0,-85zm10,-85c-3,-10 -5,-4 -5,12c0,17 2,24 5,18c2,-7 2,-21 0,-30zm-1139,-145c2,-43 7,-78 12,-78c6,0 11,8 11,18c1,16 2,16 6,0c4,-15 17,-18 84,-18c46,0 79,4 79,10c0,6 18,10 40,10c22,0 40,-4 40,-10c0,-6 117,-10 331,-10c280,0 333,2 345,15c20,19 48,19 68,-1c13,-12 33,-15 89,-12l72,3l5,75c4,67 7,75 25,75c16,0 21,-8 25,-40c3,-22 11,-49 17,-60c10,-17 11,-13 6,23c-5,34 -3,42 10,42c32,0 56,-53 59,-131c3,-66 5,-74 23,-74c13,0 25,12 35,33c12,28 18,33 44,30c22,-2 32,-9 35,-23c2,-11 9,-24 17,-28c18,-10 18,-51 0,-67c-8,-6 -16,-21 -18,-33c-4,-29 -44,-31 -41,-2c7,51 4,115 -5,131c-7,13 -9,5 -5,-28c3,-26 2,-64 -2,-85l-7,-38l-13,31c-25,59 -44,64 -288,74c-122,5 -249,11 -282,12l-60,3l-3,-57l-3,-57l81,-37c94,-43 102,-54 11,-18c-98,40 -85,19 20,-30c64,-31 86,-45 69,-46c-14,0 -35,7 -46,15c-27,18 -125,57 -131,51c-2,-2 20,-18 49,-35c44,-25 49,-31 28,-30c-14,0 -43,11 -65,24c-51,32 -65,32 -35,0l23,-25l-28,0c-16,0 -40,10 -53,23l-24,22l6,-22c6,-20 4,-23 -19,-23c-18,0 -29,6 -32,20c-3,11 -9,20 -14,20c-5,0 -9,-9 -9,-20c0,-16 -7,-20 -30,-20c-25,0 -29,4 -28,24c2,22 7,24 84,29c124,7 182,47 117,80c-37,19 -113,30 -113,17c0,-5 10,-10 21,-10c37,0 99,-23 99,-36c0,-38 -251,-46 -288,-9c-13,12 29,33 79,40c28,4 46,11 43,17c-8,12 -79,1 -116,-18c-34,-17 -36,-38 -6,-58c12,-9 20,-17 17,-19c-2,-1 -21,-15 -42,-31c-26,-19 -47,-26 -70,-24l-32,3l47,28c99,58 45,51 -61,-9c-24,-13 -55,-24 -70,-23c-19,0 1,14 74,50c59,29 88,47 70,45c-28,-5 -27,-4 7,11c43,18 52,38 43,93l-7,40l-66,-1c-37,0 -164,-6 -282,-12c-176,-10 -221,-15 -243,-30c-15,-9 -28,-22 -28,-27c-1,-6 -2,-14 -3,-19c0,-5 -4,-12 -8,-16c-11,-12 -21,63 -14,113c4,37 3,43 -5,28c-6,-10 -9,-46 -7,-82c3,-55 2,-64 -13,-64c-10,0 -25,14 -33,32c-18,35 -21,88 -6,88c6,0 10,11 10,25c0,22 4,25 33,25c28,0 36,-5 48,-32c9,-22 21,-33 34,-33c17,0 20,8 23,58c2,44 -2,67 -17,92c-15,25 -16,36 -8,46c7,7 1,5 -12,-6c-12,-11 -46,-48 -74,-83c-37,-46 -60,-65 -87,-72c-20,-5 -54,-26 -76,-46l-39,-35l41,30c34,27 102,56 110,48c1,-1 -23,-31 -53,-67c-136,-159 -141,-163 -124,-104c6,19 10,22 10,10c2,-31 8,-15 16,38c6,47 6,49 -12,36c-10,-7 48,53 129,134c127,127 150,147 170,141c13,-4 29,-14 36,-23c9,-12 15,-13 24,-4c23,23 31,12 26,-33c-3,-25 -4,-45 -2,-45c11,0 34,64 34,95c0,32 3,36 23,33c20,-3 22,-9 25,-80zm1159,0c-2,-13 -4,-5 -4,17c-1,22 1,32 4,23c2,-10 2,-28 0,-40zm-1120,-25c-3,-10 -5,-4 -5,12c0,17 2,24 5,18c2,-7 2,-21 0,-30zm-197,-65c0,-63 -12,-75 -29,-28c-7,20 -17,30 -30,30c-28,0 -27,4 11,45c38,43 48,34 48,-47zm566,-102c14,-57 5,-67 -102,-111c-116,-48 -177,-82 -171,-99c3,-8 128,-12 455,-14c375,-2 452,0 452,11c0,25 -37,48 -152,98c-113,48 -113,49 -116,85c-2,20 1,40 6,43c6,3 131,1 278,-6c209,-9 270,-15 282,-27c18,-18 92,-284 98,-351c4,-49 19,-286 29,-460c3,-49 10,-128 15,-175c36,-325 35,-295 11,-329c-25,-34 -55,-45 -176,-60c-402,-52 -1493,-34 -1597,27c-45,26 -51,56 -39,183c25,260 41,484 47,649c6,168 8,181 51,335c27,96 52,166 63,176c20,17 211,35 512,47c43,2 48,-1 54,-22zm-76,-126c-8,-5 -19,-10 -25,-10c-5,0 -3,5 5,10c8,5 20,10 25,10c6,0 3,-5 -5,-10zm175,-30c11,-18 -19,-50 -48,-50l-29,0l24,29c24,31 42,38 53,21z"/>
   <path id="svg_3" d="m840,8930c0,-16 3,-30 8,-30c4,0 7,14 7,30c0,17 -3,30 -7,30c-5,0 -8,-13 -8,-30z"/>
   <path id="svg_4" d="m886,8939c-27,-26 -13,-36 49,-36c46,0 55,2 55,17c0,14 -8,18 -35,18c-19,0 -35,-5 -36,-11c-1,-7 -4,-3 -7,9c-7,20 -8,20 -26,3zm14,-19c0,-5 -4,-10 -10,-10c-5,0 -10,5 -10,10c0,6 5,10 10,10c6,0 10,-4 10,-10zm80,0c0,-5 -5,-10 -11,-10c-5,0 -7,5 -4,10c3,6 8,10 11,10c2,0 4,-4 4,-10z"/>
   <path id="svg_5" d="m1080,8943c0,-15 2,-16 10,-3c8,13 11,12 25,-5c15,-18 16,-18 11,-2c-3,10 -6,21 -6,23c0,2 -9,4 -20,4c-12,0 -20,-7 -20,-17z"/>
   <path id="svg_6" d="m780,8940c0,-5 5,-10 10,-10c6,0 10,5 10,10c0,6 -4,10 -10,10c-5,0 -10,-4 -10,-10z"/>
   <path id="svg_7" d="m625,8930c-7,-11 2,-30 13,-30c4,0 8,9 8,20c0,21 -11,26 -21,10z"/>
   <path id="svg_8" d="m664,8928c-3,-5 -1,-15 5,-21c9,-9 11,-8 6,6c-4,9 -3,17 3,17c6,0 16,-8 21,-17c10,-17 10,-16 11,2c0,22 -34,32 -46,13z"/>
   <path id="svg_9" d="m721,8924c0,-11 3,-14 6,-6c3,7 2,16 -1,19c-3,4 -6,-2 -5,-13z"/>
   <path id="svg_10" d="m750,8930c-11,-7 -11,-10 -2,-10c8,0 10,-5 6,-12c-4,-7 -3,-9 1,-5c7,6 17,37 12,37c-1,0 -9,-5 -17,-10z"/>
   <path id="svg_11" d="m1158,8933c7,-3 16,-2 19,1c4,3 -2,6 -13,5c-11,0 -14,-3 -6,-6z"/>
   <path id="svg_12" d="m1195,8920c-3,-5 -1,-10 4,-10c6,0 11,5 11,10c0,6 -2,10 -4,10c-3,0 -8,-4 -11,-10z"/>
   <path id="svg_13" d="m1081,8904c0,-11 3,-14 6,-6c3,7 2,16 -1,19c-3,4 -6,-2 -5,-13z"/>
   <path id="svg_14" d="m702,8845c0,-16 2,-22 5,-12c2,9 2,23 0,30c-3,6 -5,-1 -5,-18z"/>
   <path id="svg_15" d="m757,8863c-9,-9 -9,-51 1,-56c4,-3 7,10 7,29c0,19 0,34 -1,34c0,0 -4,-3 -7,-7z"/>
   <path id="svg_16" d="m891,8838c1,-20 3,-25 6,-14c4,15 7,16 14,5c7,-11 9,-11 9,-1c0,7 -7,20 -15,28c-13,14 -15,12 -14,-18z"/>
   <path id="svg_17" d="m1275,8835c0,-18 3,-31 8,-28c4,2 7,15 7,28c0,13 -3,26 -7,28c-5,3 -8,-10 -8,-28z"/>
   <path id="svg_18" d="m862,8840c0,-14 2,-19 5,-12c2,6 2,18 0,25c-3,6 -5,1 -5,-13z"/>
   <path id="svg_19" d="m1132,8840c0,-14 2,-19 5,-12c2,6 2,18 0,25c-3,6 -5,1 -5,-13z"/>
   <path id="svg_20" d="m1320,8836c0,-14 4,-27 8,-30c5,-3 6,8 4,25c-5,35 -12,38 -12,5z"/>
   <path id="svg_21" d="m671,8834c0,-11 3,-14 6,-6c3,7 2,16 -1,19c-3,4 -6,-2 -5,-13z"/>
   <path id="svg_22" d="m781,8834c0,-11 3,-14 6,-6c3,7 2,16 -1,19c-3,4 -6,-2 -5,-13z"/>
   <path id="svg_23" d="m800,8833c0,-7 5,-13 10,-13c6,0 10,5 10,10c0,6 5,10 11,10c6,0 8,-7 4,-17c-5,-14 -3,-15 6,-6c6,6 8,16 5,21c-9,15 -46,10 -46,-5z"/>
   <path id="svg_24" d="m931,8834c0,-11 3,-14 6,-6c3,7 2,16 -1,19c-3,4 -6,-2 -5,-13z"/>
   <path id="svg_25" d="m951,8827c0,-21 1,-21 9,-2c5,11 9,15 9,8c1,-6 11,-15 22,-18c17,-6 19,-9 8,-17c-12,-8 -11,-9 1,-5c8,2 16,15 18,29c3,24 0,26 -32,26c-30,0 -36,-3 -35,-21z"/>
   <path id="svg_26" d="m1051,8834c0,-11 3,-14 6,-6c3,7 2,16 -1,19c-3,4 -6,-2 -5,-13z"/>
   <path id="svg_27" d="m1070,8841c0,-5 7,-12 16,-15c14,-5 15,-4 4,9c-14,17 -20,19 -20,6z"/>
   <path id="svg_28" d="m1160,8833c0,-15 2,-16 10,-3c8,13 11,12 23,-3c11,-16 16,-17 40,-6c31,14 36,30 7,22c-11,-3 -20,-9 -20,-14c0,-5 -4,-9 -10,-9c-5,0 -10,7 -10,15c0,8 -9,15 -20,15c-12,0 -20,-7 -20,-17z"/>
   <path id="svg_29" d="m960,8752c0,-21 2,-24 10,-12c6,10 10,11 10,3c0,-7 7,-13 15,-13c8,0 15,6 15,13c0,9 3,8 9,-2c7,-11 9,-11 14,0c5,12 7,11 16,-1c5,-8 13,-11 18,-7c12,13 -19,28 -49,24c-16,-2 -28,0 -28,4c0,4 -7,9 -15,13c-11,4 -15,-2 -15,-22z"/>
   <path id="svg_30" d="m1232,8755c0,-16 2,-22 5,-12c2,9 2,23 0,30c-3,6 -5,-1 -5,-18z"/>
   <path id="svg_31" d="m930,8750c0,-11 5,-20 10,-20c6,0 10,9 10,20c0,11 -4,20 -10,20c-5,0 -10,-9 -10,-20z"/>
   <path id="svg_32" d="m1200,8759c0,-5 5,-7 10,-4c6,3 10,8 10,11c0,2 -4,4 -10,4c-5,0 -10,-5 -10,-11z"/>
   <path id="svg_33" d="m734,8749c-8,-14 14,-19 25,-6c8,10 7,14 -5,14c-8,0 -17,-4 -20,-8z"/>
   <path id="svg_34" d="m807,8743c3,-6 11,-9 19,-6c20,7 17,19 -5,19c-11,0 -17,-6 -14,-13z"/>
   <path id="svg_35" d="m851,8742c0,-10 3,-12 6,-4c8,21 33,13 33,-10c1,-22 1,-23 15,-4c21,28 19,31 -20,33c-28,2 -35,-1 -34,-15z"/>
   <path id="svg_36" d="m1086,8745c-3,-9 -6,-22 -5,-28c0,-7 5,-1 10,12c5,13 8,26 5,28c-2,2 -6,-3 -10,-12z"/>
   <path id="svg_37" d="m1121,8744c0,-11 3,-14 6,-6c3,7 2,16 -1,19c-3,4 -6,-2 -5,-13z"/>
   <path id="svg_38" d="m1140,8751c0,-5 7,-12 16,-15c14,-5 15,-4 4,9c-14,17 -20,19 -20,6z"/>
   <path id="svg_39" d="m1251,8744c0,-11 3,-14 6,-6c3,7 2,16 -1,19c-3,4 -6,-2 -5,-13z"/>
   <path id="svg_40" d="m1275,8750c-3,-5 -3,-14 0,-20c7,-12 26,-14 24,-2c-4,21 2,24 14,7c11,-14 16,-15 22,-5c5,9 4,11 -3,6c-7,-4 -12,-1 -12,8c0,18 -35,22 -45,6z"/>
   <path id="svg_41" d="m1351,8742c0,-10 3,-12 6,-4c11,28 38,11 34,-23c-1,-5 6,-1 14,9c21,28 19,31 -20,33c-28,2 -35,-1 -34,-15z"/>
   <path id="svg_42" d="m1507,8744c5,-14 35,-12 40,2c2,6 -8,10 -21,10c-14,0 -22,-5 -19,-12z"/>
   <path id="svg_43" d="m1561,8744c0,-11 3,-14 6,-6c3,7 2,16 -1,19c-3,4 -6,-2 -5,-13z"/>
   <path id="svg_44" d="m1581,8744c0,-11 3,-14 6,-6c3,7 2,16 -1,19c-3,4 -6,-2 -5,-13z"/>
   <path id="svg_45" d="m1601,8744c0,-11 3,-14 6,-6c3,7 2,16 -1,19c-3,4 -6,-2 -5,-13z"/>
   <path id="svg_46" d="m780,8740c0,-5 5,-10 11,-10c5,0 7,5 4,10c-3,6 -8,10 -11,10c-2,0 -4,-4 -4,-10z"/>
   <path id="svg_47" d="m670,8685c0,-11 5,-27 10,-35c8,-12 10,-12 10,5c0,11 -5,27 -10,35c-8,12 -10,12 -10,-5z"/>
   <path id="svg_48" d="m628,8573c3,-21 7,-30 12,-23c8,13 2,47 -9,54c-4,3 -5,-11 -3,-31z"/>
   <path id="svg_49" d="m480,8475l0,-25l125,0l125,0l0,25l0,25l-125,0l-125,0l0,-25z"/>
   <path id="svg_50" d="m810,8475l0,-25l335,0l335,0l0,25l0,25l-335,0l-335,0l0,-25z"/>
   <path id="svg_51" d="m1560,8475l0,-25l110,0l110,0l0,25l0,25l-110,0l-110,0l0,-25z"/>
   <path id="svg_52" d="m619,8108c-180,-7 -276,-19 -307,-38c-14,-9 -11,-10 13,-5c193,42 1398,45 1574,4c24,-5 46,-8 48,-5c10,10 -77,27 -189,36c-140,13 -890,18 -1139,8z"/>
   <path id="svg_53" d="m346,7728c2,-18 8,-61 14,-95c8,-54 4,-86 -26,-240c-56,-291 -63,-278 147,-295c190,-15 939,-15 1154,0c264,19 285,22 307,44c23,23 23,19 -24,263c-30,160 -31,182 -11,320c4,26 2,37 -4,30c-17,-17 -33,-175 -23,-225c6,-25 19,-94 30,-155c11,-60 24,-127 29,-149c13,-54 0,-84 -41,-90c-174,-29 -928,-44 -1288,-27c-135,7 -253,14 -263,17c-37,11 -37,35 1,237c33,181 37,194 49,166c6,-16 19,-29 28,-29c22,0 18,-14 -7,-25c-25,-11 -32,-55 -16,-87c10,-21 48,-24 67,-5c11,10 13,9 9,-3c-3,-8 -19,-16 -36,-18c-37,-4 -52,-38 -33,-78c9,-20 18,-24 54,-24c30,0 49,6 60,18c28,31 19,82 -15,82c-15,0 -18,4 -12,23c9,31 13,33 27,13c19,-25 58,-17 77,17c13,24 13,30 0,55c-12,20 -14,36 -7,65c10,42 27,50 27,12c0,-17 7,-29 23,-35c16,-6 17,-9 5,-9c-29,-1 -33,-38 -12,-108c5,-19 2,-23 -14,-23c-23,0 -33,-29 -23,-68c6,-21 14,-28 39,-30c18,-2 32,1 32,8c0,6 -10,8 -25,4c-16,-4 -25,-2 -25,6c0,8 11,11 31,8c20,-3 33,0 36,9c9,22 -6,63 -23,63c-23,0 -11,24 14,28c26,4 37,38 29,86c-3,18 -2,48 3,67l8,34l7,-32c5,-23 13,-33 26,-33c11,0 19,-7 19,-15c0,-8 -6,-15 -14,-15c-19,0 -28,-43 -16,-76c13,-32 7,-54 -15,-54c-10,0 -15,-10 -15,-34c0,-49 9,-66 35,-66c48,0 73,65 36,97c-22,19 -19,33 8,33c30,0 45,42 31,85c-16,49 2,165 26,165c16,0 19,-16 4,-25c-6,-4 -8,-51 -5,-126c3,-77 1,-119 -5,-119c-18,0 -30,-48 -20,-75c7,-19 17,-25 40,-25c23,0 33,6 42,25c13,30 -3,75 -27,75c-8,0 -15,7 -15,15c0,9 9,15 23,15c13,0 28,5 35,12c15,15 16,85 1,90c-9,3 -9,10 1,27c7,15 10,39 5,67c-6,42 -5,44 19,44c29,0 32,-7 11,-34c-15,-20 -11,-60 7,-83c5,-7 6,-22 2,-35c-4,-13 -7,-49 -5,-80c2,-46 0,-58 -12,-58c-20,0 -26,-20 -18,-61c8,-40 31,-48 66,-25c34,22 32,86 -2,86c-25,0 -11,45 15,48c12,2 27,12 33,23c13,25 2,79 -17,79c-18,0 -18,5 2,36c14,20 15,32 6,67c-6,23 -13,51 -16,62c-2,12 -4,6 -5,-12c0,-18 -6,-33 -12,-33c-8,0 -10,13 -6,38c10,61 0,82 -39,82c-38,0 -56,-23 -48,-61l5,-24l-12,25c-6,14 -15,35 -20,48c-11,29 -55,29 -86,0c-20,-18 -23,-19 -23,-5c0,26 -68,23 -91,-5c-16,-17 -19,-18 -19,-5c0,13 -9,17 -39,17c-43,0 -44,-2 -56,-76c-5,-34 -11,-43 -31,-47c-30,-5 -33,18 -4,33c46,24 32,100 -18,100c-35,0 -52,-17 -52,-51c0,-37 -17,-79 -31,-79c-7,0 -20,-7 -30,-16c-16,-15 -18,-12 -24,43c-10,96 -15,123 -25,123c-5,0 -7,-15 -4,-32zm512,-10c-7,-20 -48,-23 -48,-4c0,11 9,16 26,16c16,0 24,-5 22,-12zm110,-18c-9,-14 -16,-16 -30,-9c-23,12 -23,26 0,31c31,7 42,-2 30,-22zm-440,8c-7,-20 -48,-23 -48,-4c0,11 9,16 26,16c16,0 24,-5 22,-12zm110,0c-7,-20 -48,-23 -48,-4c0,11 9,16 26,16c16,0 24,-5 22,-12zm112,3c0,-11 -49,-21 -55,-11c-2,4 -2,10 2,14c10,9 53,7 53,-3zm-69,-82l-10,-24l0,26c-1,14 2,29 6,33c12,12 14,-9 4,-35zm69,31c0,-5 -12,-10 -27,-9l-28,1l25,8c14,4 26,8 28,9c1,1 2,-3 2,-9zm103,3c-7,-2 -21,-2 -30,0c-10,3 -4,5 12,5c17,0 24,-2 18,-5zm37,-9c0,-8 -5,-12 -10,-9c-6,4 -8,11 -5,16c9,14 15,11 15,-7zm85,6c-3,-5 -18,-10 -33,-9c-24,0 -25,1 -7,9c28,12 47,12 40,0zm-452,-7c-7,-2 -21,-2 -30,0c-10,3 -4,5 12,5c17,0 24,-2 18,-5zm110,0c-7,-2 -21,-2 -30,0c-10,3 -4,5 12,5c17,0 24,-2 18,-5zm137,-13c0,-11 -7,-20 -15,-20c-7,0 -19,-8 -24,-17c-9,-16 -10,-15 -11,5c0,16 7,26 20,29c11,3 20,9 20,14c0,5 2,9 5,9c3,0 5,-9 5,-20zm-110,1c0,-4 -12,-21 -26,-36c-26,-28 -26,-28 -19,-4c4,13 15,29 24,36c19,15 21,15 21,4zm127,-13c-3,-8 -6,-5 -6,6c-1,11 2,17 5,13c3,-3 4,-12 1,-19zm-315,-10c-7,-7 -12,-8 -12,-2c0,14 12,26 19,19c2,-3 -1,-11 -7,-17zm131,-9c-5,-18 -7,-19 -21,-6c-16,17 -8,39 12,31c8,-3 12,-14 9,-25zm104,9c-3,-8 -6,-5 -6,6c-1,11 2,17 5,13c3,-3 4,-12 1,-19zm305,-18c7,0 6,-5 -1,-14c-11,-14 -51,-11 -51,3c0,14 14,22 28,16c7,-3 18,-5 24,-5zm-330,-10c6,0 6,-6 -2,-15c-14,-17 -20,-18 -39,-6c-17,11 -4,34 16,27c8,-3 19,-6 25,-6zm106,-2c-6,-16 -48,-18 -48,-1c0,7 11,13 26,13c15,0 24,-5 22,-12zm116,-3c-4,-8 -17,-15 -30,-15c-15,0 -24,6 -24,15c0,10 10,15 30,15c22,0 28,-4 24,-15zm-446,-7c-5,-15 -58,-24 -58,-10c0,15 12,22 38,22c14,0 22,-5 20,-12zm110,0c-7,-20 -48,-23 -48,-4c0,11 9,16 26,16c16,0 24,-5 22,-12zm-58,-52c7,-18 4,-40 -10,-78l-19,-53l0,46c-1,47 8,109 15,109c3,0 9,-11 14,-24zm284,13c-3,-5 -16,-9 -30,-9c-33,0 -24,15 10,16c14,1 23,-2 20,-7zm221,1c-3,-5 -15,-10 -26,-10c-10,0 -19,5 -19,10c0,6 12,10 26,10c14,0 23,-4 19,-10zm-435,-10c0,-5 -15,-9 -32,-9l-33,1l30,8c17,4 31,8 33,9c1,0 2,-3 2,-9zm105,0c-3,-5 -16,-10 -28,-9c-21,0 -21,1 -2,9c28,12 37,12 30,0zm218,3c-7,-2 -21,-2 -30,0c-10,3 -4,5 12,5c17,0 24,-2 18,-5zm-450,-10c-7,-2 -21,-2 -30,0c-10,3 -4,5 12,5c17,0 24,-2 18,-5zm547,-13c0,-5 -5,-10 -11,-10c-5,0 -7,5 -4,10c3,6 8,10 11,10c2,0 4,-4 4,-10zm-538,-22c-7,-7 -12,-8 -12,-2c0,14 12,26 19,19c2,-3 -1,-11 -7,-17zm101,5c-7,-2 -19,-2 -25,0c-7,3 -2,5 12,5c14,0 19,-2 13,-5zm127,-24c0,-14 -27,-22 -47,-14c-17,6 -17,7 0,20c19,14 47,10 47,-6zm218,9c-7,-20 -48,-23 -48,-4c0,11 9,16 26,16c16,0 24,-5 22,-12zm111,-14c-15,-18 -49,-18 -49,0c0,15 26,25 48,18c9,-3 10,-8 1,-18zm-219,1c0,-9 -9,-15 -25,-15c-24,0 -32,10 -18,23c12,13 43,7 43,-8zm-222,-7c-7,-20 -58,-23 -58,-4c0,11 10,16 31,16c20,0 29,-4 27,-12zm-118,-8c0,-6 -7,-13 -15,-16c-20,-8 -48,3 -40,16c8,13 55,13 55,0zm230,-30c0,-5 -12,-10 -27,-9l-28,1l25,8c14,4 26,8 28,9c1,1 2,-3 2,-9zm215,0c-3,-5 -12,-10 -20,-10c-8,0 -17,5 -20,10c-4,6 5,10 20,10c15,0 24,-4 20,-10zm120,0c-3,-5 -16,-10 -28,-9c-20,1 -20,2 3,9c14,4 26,8 28,9c2,1 0,-3 -3,-9zm-225,-10c0,-5 -9,-10 -19,-10c-11,0 -23,5 -26,10c-4,6 5,10 19,10c14,0 26,-4 26,-10zm-227,-7c-7,-2 -21,-2 -30,0c-10,3 -4,5 12,5c17,0 24,-2 18,-5zm-120,-10c-7,-2 -21,-2 -30,0c-10,3 -4,5 12,5c17,0 24,-2 18,-5zm207,-48c0,-9 -9,-15 -25,-15c-16,0 -25,6 -25,15c0,9 9,15 25,15c16,0 25,-6 25,-15zm-150,-10c-8,-9 -30,-15 -57,-15c-39,0 -44,2 -33,15c8,9 30,15 57,15c39,0 44,-2 33,-15zm264,0c-4,-8 -17,-15 -30,-15c-15,0 -24,6 -24,15c0,10 10,15 30,15c22,0 28,-4 24,-15zm106,0c-7,-8 -21,-15 -31,-15c-11,0 -19,7 -19,15c0,10 10,15 31,15c27,0 30,-2 19,-15zm110,-10c-7,-8 -21,-15 -31,-15c-11,0 -19,7 -19,15c0,10 10,15 31,15c27,0 30,-2 19,-15zm-484,-40c-22,-17 -76,-20 -76,-6c0,6 19,12 43,14c23,2 44,4 47,5c3,1 -4,-5 -14,-13zm269,5c-3,-5 -16,-10 -28,-9c-20,1 -20,2 3,9c14,4 26,8 28,9c2,1 0,-3 -3,-9zm101,-3c4,-4 -2,-7 -14,-7c-12,0 -22,4 -22,9c0,10 26,9 36,-2zm107,-14c-7,-2 -19,-2 -25,0c-7,3 -2,5 12,5c14,0 19,-2 13,-5z"/>
   <path id="svg_54" d="m1370,7708c3,-80 1,-88 -21,-88c-18,0 -20,4 -14,23c4,12 8,38 9,57c1,34 0,35 -43,38l-44,3l6,-60c6,-57 5,-61 -14,-61c-18,0 -21,5 -19,43c4,76 4,77 -40,77c-39,0 -40,-1 -40,-35c0,-19 5,-46 12,-60c14,-30 7,-39 -22,-30c-19,6 -22,12 -17,46c8,64 0,79 -43,79c-30,0 -40,-5 -45,-20c-10,-31 4,-77 25,-83c15,-4 18,-12 15,-48c-2,-24 -4,-86 -4,-136c-1,-75 -4,-93 -16,-93c-18,0 -29,-41 -21,-75c5,-19 13,-25 34,-25c38,0 52,17 52,62c0,32 -3,38 -21,38c-34,0 -19,34 16,38c17,2 36,8 43,14c9,8 12,3 12,-21c0,-20 -5,-31 -14,-31c-18,0 -25,-47 -12,-78c8,-18 16,-22 40,-20c23,2 31,9 38,33c9,36 2,65 -18,65c-10,0 -14,12 -14,43c0,23 -3,87 -7,141c-5,78 -4,98 6,91c7,-4 11,-16 8,-26c-3,-10 1,-23 9,-30c17,-14 18,-54 3,-98c-14,-40 9,-81 46,-81c18,0 25,-5 25,-20c0,-13 -7,-20 -20,-20c-16,0 -20,-7 -20,-38c0,-45 14,-62 51,-62c42,0 56,71 20,102c-17,14 -19,28 -16,96c4,108 24,145 25,46c0,-74 15,-104 53,-104c9,0 17,-7 17,-15c0,-8 -9,-15 -20,-15c-16,0 -20,-7 -20,-38c0,-21 5,-43 12,-50c17,-17 65,-15 72,4c12,32 6,73 -12,83c-16,9 -19,21 -16,85c2,56 7,80 20,93c16,16 16,14 10,-49c-9,-78 2,-105 41,-111c27,-4 27,-4 6,-12c-18,-6 -23,-15 -23,-44c0,-44 14,-61 51,-61c22,0 29,6 34,30c8,37 -2,70 -22,70c-12,0 -14,9 -8,51c5,38 3,54 -8,67c-14,16 -14,19 9,41l24,23l1,-33c1,-19 0,-44 -1,-56c-2,-32 18,-63 40,-63c23,0 27,-18 5,-26c-20,-8 -20,-68 1,-88c34,-35 74,-9 74,49c0,18 -7,28 -26,35c-20,8 -24,14 -18,28c4,9 9,36 12,59c3,34 1,42 -15,46c-16,4 -16,5 0,6c9,0 17,9 17,18c0,13 3,14 12,5c6,-6 11,-33 10,-59c0,-61 11,-83 47,-83c34,0 44,-9 30,-26c-21,-26 -17,-64 9,-84c50,-40 112,-17 112,40c0,34 -23,50 -62,43c-23,-4 -29,-1 -37,20c-5,14 -9,39 -9,56c1,16 -5,37 -11,45c-11,13 -10,18 3,31c9,9 16,24 17,33c1,9 7,-1 14,-23c7,-22 11,-54 8,-71c-8,-48 12,-76 50,-72c31,3 32,5 32,48c0,43 -1,45 -31,48c-20,2 -34,10 -36,20c-4,14 2,17 31,17c36,0 36,0 36,45c0,37 -4,45 -20,48c-31,6 -36,16 -43,73c-7,53 -8,54 -41,57c-52,5 -71,-48 -31,-88c27,-27 25,-40 -5,-40c-27,0 -33,13 -37,85c-3,40 -3,40 -43,40c-36,0 -40,-3 -43,-28c-2,-16 4,-39 12,-52c21,-32 20,-45 -3,-45c-24,0 -31,19 -31,81l0,50l-42,-3c-42,-3 -43,-4 -43,-38c0,-34 1,-35 34,-32c23,3 31,0 26,-8c-4,-6 -16,-8 -28,-4c-22,7 -22,6 -3,-15c19,-21 19,-21 -7,-21c-20,0 -27,5 -27,20c0,11 -5,20 -11,20c-6,0 -9,-7 -6,-15c4,-8 2,-17 -3,-20c-13,-8 -19,18 -8,38c5,10 8,32 6,50c-3,30 -6,32 -46,35l-44,3l2,-43zm78,14c3,-10 -4,-13 -24,-10c-15,2 -29,9 -32,16c-3,10 4,13 24,10c15,-2 29,-9 32,-16zm-228,-12c0,-14 -39,-18 -50,-6c-5,7 -8,15 -5,18c8,7 55,-3 55,-12zm114,4c5,-12 0,-15 -21,-12c-14,2 -28,9 -31,16c-6,18 45,15 52,-4zm224,-2c3,-10 -4,-13 -24,-10c-15,2 -29,9 -32,16c-3,10 4,13 24,10c15,-2 29,-9 32,-16zm220,0c3,-10 -4,-13 -24,-10c-15,2 -29,9 -32,16c-3,10 4,13 24,10c15,-2 29,-9 32,-16zm-678,-2c0,-5 -3,-10 -7,-11c-5,0 -16,-2 -25,-4c-10,-2 -18,3 -18,11c0,8 10,14 25,14c14,0 25,-4 25,-10zm568,-2c-6,-17 -35,-18 -49,-2c-9,12 -6,14 21,14c20,0 30,-4 28,-12zm-228,-38c0,-5 -9,-10 -19,-10c-11,0 -23,5 -26,10c-4,6 5,10 19,10c14,0 26,-4 26,-10zm-335,-10c-3,-5 -18,-10 -33,-9l-27,1l25,8c35,11 42,11 35,0zm105,-6c0,-2 -9,-4 -20,-4c-11,0 -20,4 -20,9c0,5 9,7 20,4c11,-3 20,-7 20,-9zm116,9c-11,-11 -35,-12 -42,-2c-3,5 7,9 22,9c15,0 24,-3 20,-7zm320,-11c-10,-2 -22,0 -28,6c-6,6 0,7 19,4c21,-5 23,-7 9,-10zm124,8c0,-5 -9,-10 -19,-10c-11,0 -23,5 -26,10c-4,6 5,10 19,10c14,0 26,-4 26,-10zm-360,-25c0,-8 -4,-15 -10,-15c-5,0 -10,7 -10,15c0,8 5,15 10,15c6,0 10,-7 10,-15zm17,-7c-3,-8 -6,-5 -6,6c-1,11 2,17 5,13c3,-3 4,-12 1,-19zm-317,2c0,-5 -4,-10 -10,-10c-5,0 -10,5 -10,10c0,6 5,10 10,10c6,0 10,-4 10,-10zm204,-16c4,-15 5,-29 1,-32c-3,-3 -5,1 -5,8c0,7 -7,22 -17,32c-14,16 -14,18 -1,18c9,0 19,-12 22,-26zm246,14c0,-7 -5,-20 -10,-28c-8,-12 -10,-9 -10,13c0,15 5,27 10,27c6,0 10,-6 10,-12zm106,-10c-3,-13 -6,-34 -7,-48c0,-18 -4,-13 -15,20c-7,25 -14,46 -14,48c0,1 10,2 21,2c17,0 20,-4 15,-22zm118,13c4,-5 2,-20 -3,-33c-9,-24 -10,-24 -26,27c-5,16 20,21 29,6zm-490,-37c5,-12 0,-15 -21,-12c-14,2 -28,9 -31,16c-6,18 45,15 52,-4zm100,10c26,-10 18,-24 -14,-24c-20,0 -30,5 -30,15c0,16 17,19 44,9zm124,-12c3,-10 -4,-13 -24,-10c-15,2 -29,9 -32,16c-3,10 4,13 24,10c15,-2 29,-9 32,-16zm-378,-7c-7,-8 -21,-15 -31,-15c-11,0 -19,7 -19,15c0,10 10,15 31,15c27,0 30,-2 19,-15zm490,-1c0,-11 -8,-14 -27,-12c-39,4 -42,28 -4,28c21,0 31,-5 31,-16zm108,-2c3,-10 -4,-13 -24,-10c-15,2 -29,9 -32,16c-3,10 4,13 24,10c15,-2 29,-9 32,-16zm110,0c3,-10 -4,-13 -24,-10c-15,2 -29,9 -32,16c-3,10 4,13 24,10c15,-2 29,-9 32,-16zm-558,-43c0,-14 -36,-11 -49,4c-8,11 -5,13 19,9c17,-2 30,-8 30,-13zm214,0c-8,-13 -30,-11 -43,4c-8,11 -5,13 19,9c16,-2 27,-8 24,-13zm-104,1c0,-5 -11,-10 -25,-10c-14,0 -25,5 -25,10c0,6 11,10 25,10c14,0 25,-4 25,-10zm-267,-7c-7,-2 -21,-2 -30,0c-10,3 -4,5 12,5c17,0 24,-2 18,-5zm37,-17c0,-19 -4,-22 -25,-18l-24,4l22,19c28,23 27,23 27,-5zm445,14c-3,-5 -12,-10 -20,-10c-8,0 -17,5 -20,10c-4,6 5,10 20,10c15,0 24,-4 20,-10zm115,0c0,-5 -9,-10 -19,-10c-11,0 -23,5 -26,10c-4,6 5,10 19,10c14,0 26,-4 26,-10zm110,0c0,-5 -9,-10 -19,-10c-11,0 -23,5 -26,10c-4,6 5,10 19,10c14,0 26,-4 26,-10zm-270,-15c7,-9 8,-15 2,-15c-5,0 -12,7 -16,15c-3,8 -4,15 -2,15c2,0 9,-7 16,-15zm130,-17c0,-5 -7,-8 -15,-8c-8,0 -15,2 -15,4c0,2 -3,12 -6,21c-6,15 -4,15 15,4c11,-8 21,-17 21,-21zm-430,12c0,-5 -6,-10 -14,-10c-8,0 -18,5 -21,10c-3,6 3,10 14,10c12,0 21,-4 21,-10zm103,3c-7,-2 -19,-2 -25,0c-7,3 -2,5 12,5c14,0 19,-2 13,-5zm107,-2c0,-6 -4,-13 -10,-16c-5,-3 -10,1 -10,9c0,9 5,16 10,16c6,0 10,-4 10,-9zm-337,-36c-3,-13 -53,-20 -53,-7c0,15 13,23 35,20c11,-2 19,-7 18,-13zm141,-1c5,-12 0,-15 -21,-12c-14,2 -28,9 -31,16c-6,18 45,15 52,-4zm116,1c0,-8 -8,-15 -19,-15c-10,0 -24,7 -31,15c-11,13 -8,15 19,15c21,0 31,-5 31,-15zm220,-1c0,-11 -8,-14 -27,-12c-39,4 -42,28 -4,28c21,0 31,-5 31,-16zm-112,-12c3,-10 -4,-13 -24,-10c-15,2 -29,9 -32,16c-3,10 4,13 24,10c15,-2 29,-9 32,-16zm222,2c0,-11 -8,-14 -27,-12c-39,4 -42,28 -4,28c21,0 31,-5 31,-16zm118,-12c3,-10 -4,-13 -24,-10c-15,2 -29,9 -32,16c-3,10 4,13 24,10c15,-2 29,-9 32,-16zm-472,-30c-10,-2 -22,0 -28,6c-6,6 0,7 19,4c21,-5 23,-7 9,-10zm-231,-2c-3,-5 -15,-10 -26,-10c-10,0 -19,5 -19,10c0,6 12,10 26,10c14,0 23,-4 19,-10zm135,0c0,-5 -9,-10 -19,-10c-11,0 -23,5 -26,10c-4,6 5,10 19,10c14,0 26,-4 26,-10zm330,0c0,-5 -9,-10 -19,-10c-11,0 -23,5 -26,10c-4,6 5,10 19,10c14,0 26,-4 26,-10zm-117,-7c-7,-2 -21,-2 -30,0c-10,3 -4,5 12,5c17,0 24,-2 18,-5zm232,-3c-3,-5 -15,-10 -25,-10c-10,0 -22,5 -25,10c-4,6 7,10 25,10c18,0 29,-4 25,-10zm115,-10c0,-5 -9,-10 -19,-10c-11,0 -23,5 -26,10c-4,6 5,10 19,10c14,0 26,-4 26,-10zm-412,-58c3,-10 -4,-13 -24,-10c-15,2 -29,9 -32,16c-3,10 4,13 24,10c15,-2 29,-9 32,-16zm102,-8c0,-16 -18,-18 -40,-4c-13,9 -13,11 -1,19c18,12 41,3 41,-15zm118,8c3,-10 -4,-13 -24,-10c-15,2 -29,9 -32,16c-3,10 4,13 24,10c15,-2 29,-9 32,-16zm-554,-13c-3,-5 -17,-9 -32,-9c-25,1 -26,2 -9,15c20,14 51,10 41,-6zm116,6c0,-9 -9,-15 -25,-15c-16,0 -25,6 -25,15c0,9 9,15 25,15c16,0 25,-6 25,-15zm104,0c4,-11 -1,-15 -19,-15c-25,0 -39,12 -28,24c12,11 41,6 47,-9zm524,-2c6,-19 -72,-17 -89,3c-11,13 -7,15 36,12c27,-2 50,-8 53,-15zm-423,-43c-3,-5 -12,-10 -20,-10c-8,0 -17,5 -20,10c-4,6 5,10 20,10c15,0 24,-4 20,-10zm110,0c4,-6 -5,-10 -19,-10c-14,0 -26,5 -26,10c0,6 9,10 19,10c11,0 23,-4 26,-10zm108,3c-7,-2 -21,-2 -30,0c-10,3 -4,5 12,5c17,0 24,-2 18,-5zm196,-9c2,-2 -14,-4 -37,-4c-22,0 -43,4 -46,9c-6,8 73,3 83,-5zm-734,-4c-3,-5 -15,-10 -26,-10c-11,0 -17,5 -14,10c3,6 15,10 26,10c11,0 17,-4 14,-10zm105,0c0,-5 -9,-10 -20,-10c-11,0 -20,5 -20,10c0,6 9,10 20,10c11,0 20,-4 20,-10zm110,0c0,-5 -11,-10 -25,-10c-14,0 -25,5 -25,10c0,6 11,10 25,10c14,0 25,-4 25,-10z"/>
   <path id="svg_55" d="m550,7224c-6,-14 -10,-40 -10,-58c0,-33 1,-33 53,-40c119,-14 593,-18 841,-7c142,7 265,15 272,18c17,6 18,53 2,88c-12,26 -14,26 -77,20c-117,-12 -934,-16 -945,-5c-5,5 -36,10 -68,10c-54,0 -59,-2 -68,-26zm125,6c7,-12 857,-12 950,-1c56,7 74,2 75,-20c0,-4 -24,-9 -52,-13c-95,-11 -729,-19 -910,-11c-159,6 -178,9 -178,24c0,10 3,21 7,24c10,11 101,8 108,-3zm1025,-69c0,-19 -187,-26 -652,-26c-349,0 -480,3 -489,12c-8,8 79,10 362,7c206,-3 448,-1 539,4c236,13 240,13 240,3z"/>
  </g>
  <g stroke="null">
   <g stroke="null" fill="#005cb3" transform="translate(0 306) scale(0.1 -0.1)">
    <path stroke="null" d="m2961.70045,997.68232c-15.49608,-4.37933 -25.26534,-11.11675 -30.65528,-21.22289c-4.04245,-7.41117 -3.36871,-10.44301 4.04245,-25.93908c5.05307,-9.76927 9.76927,-23.58099 11.11675,-30.65528l2.02123,-13.13798l-11.11675,3.03184c-6.06368,1.34748 -29.3078,2.69497 -51.5413,2.3581c-54.91001,0 -69.0586,-7.74804 -69.0586,-36.38209c0,-16.16982 6.40055,-28.63405 15.83295,-30.99215c4.37933,-1.34748 17.5173,0.33687 29.64467,3.36871c39.07706,9.76927 67.37425,5.72681 87.58652,-12.12736c14.48546,-12.46424 14.82233,-18.86479 1.34748,-31.6659c-12.80111,-12.12736 -45.81449,-60.97369 -58.27872,-85.56529c-8.08491,-16.16982 -12.46424,-20.54915 -34.69774,-33.68712c-13.81172,-8.42178 -30.99215,-21.55976 -38.06645,-29.3078c-15.49608,-16.50669 -41.09829,-68.38486 -48.50946,-97.35579c-6.40055,-24.5916 -6.73742,-70.06922 -1.68436,-114.53622c3.03184,-25.60221 3.03184,-34.02399 -0.67374,-42.78265c-6.40055,-14.82233 -5.38994,-84.55468 1.34748,-115.20996c2.69497,-12.80111 12.46424,-40.08768 21.22289,-60.63682c15.15921,-35.03461 18.19105,-39.07706 51.5413,-73.43793c19.53853,-19.8754 54.57314,-50.86756 77.81725,-68.72173c23.24412,-17.85418 53.56253,-44.13013 67.71112,-58.61559c41.09829,-41.43516 85.90216,-58.27872 131.71665,-50.19381c53.56253,9.76927 76.46977,29.98154 103.0826,90.28149c6.06368,13.47485 19.20166,37.72958 29.64467,53.8994c40.08768,61.64744 53.22565,106.11444 53.22565,177.53114c0,25.93908 -1.34748,56.59437 -2.69497,68.04799c-2.69497,18.19105 -2.02123,23.24412 4.7162,38.74019c6.73742,15.49608 7.41117,21.55976 5.72681,44.80387c-1.01061,14.82233 -3.70558,32.00277 -6.06368,38.06645c-2.02123,6.06368 -2.69497,14.82233 -1.68436,19.8754c2.3581,8.42178 3.03184,8.75865 22.57037,6.40055c18.52792,-1.68436 20.88602,-1.34748 28.63405,6.40055c8.75865,8.75865 10.77988,24.25473 4.7162,35.70835c-2.69497,5.05307 -2.02123,8.75865 4.04245,16.50669c7.74804,10.44301 10.10614,29.3078 5.05307,42.44578c-2.3581,6.40055 -0.33687,7.41117 18.52792,12.80111c22.90724,6.40055 41.43516,18.19105 44.80387,28.97093c1.34748,3.70558 0.33687,15.49608 -1.68436,25.93908c-5.72681,26.61283 -21.55976,43.11952 -39.07706,40.42455c-6.73742,-1.34748 -25.60221,-11.11675 -42.44578,-22.2335c-33.01338,-22.57037 -38.74019,-24.92847 -59.28934,-23.24412c-20.54915,1.34748 -17.5173,7.0743 7.41117,13.13798c26.27596,6.73742 28.97093,8.42178 28.97093,17.85418c0,14.48546 -10.44301,42.1089 -17.5173,47.16197c-8.75865,6.40055 -17.18043,4.7162 -46.8251,-8.75865l-22.2335,-10.10614l-9.76927,9.09552c-5.38994,5.05307 -15.83295,13.13798 -23.24412,17.85418c-7.41117,5.05307 -14.14859,9.09552 -14.82233,9.76927c-0.67374,0.33687 3.03184,7.0743 8.08491,14.82233c13.47485,18.86479 31.6659,27.96031 53.56253,25.60221c15.49608,-1.34748 18.52792,-3.03184 34.02399,-20.54915c9.09552,-10.44301 19.53853,-18.86479 22.90724,-18.86479c10.10614,0 25.93908,18.19105 25.93908,29.64467c0,16.84356 -19.53853,41.09829 -42.44578,52.88878c-17.85418,9.09552 -23.24412,10.10614 -50.19381,10.10614c-26.27596,0 -32.67651,-1.34748 -49.1832,-9.43239c-10.44301,-5.05307 -25.93908,-15.83295 -34.69774,-23.58099l-15.49608,-14.82233l2.02123,12.12736c1.34748,6.73742 5.05307,21.55976 8.42178,33.01338c7.0743,25.26534 4.04245,32.00277 -18.52792,37.72958c-36.04522,9.09552 -49.1832,1.68436 -55.92062,-30.65528c-6.40055,-32.00277 -7.74804,-33.01338 -18.52792,-14.14859c-5.38994,9.09552 -13.81172,23.24412 -18.86479,31.6659c-5.05307,8.42178 -15.49608,35.70835 -22.90724,60.63682c-7.74804,25.60221 -16.16982,47.16197 -19.53853,49.85694c-6.73742,4.7162 -24.5916,4.7162 -41.09829,0zm46.8251,-51.5413c6.40055,-22.2335 14.48546,-44.80387 17.5173,-50.53068c22.57037,-42.44578 37.05584,-68.04799 41.09829,-70.74296c6.73742,-5.05307 1.68436,-56.59437 -6.40055,-65.68989c-8.75865,-9.76927 -12.80111,-8.42178 -11.11675,4.04245c2.02123,13.47485 -5.05307,48.84633 -12.12736,62.99492c-8.42178,16.16982 -16.16982,18.52792 -33.68712,10.77988c-12.80111,-5.38994 -14.82233,-5.72681 -13.13798,-1.34748c1.68436,4.04245 1.01061,4.7162 -2.02123,2.69497c-3.36871,-2.02123 -3.70558,-0.67374 -2.02123,5.05307c2.02123,6.40055 1.68436,7.0743 -4.37933,3.70558c-3.70558,-2.02123 -7.41117,-5.05307 -8.08491,-7.0743c-0.33687,-1.68436 -7.41117,1.68436 -15.15921,8.08491c-19.20166,15.15921 -39.41393,20.21227 -69.39547,17.85418c-13.47485,-1.01061 -26.61283,-2.69497 -29.98154,-4.04245c-3.70558,-1.68436 -6.06368,0 -7.74804,5.38994l-2.3581,7.41117l-4.7162,-8.08491c-4.37933,-8.08491 -4.37933,-8.08491 -4.7162,3.36871c0,9.76927 -0.67374,10.77988 -5.05307,7.0743c-4.37933,-3.36871 -5.05307,-3.03184 -5.05307,3.03184c0,12.46424 14.82233,18.52792 48.84633,19.8754c25.93908,1.34748 35.37148,0 53.56253,-6.06368c21.89663,-7.0743 22.90724,-7.0743 35.03461,-1.34748c10.44301,4.7162 11.45362,6.06368 6.06368,8.08491c-5.72681,2.02123 -5.38994,2.69497 3.36871,9.76927c5.38994,4.04245 7.41117,7.0743 4.7162,6.06368c-2.69497,-0.67374 -8.75865,-2.69497 -12.80111,-4.04245c-7.0743,-2.02123 -7.74804,-1.68436 -4.37933,4.37933c5.05307,9.43239 4.7162,10.77988 -2.02123,10.77988c-4.37933,0 -4.7162,1.01061 -1.68436,4.04245c5.38994,5.38994 5.05307,9.43239 0,9.43239c-2.3581,0 -7.74804,6.40055 -12.12736,14.14859c-6.73742,12.80111 -7.0743,14.48546 -2.3581,19.20166c7.74804,7.74804 25.26534,13.47485 38.40332,12.80111l11.45362,-0.67374l12.46424,-40.42455zm128.34794,-58.95247l11.79049,-3.36871l-7.41117,-29.3078c-4.37933,-16.50669 -7.74804,-33.01338 -7.74804,-37.05584c-0.33687,-4.04245 -3.70558,-9.76927 -7.74804,-12.46424c-4.04245,-3.03184 -6.40055,-6.40055 -5.05307,-7.41117c1.34748,-1.34748 0,-5.38994 -3.36871,-8.75865c-5.05307,-5.72681 -5.05307,-6.06368 0.33687,-6.06368c4.7162,0 4.7162,-1.01061 1.34748,-6.73742c-5.38994,-8.75865 -2.02123,-11.45362 9.76927,-7.74804c6.40055,2.3581 12.12736,8.42178 17.85418,19.8754c11.11675,21.55976 34.69774,45.14075 55.58375,55.24688c25.26534,12.12736 64.00553,11.79049 88.26026,-1.01061c17.5173,-9.09552 34.69774,-28.97093 34.69774,-40.08768c0,-3.03184 -2.3581,-8.08491 -5.72681,-11.11675c-5.05307,-5.38994 -5.72681,-5.05307 -9.43239,1.34748c-2.02123,4.04245 -4.7162,6.40055 -5.72681,5.38994c-1.01061,-1.34748 -3.03184,0.67374 -4.04245,4.04245c-3.36871,10.10614 -24.5916,22.2335 -41.77203,23.91786c-26.61283,2.3581 -41.09829,-3.70558 -61.64744,-25.60221c-24.5916,-26.61283 -28.63405,-34.02399 -20.88602,-36.38209c15.15921,-5.05307 29.64467,-14.48546 45.14075,-29.64467l16.84356,-16.50669l25.93908,12.12736c14.14859,6.73742 28.97093,12.46424 32.67651,13.13798c7.0743,1.01061 12.46424,-7.74804 16.50669,-25.93908c2.02123,-9.09552 1.68436,-9.43239 -2.3581,-4.04245c-6.40055,7.74804 -10.44301,7.41117 -8.08491,-1.01061c1.68436,-7.0743 -2.3581,-9.43239 -6.06368,-3.36871c-3.03184,5.05307 -8.42178,4.04245 -8.42178,-1.34748c0,-6.40055 -7.41117,-8.75865 -27.62344,-8.75865l-16.84356,0l5.72681,-8.75865l5.72681,-8.75865l-21.89663,2.3581c-18.52792,2.02123 -24.5916,1.34748 -42.78265,-6.06368l-21.22289,-8.75865l-9.43239,7.41117c-14.82233,10.77988 -37.72958,9.43239 -60.29995,-3.36871c-28.29718,-15.83295 -31.6659,-22.2335 -32.33964,-61.64744l-0.33687,-33.35025l-14.14859,-16.16982c-8.08491,-8.75865 -22.2335,-21.22289 -31.6659,-27.28657c-15.83295,-10.10614 -19.53853,-10.77988 -40.08768,-10.10614c-12.80111,0.67374 -22.90724,2.3581 -22.90724,3.70558c0,1.68436 4.04245,8.08491 9.09552,14.82233c7.41117,9.76927 8.75865,14.48546 8.08491,28.97093c-1.01061,18.19105 -1.01061,23.58099 0.67374,54.23627c0.33687,13.47485 -1.01061,19.8754 -5.38994,24.5916c-5.38994,6.40055 -5.05307,7.41117 10.44301,26.9497c9.09552,11.11675 20.88602,26.61283 26.27596,34.02399c5.38994,7.74804 11.79049,14.14859 14.14859,14.14859c10.10614,0 47.83572,20.21227 52.88878,28.29718c3.70558,5.38994 6.73742,19.8754 8.42178,38.06645c3.03184,34.36087 15.83295,92.63959 21.55976,96.0083c5.05307,3.70558 18.52792,3.36871 32.67651,-0.67374zm-109.48315,-69.0586c7.0743,-17.5173 12.46424,-44.80387 10.10614,-53.56253c-4.04245,-16.84356 -20.88602,-12.46424 -28.63405,7.41117c-1.68436,5.05307 -5.05307,15.49608 -7.0743,23.58099c-2.02123,7.74804 -5.05307,13.47485 -6.73742,12.46424c-8.08491,-5.05307 1.01061,-47.16197 12.80111,-57.94185l8.42178,-7.74804l-8.42178,-9.43239c-4.7162,-5.05307 -12.46424,-15.15921 -17.18043,-22.2335c-8.75865,-13.13798 -8.75865,-13.13798 -11.79049,-5.38994l-3.03184,8.08491l-4.37933,-8.08491l-4.37933,-8.08491l-6.06368,7.74804c-3.70558,4.37933 -6.40055,10.44301 -6.40055,13.47485c0,13.81172 -16.16982,17.85418 -33.68712,8.75865c-5.72681,-3.03184 -10.10614,-4.37933 -10.10614,-3.36871c0,4.04245 8.08491,17.5173 26.27596,43.45639l18.52792,26.27596l6.06368,-7.74804c3.70558,-5.05307 5.72681,-6.06368 5.72681,-3.03184c-1.01061,16.84356 1.01061,20.21227 23.58099,33.35025c12.46424,7.74804 24.5916,13.81172 26.9497,13.81172c2.3581,0 6.73742,-5.38994 9.43239,-11.79049zm-84.55468,-111.84125c1.34748,-7.0743 5.38994,-16.84356 9.09552,-22.2335c5.72681,-8.08491 6.40055,-11.11675 3.03184,-17.85418c-3.03184,-6.73742 -2.69497,-10.44301 1.34748,-18.19105c2.69497,-5.38994 5.05307,-14.14859 5.05307,-19.20166l-0.33687,-9.43239l-5.72681,9.43239c-3.03184,5.05307 -6.73742,9.09552 -8.08491,9.09552c-5.38994,0 -2.3581,-20.21227 5.72681,-37.72958c4.7162,-9.76927 8.42178,-23.58099 8.42178,-30.31841c0,-13.81172 -5.05307,-17.18043 -8.42178,-6.06368c-2.3581,7.41117 -10.10614,9.09552 -12.80111,2.69497c-0.67374,-2.3581 -0.33687,-7.41117 1.34748,-11.11675c4.37933,-11.11675 3.36871,-26.9497 -2.02123,-34.02399c-4.7162,-6.06368 -4.7162,-5.72681 -5.05307,4.04245c0,5.72681 -1.01061,11.45362 -2.3581,12.46424c-3.70558,4.04245 -11.11675,-5.05307 -11.11675,-14.14859c0,-4.7162 -3.36871,-14.14859 -7.41117,-20.54915l-7.41117,-11.79049l-2.3581,11.79049c-2.69497,11.79049 -13.47485,23.58099 -22.2335,23.58099c-7.74804,0 -17.85418,-6.73742 -17.85418,-11.79049c0,-3.03184 4.37933,-5.05307 12.80111,-5.72681c26.61283,-2.3581 15.83295,-21.22289 -34.69774,-59.96308c-10.77988,-8.42178 -25.60221,-23.91786 -33.01338,-34.36087c-13.81172,-20.88602 -20.88602,-24.25473 -23.58099,-11.79049c-2.3581,9.43239 2.3581,35.37148 7.41117,40.42455c5.38994,5.38994 4.37933,9.09552 -1.68436,6.73742c-4.7162,-1.68436 -4.7162,-1.01061 0.33687,8.75865c5.72681,11.45362 4.37933,17.85418 -2.3581,11.11675c-8.08491,-8.08491 -9.43239,-3.36871 -9.43239,32.33964c0,43.79326 6.40055,68.04799 28.63405,111.50438c16.50669,32.33964 28.29718,44.13013 59.96308,62.65805c8.75865,5.05307 23.91786,11.11675 33.68712,13.13798c9.76927,2.3581 17.18043,5.72681 16.84356,8.08491c-0.67374,2.02123 2.02123,4.37933 5.38994,5.72681c3.36871,1.01061 7.0743,5.05307 8.08491,8.42178c2.69497,10.77988 8.08491,7.74804 10.77988,-5.72681zm457.13426,-6.40055c-2.02123,-11.79049 8.75865,-35.03461 16.84356,-35.03461c6.40055,0 7.41117,-2.69497 3.36871,-9.43239c-4.04245,-6.06368 -19.53853,11.45362 -25.26534,27.96031c-5.38994,15.83295 -13.81172,17.85418 -15.15921,3.70558c-0.67374,-6.40055 2.3581,-15.15921 9.09552,-26.27596c8.75865,-13.81172 9.43239,-16.84356 5.05307,-18.52792c-3.03184,-1.01061 -9.09552,2.02123 -14.82233,7.41117c-12.46424,11.79049 -16.16982,9.43239 -6.06368,-3.36871c8.08491,-10.44301 3.03184,-8.75865 -10.44301,3.03184l-8.08491,7.0743l2.3581,-10.10614c2.02123,-9.43239 1.68436,-9.76927 -3.03184,-3.70558c-6.73742,8.75865 -10.44301,4.37933 -5.72681,-6.40055c3.70558,-8.08491 3.36871,-8.42178 -18.86479,-14.48546c-12.46424,-3.70558 -34.69774,-8.75865 -49.85694,-11.79049c-42.1089,-7.74804 -62.99492,-19.20166 -78.82787,-43.45639c-19.8754,-29.3078 -20.21227,-30.65528 -23.58099,-59.62621c-1.68436,-15.15921 -6.06368,-32.33964 -10.44301,-40.42455c-6.73742,-13.13798 -7.0743,-17.5173 -5.38994,-52.88878c1.68436,-37.72958 1.68436,-38.74019 -6.73742,-48.50946c-4.7162,-5.72681 -15.15921,-14.14859 -23.24412,-18.86479c-8.42178,-5.05307 -19.20166,-15.15921 -24.5916,-22.90724c-17.85418,-25.60221 -20.88602,-27.28657 -55.58375,-27.28657l-30.99215,0l-26.27596,-19.8754c-14.14859,-11.11675 -27.62344,-22.90724 -29.3078,-26.27596c-6.73742,-12.46424 10.10614,-6.06368 36.71896,14.14859c14.82233,11.11675 27.96031,20.21227 28.97093,20.21227c1.01061,0 -0.33687,-5.05307 -3.03184,-10.77988c-2.69497,-6.06368 -7.0743,-19.8754 -10.10614,-30.31841c-3.03184,-11.11675 -7.74804,-20.88602 -11.11675,-22.57037c-13.13798,-7.0743 -30.99215,-40.76142 -21.55976,-40.76142c1.68436,0 11.45362,9.76927 22.2335,21.89663c15.15921,17.18043 20.54915,26.61283 24.5916,41.43516c2.69497,10.44301 8.08491,24.25473 12.12736,30.31841c7.0743,10.10614 8.42178,10.77988 21.55976,8.75865c18.19105,-2.69497 35.03461,7.0743 48.17259,27.96031c10.10614,15.83295 43.45639,40.42455 39.07706,28.97093c-6.73742,-17.5173 -26.61283,-45.47762 -47.83572,-66.36363c-33.68712,-33.68712 -47.49884,-59.96308 -51.87817,-99.04014c-2.3581,-21.55976 -6.40055,-36.71896 -13.47485,-51.87817c-13.13798,-27.28657 -13.13798,-33.68712 -0.33687,-21.55976c14.14859,13.47485 22.90724,36.38209 26.61283,69.39547c2.02123,20.54915 6.06368,34.36087 13.13798,48.50946l10.10614,19.8754l4.37933,-25.60221c5.05307,-29.3078 2.69497,-45.47762 -8.42178,-62.65805c-10.44301,-15.83295 -13.13798,-28.29718 -8.42178,-37.05584c5.05307,-9.43239 8.75865,-6.73742 11.79049,8.75865c1.34748,7.0743 5.72681,18.52792 10.10614,25.60221l7.74804,13.13798l6.40055,-9.76927c10.44301,-14.48546 14.48546,-30.31841 14.48546,-54.57314l0.33687,-22.2335l6.40055,8.08491c8.42178,10.10614 8.75865,27.28657 0.33687,53.56253l-6.06368,20.54915l8.08491,-3.36871c16.50669,-6.40055 21.22289,-10.44301 33.01338,-28.29718c16.84356,-26.61283 26.27596,-23.24412 12.12736,4.37933c-8.42178,16.16982 -22.2335,29.3078 -39.07706,36.38209c-27.28657,11.11675 -29.64467,15.15921 -35.70835,53.8994l-5.38994,35.03461l15.83295,13.13798c15.83295,13.47485 45.47762,58.61559 53.22565,80.8491c2.3581,6.40055 4.04245,16.50669 4.04245,22.57037c0,6.40055 0.67374,11.45362 1.68436,11.45362c3.03184,0 38.06645,-26.27596 40.42455,-30.31841c1.34748,-2.02123 -5.05307,-12.46424 -14.14859,-22.90724c-9.09552,-10.44301 -17.85418,-21.22289 -19.20166,-23.24412c-4.04245,-7.0743 -9.09552,-45.14075 -7.0743,-51.87817c3.36871,-10.10614 11.79049,-1.68436 12.12736,11.79049c0,5.72681 1.34748,13.13798 2.69497,16.84356c4.37933,11.11675 20.54915,-30.65528 20.54915,-52.88878c0,-23.58099 2.3581,-30.99215 8.75865,-25.60221c8.75865,7.0743 5.72681,41.09829 -5.72681,69.73235c-5.38994,14.14859 -11.45362,27.28657 -13.13798,29.3078c-3.70558,4.37933 21.89663,31.32902 25.60221,27.62344c1.34748,-1.01061 3.03184,-12.80111 4.04245,-25.93908c1.68436,-25.60221 4.7162,-31.32902 11.11675,-19.8754c5.38994,10.44301 2.02123,42.78265 -6.40055,58.95247c-7.0743,13.81172 -22.57037,29.64467 -38.40332,39.41393c-6.40055,4.04245 -9.76927,9.43239 -11.11675,18.19105c-1.34748,7.0743 -4.37933,18.86479 -7.0743,26.27596c-7.0743,19.8754 -5.72681,38.74019 3.03184,38.74019c2.02123,0 12.12736,-6.73742 22.2335,-14.48546c10.44301,-8.08491 26.61283,-19.20166 35.70835,-24.5916c9.43239,-5.38994 23.91786,-16.50669 32.33964,-24.92847c14.14859,-14.14859 15.83295,-17.5173 18.52792,-37.05584c1.34748,-12.12736 2.69497,-43.11952 2.69497,-69.0586c0,-40.76142 -1.01061,-51.5413 -9.09552,-79.83848c-9.76927,-36.38209 -19.20166,-56.93124 -38.74019,-84.89155l-13.13798,-18.52792l-6.73742,9.09552l-6.73742,9.09552l1.68436,-18.86479c1.34748,-17.5173 0,-22.2335 -14.14859,-52.21504c-8.75865,-18.19105 -19.20166,-36.71896 -23.24412,-41.09829c-11.45362,-12.46424 -32.33964,-23.24412 -55.92062,-29.3078c-42.44578,-10.77988 -93.6502,6.40055 -124.64236,42.1089l-16.84356,19.20166l-1.01061,31.6659l-1.01061,31.6659l16.16982,19.53853c8.75865,10.77988 15.83295,20.88602 15.83295,22.57037c0,8.08491 -9.76927,2.02123 -26.27596,-15.83295l-17.85418,-19.53853l2.02123,22.90724c1.01061,12.46424 1.01061,22.57037 0,22.57037c-1.01061,0 -4.7162,-5.05307 -8.42178,-11.11675c-8.42178,-13.81172 -8.42178,-27.96031 0,-46.48823c3.70558,-8.08491 6.73742,-19.20166 6.73742,-24.92847c0,-9.76927 -0.33687,-9.43239 -9.09552,5.72681c-9.76927,18.19105 -15.83295,18.19105 -12.46424,0.33687c2.69497,-14.48546 3.36871,-14.82233 -34.02399,14.48546c-14.82233,11.45362 -43.11952,37.39271 -62.65805,57.26811c-34.02399,35.37148 -36.04522,38.06645 -50.86756,73.7748c-8.75865,20.54915 -17.5173,46.8251 -19.53853,58.95247c-4.04245,21.22289 -6.06368,85.90216 -3.03184,88.93401c0.67374,0.67374 5.38994,0.67374 10.77988,-0.33687c8.08491,-1.68436 9.09552,-3.36871 9.43239,-15.83295l0.33687,-13.81172l5.05307,16.84356c8.08491,28.29718 14.82233,41.09829 29.64467,56.93124c15.15921,15.49608 28.63405,24.5916 28.63405,19.20166c0,-1.68436 -4.7162,-12.80111 -10.44301,-25.26534c-9.43239,-19.8754 -10.10614,-24.25473 -8.42178,-44.80387c1.01061,-12.80111 2.69497,-36.38209 3.70558,-53.22565c1.01061,-16.50669 2.69497,-32.67651 3.70558,-35.37148c3.03184,-8.75865 8.08491,3.36871 8.08491,19.53853c0,7.74804 1.01061,14.14859 2.02123,14.14859c1.01061,0 6.73742,-4.04245 12.46424,-8.75865c9.09552,-7.74804 10.44301,-10.77988 9.43239,-22.90724c-0.33687,-7.41117 -3.03184,-20.21227 -5.72681,-28.29718c-2.69497,-7.74804 -4.7162,-19.8754 -4.7162,-26.9497c0,-12.80111 13.13798,-45.14075 20.21227,-49.52007c7.74804,-4.7162 7.74804,2.3581 0,25.93908c-7.0743,21.22289 -7.41117,25.60221 -3.70558,37.72958c2.3581,7.74804 6.06368,21.22289 8.08491,29.98154c4.37933,16.16982 4.37933,16.16982 10.44301,9.43239c7.74804,-8.42178 12.12736,-9.09552 12.12736,-1.68436c0,6.40055 -17.5173,23.58099 -33.68712,33.35025c-6.73742,4.04245 -12.80111,11.11675 -15.15921,18.19105c-2.02123,6.06368 -7.0743,14.14859 -11.11675,17.18043c-12.12736,9.76927 -10.10614,34.36087 4.37933,62.65805c6.40055,12.46424 11.79049,26.61283 11.79049,31.32902c0.33687,10.44301 17.5173,30.65528 26.27596,30.65528c3.36871,0 10.44301,4.7162 15.83295,10.10614c5.38994,5.72681 11.45362,10.10614 13.81172,10.10614c2.02123,0 7.74804,3.03184 12.46424,6.73742c10.10614,8.08491 29.98154,8.75865 37.39271,1.34748c3.03184,-2.69497 6.40055,-9.09552 7.41117,-14.14859c1.01061,-5.05307 5.72681,-17.5173 10.44301,-27.96031c7.41117,-16.50669 8.08491,-20.54915 4.7162,-30.65528c-2.02123,-6.40055 -9.43239,-16.84356 -15.83295,-23.24412c-11.79049,-11.11675 -24.5916,-33.35025 -24.92847,-43.11952c0,-7.41117 9.43239,2.02123 17.18043,17.18043c3.70558,7.0743 10.10614,15.15921 14.82233,18.19105c9.43239,6.40055 23.24412,33.01338 20.54915,40.08768c-1.01061,2.69497 -0.33687,5.05307 1.34748,5.05307c6.73742,0 23.24412,-17.85418 30.31841,-32.67651c9.09552,-19.53853 19.20166,-31.32902 27.62344,-31.32902c7.41117,0 7.74804,4.37933 0.67374,10.44301c-2.69497,2.3581 -8.75865,11.45362 -13.13798,19.8754c-10.77988,21.22289 -24.5916,37.05584 -36.04522,42.1089l-9.76927,3.70558l7.41117,9.43239c4.04245,5.05307 22.57037,16.84356 41.43516,26.27596c18.52792,9.43239 40.76142,22.90724 48.84633,29.98154c8.08491,7.41117 20.21227,14.48546 26.9497,16.50669c6.73742,1.68436 13.81172,4.37933 15.83295,5.72681c6.40055,5.05307 14.82233,19.20166 14.82233,26.27596c0,5.38994 -2.3581,4.04245 -13.47485,-7.41117c-7.0743,-8.08491 -16.16982,-14.48546 -19.8754,-14.48546c-3.70558,0 -9.09552,-1.01061 -12.12736,-2.3581c-5.05307,-1.68436 -5.38994,-0.33687 -3.36871,9.09552c3.70558,16.16982 -4.04245,9.76927 -13.47485,-11.45362c-10.10614,-22.2335 -18.19105,-29.64467 -50.53068,-44.467c-14.82233,-6.73742 -32.00277,-16.84356 -37.72958,-22.57037l-11.11675,-10.10614l-4.37933,11.45362c-9.09552,21.89663 -9.76927,29.98154 -3.03184,29.98154c17.85418,0 66.02676,43.79326 86.91278,79.16474c8.75865,15.49608 8.42178,25.93908 -0.67374,18.19105c-8.75865,-7.0743 -9.76927,0.33687 -2.3581,14.14859c4.04245,7.0743 5.72681,13.13798 4.37933,13.13798c-1.68436,0 -4.04245,-1.34748 -5.05307,-3.36871c-1.01061,-1.68436 -3.36871,-3.36871 -5.38994,-3.36871c-6.40055,0 -2.69497,8.08491 10.10614,20.54915c13.13798,13.13798 22.90724,17.5173 19.53853,8.42178c-1.34748,-3.03184 0.67374,-5.38994 5.05307,-6.40055c5.05307,-1.34748 6.40055,-3.70558 4.37933,-8.08491c-5.72681,-14.82233 -5.72681,-15.49608 1.34748,-6.73742c4.7162,5.72681 10.77988,9.09552 16.50669,9.09552c5.05307,0 16.16982,2.3581 25.26534,5.05307c13.81172,4.04245 15.83295,4.04245 15.83295,0c0,-8.42178 6.40055,-5.72681 8.75865,3.36871c3.36871,13.13798 20.88602,16.84356 55.58375,11.79049c68.72173,-9.76927 77.14351,-8.42178 114.53622,19.20166c30.99215,22.57037 43.45639,26.61283 40.76142,12.46424zm-254.00091,-31.6659c2.02123,0 4.04245,-1.68436 4.04245,-3.70558c0,-5.05307 -21.22289,-2.02123 -22.90724,3.36871c-1.34748,3.36871 0.33687,4.04245 6.40055,2.69497c4.37933,-1.34748 10.10614,-2.3581 12.46424,-2.3581zm196.7328,-69.73235l1.01061,-12.80111l7.41117,13.47485l7.41117,13.47485l0.33687,-13.13798c0,-7.74804 -3.03184,-17.85418 -7.0743,-24.5916c-6.73742,-10.77988 -7.0743,-12.80111 -2.69497,-25.26534c6.73742,-20.21227 2.3581,-24.25473 -25.93908,-24.5916c-16.50669,0 -26.27596,1.68436 -34.02399,6.06368c-14.82233,8.42178 -20.21227,6.06368 -11.45362,-5.05307c8.75865,-11.11675 9.09552,-14.14859 0.33687,-9.43239c-9.76927,5.05307 -8.42178,-0.33687 3.03184,-10.77988c17.5173,-16.84356 26.27596,-67.03738 15.49608,-92.63959l-5.05307,-12.12736l-16.50669,15.49608c-8.75865,8.42178 -22.2335,18.19105 -29.3078,21.89663c-18.52792,9.43239 -25.60221,18.52792 -27.28657,35.70835c-1.01061,8.75865 -3.36871,14.82233 -5.72681,14.48546c-2.3581,-0.33687 -3.36871,5.72681 -2.69497,17.85418c0.67374,17.18043 0.33687,17.85418 -4.37933,12.12736c-4.7162,-6.40055 -5.05307,-5.72681 -5.05307,8.42178c0,11.45362 2.69497,18.86479 12.12736,32.67651c13.81172,20.54915 25.26534,27.62344 35.37148,21.55976c5.38994,-3.36871 6.40055,-3.03184 6.40055,1.01061c0,7.41117 5.38994,6.06368 11.79049,-2.3581c5.72681,-7.74804 5.72681,-7.74804 3.36871,3.03184c-2.3581,12.12736 -3.70558,11.45362 32.00277,17.5173c10.10614,1.68436 22.2335,4.7162 26.9497,6.73742c12.46424,5.05307 13.13798,4.7162 14.14859,-8.75865z"/>
    <path stroke="null" d="m3011.89426,803.64449c0,-14.48546 8.42178,-37.72958 13.47485,-37.72958c4.7162,0 3.70558,22.90724 -1.34748,36.71896c-6.06368,16.84356 -12.12736,17.18043 -12.12736,1.01061z"/>
   </g>
  </g>
 </g>
</svg>