<svg xmlns="http://www.w3.org/2000/svg" width="647" height="679" style="shape-rendering:geometricPrecision;text-rendering:geometricPrecision;image-rendering:optimizeQuality;fill-rule:evenodd;clip-rule:evenodd"><path style="opacity:1" d="M445.5-.5h2c27.415 10.841 36.582 30.508 27.5 59a350.752 350.752 0 0 1-15 32 781.336 781.336 0 0 1-27.5 38.5c-1.887.163-3.387-.671-4.5-2.5a107.026 107.026 0 0 1-7-15 22.755 22.755 0 0 0-4-5l-1 1-1 28c-3.591 26.261-18.425 37.094-44.5 32.5-15.439-4.395-30.106-10.395-44-18-3.123-1.882-5.789-4.215-8-7a159.405 159.405 0 0 0 7.5-18.5 94.305 94.305 0 0 0 9-16c6.552-9.219 14.385-17.052 23.5-23.5l11-3a456.12 456.12 0 0 0 21 1 14.505 14.505 0 0 1-5-4 336.156 336.156 0 0 0-50-12c-33.386-3.65-62.053 6.017-86 29a8.435 8.435 0 0 1-4 .5 269.777 269.777 0 0 0-9.5-33c-.667-2-.667-4 0-6 28.386-26.74 62.219-40.074 101.5-40 27.854-.05 54.354 5.617 79.5 17l3-2c6.622-12.64 15.122-23.64 25.5-33zm-32 41c1.47 3.186.97 6.186-1.5 9-.574 5.922-1.908 11.588-4 17-.667-3-.667-6 0-9a317.738 317.738 0 0 1 5.5-17zm-13 47c3.534 1.217 7.034 1.217 10.5 0 1.19 2.694 1.356 5.361.5 8a104.532 104.532 0 0 0-12-6.5c.556-.383.889-.883 1-1.5z"/><path style="opacity:1" fill="#171c51" d="M446.5 8.5c16.29 5.896 24.123 17.563 23.5 35-5.208 21.083-14.208 40.416-27 58a3420.593 3420.593 0 0 1-11 14c-14.408-23.38-17.075-48.046-8-74a158.653 158.653 0 0 1 22.5-33z"/><path style="opacity:1" fill="#005cb3" d="M447.5 9.5c12.222 5.897 19.555 15.564 22 29-2.549 14.074-7.049 27.407-13.5 40a403.462 403.462 0 0 1-23.5 34 29.804 29.804 0 0 1-4.5-6c-5.837-13.007-8.67-26.674-8.5-41 1.799-14.264 6.633-27.264 14.5-39a305.356 305.356 0 0 0 13.5-17z"/><path style="opacity:1" fill="#171c51" d="M322.5 25.5c10.429.106 20.762.106 31 0a283.416 283.416 0 0 1 48 10.5 9.568 9.568 0 0 1 3 3c-5.724 11.888-7.391 24.221-5 37a678.568 678.568 0 0 1-32-11 186.867 186.867 0 0 1-26.5-5.5c-4.034.867-8.034.534-12-1a45.626 45.626 0 0 1-19 0 515.474 515.474 0 0 1-28.5 6.5 167.863 167.863 0 0 0-20 10 201.44 201.44 0 0 0-10.5 8.5 8409.67 8409.67 0 0 0-7.5-21 122.88 122.88 0 0 0 9-9.5c21.028-14.929 44.361-24.095 70-27.5z"/><path style="opacity:1" fill="#005cb3" d="M323.5 26.5c27.676-1.544 54.343 2.623 80 12.5-2.169 2.82-3.669 5.986-4.5 9.5a269.315 269.315 0 0 0-2 26c-27.862-11.572-56.862-17.239-87-17a1158.209 1158.209 0 0 1-29.5 6.5 167.863 167.863 0 0 0-20 10l-9.5 7.5-5.5-19a117.312 117.312 0 0 0 8-8.5c21.028-14.929 44.361-24.095 70-27.5z"/><path style="opacity:1" d="M211.5 42.5c1.699-.16 3.366.007 5 .5 8.283 9.277 14.449 19.777 18.5 31.5 2.675 15.69-.325 30.357-9 44a13.92 13.92 0 0 1-4 3c-13.57-14.251-22.903-30.917-28-50-1.466-8.563.701-16.063 6.5-22.5 3.73-2.193 7.397-4.36 11-6.5z"/><path style="opacity:1" fill="#2d37a0" d="M210.5 53.5c1.59.128 2.923.795 4 2 6.952 9.406 11.286 19.906 13 31.5a899.567 899.567 0 0 0-4.5 16.5l-2 2a156.916 156.916 0 0 1-18-33c-1.519-7.963.981-14.296 7.5-19z"/><path style="opacity:1" fill="#005cb3" d="M209.5 55.5c2.481-.177 4.314.823 5.5 3a139.993 139.993 0 0 1 10 20c.99 8.326-.177 16.326-3.5 24-7.718-9.23-13.551-19.564-17.5-31a16.242 16.242 0 0 1 0-8 77.362 77.362 0 0 1 5.5-8z"/><path style="opacity:1" d="M646.5 356.5v23c-9.266 118.747-65.599 207.247-169 265.5-35.575 17.416-72.909 28.583-112 33.5h-61a1632.544 1632.544 0 0 1-52-6.5 105.574 105.574 0 0 0-14-3c-3.587-1.21-6.92-2.71-10-4.5a10169.519 10169.519 0 0 1 20-62.5 297.135 297.135 0 0 1-21.5-37.5c-16.778-49.193-.944-83.026 47.5-101.5 37.141-10.981 75.141-14.981 114-12 9.024.577 18.024 1.41 27 2.5 5.719.813 7.052-1.02 4-5.5a41.056 41.056 0 0 1-9-6 113.74 113.74 0 0 0-23-9 1058.075 1058.075 0 0 0-35-6 836.987 836.987 0 0 1-95-13c-16.367-3.781-31.367-10.448-45-20-7.475-6.471-12.975-14.304-16.5-23.5-3.532-19.592 4.468-29.592 24-30a853.873 853.873 0 0 1 53.5 7.5c12.043.865 24.043.532 36-1 27.201-6.93 51.201-19.597 72-38 12.317-11.879 21.15-26.046 26.5-42.5a311.428 311.428 0 0 0 7-23 2819.741 2819.741 0 0 1 13-63c9.165-33.503 24.998-63.336 47.5-89.5l2-.5c36.186 18.315 67.686 42.981 94.5 74 25.906 31.807 45.573 67.14 59 106a623.014 623.014 0 0 1 12 52 868.996 868.996 0 0 0 3.5 34z"/><path style="opacity:1" fill="#161616" d="M371.5 96.5c12.74-.884 23.574 3.116 32.5 12 2.111 12.233 1.111 24.233-3 36-2.826 5.493-6.993 9.659-12.5 12.5a72.464 72.464 0 0 1-17 0c-12.562-3.702-24.395-8.869-35.5-15.5-.518-4.051-.184-8.051 1-12a414.174 414.174 0 0 1 11.5-19 13.116 13.116 0 0 1 7-1 267.527 267.527 0 0 0-.5 18c6.39 15.546 16.89 19.379 31.5 11.5 10.085-7.999 11.418-17.166 4-27.5-4.807-2.644-8.807-6.144-12-10.5l-16 1c2.176-3.373 5.176-5.206 9-5.5z"/><path style="opacity:1" fill="#282928" d="M372.5 97.5a121.086 121.086 0 0 0 17 2.5 100.4 100.4 0 0 1 13.5 9.5c1.923 11.554.923 22.888-3 34-6 11.083-15.167 15.249-27.5 12.5-12.562-3.702-24.395-8.869-35.5-15.5-.33-3.366.003-6.699 1-10a414.174 414.174 0 0 1 11.5-19c1.545-.952 3.212-1.285 5-1-4.963 19.099 2.037 30.766 21 35 10.083-2.247 16.916-8.247 20.5-18 1.051-6.346-.449-12.013-4.5-17-4.807-2.644-8.807-6.144-12-10.5a20.438 20.438 0 0 1-5.5-1.5c-2.939 1.897-6.105 2.73-9.5 2.5 2.525-1.719 5.192-2.886 8-3.5z"/><path style="opacity:1" fill="#050510" d="M478.5 103.5c72.113 40.298 120.613 99.965 145.5 179 24.884 92.002 11.051 177.336-41.5 256-49.006 68.045-115.006 110.212-198 126.5a124.679 124.679 0 0 0-23 3 1351.298 1351.298 0 0 0-61 0c-20.326-.508-39.993-3.841-59-10a173.1 173.1 0 0 0 4.5-16.5 4843.38 4843.38 0 0 0 14.5-42.5 11.532 11.532 0 0 0-1.5-5.5 25.654 25.654 0 0 1-7-8 223.42 223.42 0 0 0-10-19c-1.264-2.107-3.097-3.107-5.5-3a1394.034 1394.034 0 0 0-5.5-22c-1.983-12.597-.317-24.597 5-36a1500 1500 0 0 0 9-12c14.414-12.594 30.914-21.427 49.5-26.5 33.343-6.209 67.01-8.209 101-6l33 3.5c1.6-.051 3.1-.384 4.5-1 2.181-11.986-1.986-21.319-12.5-28-14.066-7.521-29.066-12.354-45-14.5a5545.178 5545.178 0 0 1-104-14 311.034 311.034 0 0 0-23-6 184.3 184.3 0 0 1-29-15c-7.2-6.184-11.867-13.851-14-23 1.298-9.116 6.631-13.283 16-12.5a817.763 817.763 0 0 0 55 7.5c41.034 1.211 77.367-11.122 109-37 20.846-19.855 33.679-44.022 38.5-72.5a693.675 693.675 0 0 1 17-75c8.428-25.573 20.928-48.907 37.5-70z"/><path style="opacity:1" fill="#005cb3" d="M479.5 104.5c92.689 55.303 144.522 136.97 155.5 245 2.642 103.15-35.191 187.15-113.5 252-47.186 36.916-100.853 58.75-161 65.5a864.639 864.639 0 0 0-50 .5c-22.882-.427-45.215-3.76-67-10l3.5-15a1522.21 1522.21 0 0 0 14.5-43.5c.006-2.3-.494-4.466-1.5-6.5a25.654 25.654 0 0 1-7-8 223.42 223.42 0 0 0-10-19c-1.264-2.107-3.097-3.107-5.5-3a1394.034 1394.034 0 0 0-5.5-22c-1.949-11.942-.283-23.275 5-34a132.788 132.788 0 0 1 15.5-18c17.089-12.204 36.089-20.037 57-23.5 39.684-4.753 79.35-4.586 119 .5a17.142 17.142 0 0 0 5.5-1c2.791-12.767-1.376-22.767-12.5-30-14.066-7.521-29.066-12.354-45-14.5a5545.178 5545.178 0 0 1-104-14 311.034 311.034 0 0 0-23-6 184.3 184.3 0 0 1-29-15c-6.74-6.061-11.407-13.395-14-22 1.61-8.097 6.61-11.93 15-11.5a706.052 706.052 0 0 0 54 7.5c41.765 1.634 78.765-10.699 111-37 20.846-19.855 33.679-44.022 38.5-72.5a693.675 693.675 0 0 1 17-75c8.428-25.573 20.928-48.907 37.5-70z"/><path style="opacity:1" d="M245.5 107.5c7.435-.604 14.101 1.23 20 5.5 8.894 7.977 16.228 17.144 22 27.5-7.423 14.257-18.09 25.423-32 33.5-6.139 1.451-11.639.284-16.5-3.5-7.833-11.831-11.833-24.831-12-39 2.344-11.151 8.511-19.151 18.5-24z"/><path style="opacity:1" fill="#005cb3" d="M368.5 108.5c8.41-1.928 15.077.572 20 7.5-.561 1.566.106 2.899 2 4a270.698 270.698 0 0 1-.5 6.5c-3.132 11.256-10.132 14.923-21 11l-1 1c-12.543-9.948-12.377-19.948.5-30z"/><path style="opacity:1" d="M131.5 111.5c24.517.686 37.85 13.186 40 37.5-.356 8.481-3.19 15.981-8.5 22.5a6767.993 6767.993 0 0 0-31 30A1189.38 1189.38 0 0 0 86.5 165a561.502 561.502 0 0 1-10-10 242.716 242.716 0 0 1 37-37c5.76-3.085 11.76-5.251 18-6.5z"/><path style="opacity:1" fill="#2d37a0" d="M132.5 120.5c12.582.869 21.748 6.869 27.5 18 2.534 9.145 1.534 17.812-3 26a70993.858 70993.858 0 0 0-26 24 1753.05 1753.05 0 0 0-38.5-32c-2.769-3.131-2.102-5.131 2-6 7.17-8.708 15.17-16.875 24-24.5 4.39-2.754 9.056-4.587 14-5.5z"/><path style="opacity:1" fill="#161616" d="M247.5 112.5c3.41-.043 6.743.457 10 1.5 9.177 6.178 16.677 14.011 22.5 23.5a12.494 12.494 0 0 1 0 7c-6.644 10.144-15.144 18.31-25.5 24.5a16.242 16.242 0 0 1-8 0c-6.6-4.358-10.266-10.524-11-18.5a9.86 9.86 0 0 1 6 1c7.662 5.92 14.495 4.92 20.5-3 4.996-10.152 2.83-18.319-6.5-24.5-4.842-2.37-9.175-1.703-13 2a12.93 12.93 0 0 1-5 .5 18.453 18.453 0 0 1 .5-6c3.112-2.964 6.279-5.63 9.5-8z"/><path style="opacity:1" fill="#282928" d="M248.5 113.5c2.716.178 5.383.678 8 1.5 9.177 6.178 16.677 14.011 22.5 23.5.667 1.667.667 3.333 0 5-6.644 10.144-15.144 18.31-25.5 24.5-2 .667-4 .667-6 0-5.816-3.997-9.482-9.497-11-16.5a99.292 99.292 0 0 1 11.5 6c14.555-2.864 20.222-11.198 17-25-3.047-7.047-8.381-11.047-16-12a177.276 177.276 0 0 0-10.5 5 8.43 8.43 0 0 1 .5-4c3.112-2.964 6.279-5.63 9.5-8z"/><path style="opacity:1" fill="#005cb3" d="M133.5 121.5c5.737.866 11.07 2.866 16 6 11.93 10.167 14.096 22.167 6.5 36a372.075 372.075 0 0 0-23.5 22.5c-1.049.492-2.049.326-3-.5l-36-30c-.929-1.189-1.262-2.522-1-4h3c7.17-8.708 15.17-16.875 24-24.5 4.39-2.754 9.056-4.587 14-5.5zM248.5 129.5c6.06.226 9.394 3.392 10 9.5.016 2.305-.984 3.972-3 5l1 1c-3.082 3.803-6.748 4.47-11 2a13.24 13.24 0 0 0-3-5c.698-.971.698-2.137 0-3.5.318-1.147.984-1.981 2-2.5a3.647 3.647 0 0 1-1-1.5l5-5z"/><path style="opacity:1" d="M299.5 146.5c14.24 19.102 30.74 36.102 49.5 51l9 11c3.297 9.987.797 18.154-7.5 24.5a411.135 411.135 0 0 1-31 16c-15.15.46-28.816-3.873-41-13-11.969-9.797-16.136-22.297-12.5-37.5a114.819 114.819 0 0 1 12-26 46.338 46.338 0 0 0 9-13 854.535 854.535 0 0 1 12.5-13z"/><path style="opacity:1" fill="#282928" d="M297.5 165.5c4.269 3.813 8.102 8.146 11.5 13a418.743 418.743 0 0 0 25.5 22.5 102.362 102.362 0 0 1 14 15.5c-1.092 2.594-2.759 4.761-5 6.5a209.364 209.364 0 0 1-31.5 15.5c-12.089-3.264-22.589-9.264-31.5-18a47.144 47.144 0 0 1-5-11 48.756 48.756 0 0 1 4.5-16 198.873 198.873 0 0 1 17.5-28z"/><path style="opacity:1" d="M56.5 179.5c1.679.392 3.346.892 5 1.5l53 43c-13.154 20.475-23.487 42.308-31 65.5a6.202 6.202 0 0 1-3.5 2A8070.037 8070.037 0 0 0 14.5 274a7.248 7.248 0 0 1-2-2.5c9.912-33.15 24.579-63.817 44-92z"/><path style="opacity:1" fill="#005cb3" d="M59.5 194.5a360.906 360.906 0 0 1 40 34l-13 24a223.777 223.777 0 0 1-11 27 897.631 897.631 0 0 1-50-14 475.718 475.718 0 0 1 16.5-42c5.865-9.744 11.698-19.411 17.5-29z"/><path style="opacity:1" d="M-.5 381.5v-37a633.313 633.313 0 0 1 5-41c2.357-.163 4.69.003 7 .5a748.96 748.96 0 0 0 60 15c1.58.707 3.08 1.54 4.5 2.5a127.618 127.618 0 0 0-2 12 517.601 517.601 0 0 0 .5 55.5c-.561 1.676-1.561 3.009-3 4-20.005 3.335-40.005 6.669-60 10a37.148 37.148 0 0 0-8 2.5 3.646 3.646 0 0 1-1.5-1c-.075-7.9-.908-15.566-2.5-23z"/><path style="opacity:1" fill="#2d37a0" d="M12.5 314.5a2408.47 2408.47 0 0 0 54 13c.009 1.808-.491 3.475-1.5 5a600.016 600.016 0 0 0-.5 52 1569.363 1569.363 0 0 1-52.5 10 3.944 3.944 0 0 1-2-1 51.682 51.682 0 0 0-1.5-9.5c1.408-2.292 1.241-4.459-.5-6.5a941.912 941.912 0 0 1-.5-32.5 709.648 709.648 0 0 1 5-30.5z"/><path style="opacity:1" fill="#005cb3" d="M13.5 315.5a4439.591 4439.591 0 0 0 52 13.5 9.465 9.465 0 0 0-1.5 2.5 600.314 600.314 0 0 0-.5 52 396.534 396.534 0 0 1-39 6.5 69.844 69.844 0 0 1-12.5 3.5l-1-1c-3.632-25.712-2.799-51.379 2.5-77z"/><path style="opacity:1" d="M77.5 421.5c4.21 2.803 6.043 6.803 5.5 12 9.12 25.436 21.288 49.269 36.5 71.5-4.096 5.093-9.096 9.093-15 12l-15 15A6604.86 6604.86 0 0 1 63 552.5c-10.85-10.22-18.517-22.553-23-37l-8-12a3962.898 3962.898 0 0 0-15-37c.046-3.133-.954-5.8-3-8a243.732 243.732 0 0 1-4-17 29.464 29.464 0 0 0-2.5-4.5c2.525-2.291 5.525-3.624 9-4a2333.242 2333.242 0 0 0 61-11.5z"/><path style="opacity:1" fill="#171c51" d="M82.5 459.5a409.845 409.845 0 0 1-10-26.5 556.253 556.253 0 0 0-42 7.5c.652-1.225 1.819-1.892 3.5-2a717.446 717.446 0 0 0 26.5-5.5 68.026 68.026 0 0 1 13-1 264.662 264.662 0 0 1 9 27.5z"/><path style="opacity:1" fill="#005bb2" d="M82.5 459.5v1c5.653 14.87 13.32 28.703 23 41.5a10.94 10.94 0 0 0-3 4.5 40.48 40.48 0 0 0-10 8.5c-1.634.494-3.3.66-5 .5v3a44.581 44.581 0 0 0-8 3.5 60.626 60.626 0 0 0-12 14 4.934 4.934 0 0 1-3 .5v-1a465.821 465.821 0 0 1-22-34v-1a288.216 288.216 0 0 0-12-26v-1a511.83 511.83 0 0 0-10-29.5c1.723-1.749 3.723-2.916 6-3.5h4a556.253 556.253 0 0 1 42-7.5 409.845 409.845 0 0 0 10 26.5z"/><path style="opacity:1" fill="#171c51" d="M26.5 440.5c-2.277.584-4.277 1.751-6 3.5a511.83 511.83 0 0 1 10 29.5c-1.086-.12-1.753-.787-2-2a1325.606 1325.606 0 0 0-9-27.5c1.237-3.043 3.57-4.21 7-3.5zM82.5 460.5c.958.453 1.792 1.119 2.5 2a206.27 206.27 0 0 0 21.5 39.5 43.286 43.286 0 0 0-3 5.5 40.48 40.48 0 0 0-10 8.5c-1.634.494-3.3.66-5 .5v3a44.581 44.581 0 0 0-8 3.5A474.374 474.374 0 0 0 66 539.5c-1.039-.744-1.539-1.744-1.5-3a4.934 4.934 0 0 0 3-.5 60.626 60.626 0 0 1 12-14 44.581 44.581 0 0 1 8-3.5v-3c1.7.16 3.366-.006 5-.5a40.48 40.48 0 0 1 10-8.5 10.94 10.94 0 0 1 3-4.5c-9.68-12.797-17.347-26.63-23-41.5zM30.5 474.5a288.216 288.216 0 0 1 12 26c-2.293-2.165-4.127-4.831-5.5-8a206.05 206.05 0 0 1-6.5-18zM42.5 501.5a465.821 465.821 0 0 0 22 34c-.996.086-1.83-.248-2.5-1-7.563-10.472-14.063-21.472-19.5-33z"/><path style="opacity:1" d="M137.5 527.5c4.829 5.432 10.496 9.932 17 13.5a311.832 311.832 0 0 0 18 18 617.212 617.212 0 0 1 29 16l3 3a171.2 171.2 0 0 1 19 9 913.804 913.804 0 0 0-21.5 64.5c-.667 2-2 3.333-4 4-42.53-17.604-79.863-42.937-112-76a15.653 15.653 0 0 0-2.5-4 1815.808 1815.808 0 0 1 54-48z"/><path style="opacity:1" fill="#005bb2" d="M136.5 543.5c5.417.872 9.75 3.705 13 8.5l25 18.5c1.915 1.571 2.915 3.571 3 6 1.788-.285 3.455.048 5 1a76.71 76.71 0 0 0 15 10.5c1.973.495 3.973.662 6 .5a43.987 43.987 0 0 0 4 7.5 187.042 187.042 0 0 1-13.5 47.5 417.89 417.89 0 0 1-24.5-11 745.262 745.262 0 0 1-52-35.5 124.856 124.856 0 0 0-17-15.5c-1.435-1.429-2.435-3.095-3-5 2.504-4.325 6.17-7.492 11-9.5a151.89 151.89 0 0 1 8-8.5c2.953-2.373 6.286-3.207 10-2.5-1.943 3.19-2.109 6.357-.5 9.5l1-1c2.061 2.628 4.561 3.295 7.5 2 .068-7.631.735-15.297 2-23z"/></svg>