<?xml version="1.0" standalone="no"?>
<!DOCTYPE svg PUBLIC "-//W3C//DTD SVG 20010904//EN"
 "http://www.w3.org/TR/2001/REC-SVG-20010904/DTD/svg10.dtd">
<svg version="1.0" xmlns="http://www.w3.org/2000/svg"
 width="600.000000pt" height="930.000000pt" viewBox="0 0 600.000000 930.000000"
 preserveAspectRatio="xMidYMid meet">

<g transform="translate(0.000000,930.000000) scale(0.100000,-0.100000)"
fill="#005cb3" stroke="none">
<path d="M575 9031 c-17 -28 -25 -128 -19 -234 6 -109 14 -133 27 -82 3 11 5
-6 6 -37 1 -60 -18 -94 -21 -36 -1 26 -3 22 -8 -17 l-7 -50 -1 53 -2 52 -36 0
c-27 0 -37 -5 -41 -19 -6 -23 -49 -33 -64 -15 -6 8 -25 14 -41 14 -25 0 -54
-23 -173 -140 -140 -139 -142 -142 -148 -193 -4 -29 -8 -61 -9 -72 -7 -46 31
-23 105 65 53 64 77 85 77 71 0 -11 6 -26 14 -33 8 -8 15 -23 18 -34 2 -14 13
-20 41 -22 25 -2 37 -8 34 -15 -2 -7 -20 -68 -40 -137 -34 -121 -36 -133 -41
-342 -4 -120 -15 -313 -26 -430 -25 -273 -25 -303 0 -338 25 -35 58 -46 175
-59 285 -33 1075 -40 1355 -12 203 21 241 30 279 68 l34 34 -6 92 c-4 51 -15
184 -26 297 -11 113 -23 288 -26 390 -6 168 -10 196 -41 307 -19 68 -34 127
-34 132 0 6 17 11 37 13 29 2 39 8 42 23 2 11 9 24 17 28 17 9 19 83 3 92 -5
4 -14 18 -19 31 -8 20 -17 24 -49 24 -34 0 -40 -4 -50 -30 -17 -50 -31 -35
-31 33 0 50 -5 70 -25 100 -16 22 -34 37 -46 37 -12 0 -23 8 -26 20 -4 16 -14
20 -43 20 l-37 0 -13 90 c-7 49 -10 111 -6 137 3 27 7 57 8 67 3 19 -5 20
-192 22 -107 2 -242 8 -300 14 -233 24 -312 29 -462 30 -86 0 -159 -4 -163 -9z
m138 -18 c-119 -4 -123 -4 -124 -26 0 -12 -3 -16 -6 -9 -3 7 -2 19 1 27 4 12
28 15 128 13 l123 -2 -122 -3z m332 -2 c24 -5 -8 -6 -80 -3 -66 3 -122 6 -124
8 -8 7 164 3 204 -5z m73 -32 l122 -13 1 -36 1 -35 7 30 6 30 196 0 196 0 0
-85 c1 -47 8 -128 17 -180 9 -52 16 -110 16 -127 l0 -33 -54 0 c-30 0 -58 5
-61 10 -3 6 -24 10 -45 10 -21 0 -42 -4 -45 -10 -4 -6 -125 -10 -331 -10 -209
0 -324 4 -324 10 0 6 -20 10 -44 10 -25 0 -48 -4 -51 -10 -3 -5 -34 -10 -68
-10 l-62 0 1 224 c1 123 5 229 9 236 10 16 318 9 513 -11z m65 14 c-13 -2 -33
-2 -45 0 -13 2 -3 4 22 4 25 0 35 -2 23 -4z m369 -13 c70 0 128 -3 128 -7 0
-10 -460 4 -469 13 -3 4 43 4 103 0 60 -3 167 -6 238 -6z m-975 -153 c-2 -23
-3 -1 -3 48 0 50 1 68 3 42 2 -26 2 -67 0 -90z m1090 -9 c-2 -24 -4 -5 -4 42
0 47 2 66 4 43 2 -24 2 -62 0 -85z m10 -85 c-3 -10 -5 -4 -5 12 0 17 2 24 5
18 2 -7 2 -21 0 -30z m-1139 -145 c2 -43 7 -78 12 -78 6 0 11 8 11 18 1 16 2
16 6 0 4 -15 17 -18 84 -18 46 0 79 4 79 10 0 6 18 10 40 10 22 0 40 -4 40
-10 0 -6 117 -10 331 -10 280 0 333 2 345 15 20 19 48 19 68 -1 13 -12 33 -15
89 -12 l72 3 5 75 c4 67 7 75 25 75 16 0 21 -8 25 -40 3 -22 11 -49 17 -60 10
-17 11 -13 6 23 -5 34 -3 42 10 42 32 0 56 -53 59 -131 3 -66 5 -74 23 -74 13
0 25 12 35 33 12 28 18 33 44 30 22 -2 32 -9 35 -23 2 -11 9 -24 17 -28 18
-10 18 -51 0 -67 -8 -6 -16 -21 -18 -33 -4 -29 -44 -31 -41 -2 7 51 4 115 -5
131 -7 13 -9 5 -5 -28 3 -26 2 -64 -2 -85 l-7 -38 -13 31 c-25 59 -44 64 -288
74 -122 5 -249 11 -282 12 l-60 3 -3 -57 -3 -57 81 -37 c94 -43 102 -54 11
-18 -98 40 -85 19 20 -30 64 -31 86 -45 69 -46 -14 0 -35 7 -46 15 -27 18
-125 57 -131 51 -2 -2 20 -18 49 -35 44 -25 49 -31 28 -30 -14 0 -43 11 -65
24 -51 32 -65 32 -35 0 l23 -25 -28 0 c-16 0 -40 10 -53 23 l-24 22 6 -22 c6
-20 4 -23 -19 -23 -18 0 -29 6 -32 20 -3 11 -9 20 -14 20 -5 0 -9 -9 -9 -20 0
-16 -7 -20 -30 -20 -25 0 -29 4 -28 24 2 22 7 24 84 29 124 7 182 47 117 80
-37 19 -113 30 -113 17 0 -5 10 -10 21 -10 37 0 99 -23 99 -36 0 -38 -251 -46
-288 -9 -13 12 29 33 79 40 28 4 46 11 43 17 -8 12 -79 1 -116 -18 -34 -17
-36 -38 -6 -58 12 -9 20 -17 17 -19 -2 -1 -21 -15 -42 -31 -26 -19 -47 -26
-70 -24 l-32 3 47 28 c99 58 45 51 -61 -9 -24 -13 -55 -24 -70 -23 -19 0 1 14
74 50 59 29 88 47 70 45 -28 -5 -27 -4 7 11 43 18 52 38 43 93 l-7 40 -66 -1
c-37 0 -164 -6 -282 -12 -176 -10 -221 -15 -243 -30 -15 -9 -28 -22 -28 -27
-1 -6 -2 -14 -3 -19 0 -5 -4 -12 -8 -16 -11 -12 -21 63 -14 113 4 37 3 43 -5
28 -6 -10 -9 -46 -7 -82 3 -55 2 -64 -13 -64 -10 0 -25 14 -33 32 -18 35 -21
88 -6 88 6 0 10 11 10 25 0 22 4 25 33 25 28 0 36 -5 48 -32 9 -22 21 -33 34
-33 17 0 20 8 23 58 2 44 -2 67 -17 92 -15 25 -16 36 -8 46 7 7 1 5 -12 -6
-12 -11 -46 -48 -74 -83 -37 -46 -60 -65 -87 -72 -20 -5 -54 -26 -76 -46 l-39
-35 41 30 c34 27 102 56 110 48 1 -1 -23 -31 -53 -67 -136 -159 -141 -163
-124 -104 6 19 10 22 10 10 2 -31 8 -15 16 38 6 47 6 49 -12 36 -10 -7 48 53
129 134 127 127 150 147 170 141 13 -4 29 -14 36 -23 9 -12 15 -13 24 -4 23
23 31 12 26 -33 -3 -25 -4 -45 -2 -45 11 0 34 64 34 95 0 32 3 36 23 33 20 -3
22 -9 25 -80z m1159 0 c-2 -13 -4 -5 -4 17 -1 22 1 32 4 23 2 -10 2 -28 0 -40z
m-1120 -25 c-3 -10 -5 -4 -5 12 0 17 2 24 5 18 2 -7 2 -21 0 -30z m-197 -65
c0 -63 -12 -75 -29 -28 -7 20 -17 30 -30 30 -28 0 -27 4 11 45 38 43 48 34 48
-47z m566 -102 c14 -57 5 -67 -102 -111 -116 -48 -177 -82 -171 -99 3 -8 128
-12 455 -14 375 -2 452 0 452 11 0 25 -37 48 -152 98 -113 48 -113 49 -116 85
-2 20 1 40 6 43 6 3 131 1 278 -6 209 -9 270 -15 282 -27 18 -18 92 -284 98
-351 4 -49 19 -286 29 -460 3 -49 10 -128 15 -175 36 -325 35 -295 11 -329
-25 -34 -55 -45 -176 -60 -402 -52 -1493 -34 -1597 27 -45 26 -51 56 -39 183
25 260 41 484 47 649 6 168 8 181 51 335 27 96 52 166 63 176 20 17 211 35
512 47 43 2 48 -1 54 -22z m-76 -126 c-8 -5 -19 -10 -25 -10 -5 0 -3 5 5 10 8
5 20 10 25 10 6 0 3 -5 -5 -10z m175 -30 c11 -18 -19 -50 -48 -50 l-29 0 24
29 c24 31 42 38 53 21z"/>
<path d="M840 8930 c0 -16 3 -30 8 -30 4 0 7 14 7 30 0 17 -3 30 -7 30 -5 0
-8 -13 -8 -30z"/>
<path d="M886 8939 c-27 -26 -13 -36 49 -36 46 0 55 2 55 17 0 14 -8 18 -35
18 -19 0 -35 -5 -36 -11 -1 -7 -4 -3 -7 9 -7 20 -8 20 -26 3z m14 -19 c0 -5
-4 -10 -10 -10 -5 0 -10 5 -10 10 0 6 5 10 10 10 6 0 10 -4 10 -10z m80 0 c0
-5 -5 -10 -11 -10 -5 0 -7 5 -4 10 3 6 8 10 11 10 2 0 4 -4 4 -10z"/>
<path d="M1080 8943 c0 -15 2 -16 10 -3 8 13 11 12 25 -5 15 -18 16 -18 11 -2
-3 10 -6 21 -6 23 0 2 -9 4 -20 4 -12 0 -20 -7 -20 -17z"/>
<path d="M780 8940 c0 -5 5 -10 10 -10 6 0 10 5 10 10 0 6 -4 10 -10 10 -5 0
-10 -4 -10 -10z"/>
<path d="M625 8930 c-7 -11 2 -30 13 -30 4 0 8 9 8 20 0 21 -11 26 -21 10z"/>
<path d="M664 8928 c-3 -5 -1 -15 5 -21 9 -9 11 -8 6 6 -4 9 -3 17 3 17 6 0
16 -8 21 -17 10 -17 10 -16 11 2 0 22 -34 32 -46 13z"/>
<path d="M721 8924 c0 -11 3 -14 6 -6 3 7 2 16 -1 19 -3 4 -6 -2 -5 -13z"/>
<path d="M750 8930 c-11 -7 -11 -10 -2 -10 8 0 10 -5 6 -12 -4 -7 -3 -9 1 -5
7 6 17 37 12 37 -1 0 -9 -5 -17 -10z"/>
<path d="M1158 8933 c7 -3 16 -2 19 1 4 3 -2 6 -13 5 -11 0 -14 -3 -6 -6z"/>
<path d="M1195 8920 c-3 -5 -1 -10 4 -10 6 0 11 5 11 10 0 6 -2 10 -4 10 -3 0
-8 -4 -11 -10z"/>
<path d="M1081 8904 c0 -11 3 -14 6 -6 3 7 2 16 -1 19 -3 4 -6 -2 -5 -13z"/>
<path d="M702 8845 c0 -16 2 -22 5 -12 2 9 2 23 0 30 -3 6 -5 -1 -5 -18z"/>
<path d="M757 8863 c-9 -9 -9 -51 1 -56 4 -3 7 10 7 29 0 19 0 34 -1 34 0 0
-4 -3 -7 -7z"/>
<path d="M891 8838 c1 -20 3 -25 6 -14 4 15 7 16 14 5 7 -11 9 -11 9 -1 0 7
-7 20 -15 28 -13 14 -15 12 -14 -18z"/>
<path d="M1275 8835 c0 -18 3 -31 8 -28 4 2 7 15 7 28 0 13 -3 26 -7 28 -5 3
-8 -10 -8 -28z"/>
<path d="M862 8840 c0 -14 2 -19 5 -12 2 6 2 18 0 25 -3 6 -5 1 -5 -13z"/>
<path d="M1132 8840 c0 -14 2 -19 5 -12 2 6 2 18 0 25 -3 6 -5 1 -5 -13z"/>
<path d="M1320 8836 c0 -14 4 -27 8 -30 5 -3 6 8 4 25 -5 35 -12 38 -12 5z"/>
<path d="M671 8834 c0 -11 3 -14 6 -6 3 7 2 16 -1 19 -3 4 -6 -2 -5 -13z"/>
<path d="M781 8834 c0 -11 3 -14 6 -6 3 7 2 16 -1 19 -3 4 -6 -2 -5 -13z"/>
<path d="M800 8833 c0 -7 5 -13 10 -13 6 0 10 5 10 10 0 6 5 10 11 10 6 0 8
-7 4 -17 -5 -14 -3 -15 6 -6 6 6 8 16 5 21 -9 15 -46 10 -46 -5z"/>
<path d="M931 8834 c0 -11 3 -14 6 -6 3 7 2 16 -1 19 -3 4 -6 -2 -5 -13z"/>
<path d="M951 8827 c0 -21 1 -21 9 -2 5 11 9 15 9 8 1 -6 11 -15 22 -18 17 -6
19 -9 8 -17 -12 -8 -11 -9 1 -5 8 2 16 15 18 29 3 24 0 26 -32 26 -30 0 -36
-3 -35 -21z"/>
<path d="M1051 8834 c0 -11 3 -14 6 -6 3 7 2 16 -1 19 -3 4 -6 -2 -5 -13z"/>
<path d="M1070 8841 c0 -5 7 -12 16 -15 14 -5 15 -4 4 9 -14 17 -20 19 -20 6z"/>
<path d="M1160 8833 c0 -15 2 -16 10 -3 8 13 11 12 23 -3 11 -16 16 -17 40 -6
31 14 36 30 7 22 -11 -3 -20 -9 -20 -14 0 -5 -4 -9 -10 -9 -5 0 -10 7 -10 15
0 8 -9 15 -20 15 -12 0 -20 -7 -20 -17z"/>
<path d="M960 8752 c0 -21 2 -24 10 -12 6 10 10 11 10 3 0 -7 7 -13 15 -13 8
0 15 6 15 13 0 9 3 8 9 -2 7 -11 9 -11 14 0 5 12 7 11 16 -1 5 -8 13 -11 18
-7 12 13 -19 28 -49 24 -16 -2 -28 0 -28 4 0 4 -7 9 -15 13 -11 4 -15 -2 -15
-22z"/>
<path d="M1232 8755 c0 -16 2 -22 5 -12 2 9 2 23 0 30 -3 6 -5 -1 -5 -18z"/>
<path d="M930 8750 c0 -11 5 -20 10 -20 6 0 10 9 10 20 0 11 -4 20 -10 20 -5
0 -10 -9 -10 -20z"/>
<path d="M1200 8759 c0 -5 5 -7 10 -4 6 3 10 8 10 11 0 2 -4 4 -10 4 -5 0 -10
-5 -10 -11z"/>
<path d="M734 8749 c-8 -14 14 -19 25 -6 8 10 7 14 -5 14 -8 0 -17 -4 -20 -8z"/>
<path d="M807 8743 c3 -6 11 -9 19 -6 20 7 17 19 -5 19 -11 0 -17 -6 -14 -13z"/>
<path d="M851 8742 c0 -10 3 -12 6 -4 8 21 33 13 33 -10 1 -22 1 -23 15 -4 21
28 19 31 -20 33 -28 2 -35 -1 -34 -15z"/>
<path d="M1086 8745 c-3 -9 -6 -22 -5 -28 0 -7 5 -1 10 12 5 13 8 26 5 28 -2
2 -6 -3 -10 -12z"/>
<path d="M1121 8744 c0 -11 3 -14 6 -6 3 7 2 16 -1 19 -3 4 -6 -2 -5 -13z"/>
<path d="M1140 8751 c0 -5 7 -12 16 -15 14 -5 15 -4 4 9 -14 17 -20 19 -20 6z"/>
<path d="M1251 8744 c0 -11 3 -14 6 -6 3 7 2 16 -1 19 -3 4 -6 -2 -5 -13z"/>
<path d="M1275 8750 c-3 -5 -3 -14 0 -20 7 -12 26 -14 24 -2 -4 21 2 24 14 7
11 -14 16 -15 22 -5 5 9 4 11 -3 6 -7 -4 -12 -1 -12 8 0 18 -35 22 -45 6z"/>
<path d="M1351 8742 c0 -10 3 -12 6 -4 11 28 38 11 34 -23 -1 -5 6 -1 14 9 21
28 19 31 -20 33 -28 2 -35 -1 -34 -15z"/>
<path d="M1507 8744 c5 -14 35 -12 40 2 2 6 -8 10 -21 10 -14 0 -22 -5 -19
-12z"/>
<path d="M1561 8744 c0 -11 3 -14 6 -6 3 7 2 16 -1 19 -3 4 -6 -2 -5 -13z"/>
<path d="M1581 8744 c0 -11 3 -14 6 -6 3 7 2 16 -1 19 -3 4 -6 -2 -5 -13z"/>
<path d="M1601 8744 c0 -11 3 -14 6 -6 3 7 2 16 -1 19 -3 4 -6 -2 -5 -13z"/>
<path d="M780 8740 c0 -5 5 -10 11 -10 5 0 7 5 4 10 -3 6 -8 10 -11 10 -2 0
-4 -4 -4 -10z"/>
<path d="M670 8685 c0 -11 5 -27 10 -35 8 -12 10 -12 10 5 0 11 -5 27 -10 35
-8 12 -10 12 -10 -5z"/>
<path d="M628 8573 c3 -21 7 -30 12 -23 8 13 2 47 -9 54 -4 3 -5 -11 -3 -31z"/>
<path d="M480 8475 l0 -25 125 0 125 0 0 25 0 25 -125 0 -125 0 0 -25z"/>
<path d="M810 8475 l0 -25 335 0 335 0 0 25 0 25 -335 0 -335 0 0 -25z"/>
<path d="M1560 8475 l0 -25 110 0 110 0 0 25 0 25 -110 0 -110 0 0 -25z"/>
<path d="M619 8108 c-180 -7 -276 -19 -307 -38 -14 -9 -11 -10 13 -5 193 42
1398 45 1574 4 24 -5 46 -8 48 -5 10 10 -77 27 -189 36 -140 13 -890 18 -1139
8z"/>
<path d="M346 7728 c2 -18 8 -61 14 -95 8 -54 4 -86 -26 -240 -56 -291 -63
-278 147 -295 190 -15 939 -15 1154 0 264 19 285 22 307 44 23 23 23 19 -24
263 -30 160 -31 182 -11 320 4 26 2 37 -4 30 -17 -17 -33 -175 -23 -225 6 -25
19 -94 30 -155 11 -60 24 -127 29 -149 13 -54 0 -84 -41 -90 -174 -29 -928
-44 -1288 -27 -135 7 -253 14 -263 17 -37 11 -37 35 1 237 33 181 37 194 49
166 6 -16 19 -29 28 -29 22 0 18 -14 -7 -25 -25 -11 -32 -55 -16 -87 10 -21
48 -24 67 -5 11 10 13 9 9 -3 -3 -8 -19 -16 -36 -18 -37 -4 -52 -38 -33 -78 9
-20 18 -24 54 -24 30 0 49 6 60 18 28 31 19 82 -15 82 -15 0 -18 4 -12 23 9
31 13 33 27 13 19 -25 58 -17 77 17 13 24 13 30 0 55 -12 20 -14 36 -7 65 10
42 27 50 27 12 0 -17 7 -29 23 -35 16 -6 17 -9 5 -9 -29 -1 -33 -38 -12 -108
5 -19 2 -23 -14 -23 -23 0 -33 -29 -23 -68 6 -21 14 -28 39 -30 18 -2 32 1 32
8 0 6 -10 8 -25 4 -16 -4 -25 -2 -25 6 0 8 11 11 31 8 20 -3 33 0 36 9 9 22
-6 63 -23 63 -23 0 -11 24 14 28 26 4 37 38 29 86 -3 18 -2 48 3 67 l8 34 7
-32 c5 -23 13 -33 26 -33 11 0 19 -7 19 -15 0 -8 -6 -15 -14 -15 -19 0 -28
-43 -16 -76 13 -32 7 -54 -15 -54 -10 0 -15 -10 -15 -34 0 -49 9 -66 35 -66
48 0 73 65 36 97 -22 19 -19 33 8 33 30 0 45 42 31 85 -16 49 2 165 26 165 16
0 19 -16 4 -25 -6 -4 -8 -51 -5 -126 3 -77 1 -119 -5 -119 -18 0 -30 -48 -20
-75 7 -19 17 -25 40 -25 23 0 33 6 42 25 13 30 -3 75 -27 75 -8 0 -15 7 -15
15 0 9 9 15 23 15 13 0 28 5 35 12 15 15 16 85 1 90 -9 3 -9 10 1 27 7 15 10
39 5 67 -6 42 -5 44 19 44 29 0 32 -7 11 -34 -15 -20 -11 -60 7 -83 5 -7 6
-22 2 -35 -4 -13 -7 -49 -5 -80 2 -46 0 -58 -12 -58 -20 0 -26 -20 -18 -61 8
-40 31 -48 66 -25 34 22 32 86 -2 86 -25 0 -11 45 15 48 12 2 27 12 33 23 13
25 2 79 -17 79 -18 0 -18 5 2 36 14 20 15 32 6 67 -6 23 -13 51 -16 62 -2 12
-4 6 -5 -12 0 -18 -6 -33 -12 -33 -8 0 -10 13 -6 38 10 61 0 82 -39 82 -38 0
-56 -23 -48 -61 l5 -24 -12 25 c-6 14 -15 35 -20 48 -11 29 -55 29 -86 0 -20
-18 -23 -19 -23 -5 0 26 -68 23 -91 -5 -16 -17 -19 -18 -19 -5 0 13 -9 17 -39
17 -43 0 -44 -2 -56 -76 -5 -34 -11 -43 -31 -47 -30 -5 -33 18 -4 33 46 24 32
100 -18 100 -35 0 -52 -17 -52 -51 0 -37 -17 -79 -31 -79 -7 0 -20 -7 -30 -16
-16 -15 -18 -12 -24 43 -10 96 -15 123 -25 123 -5 0 -7 -15 -4 -32z m512 -10
c-7 -20 -48 -23 -48 -4 0 11 9 16 26 16 16 0 24 -5 22 -12z m110 -18 c-9 -14
-16 -16 -30 -9 -23 12 -23 26 0 31 31 7 42 -2 30 -22z m-440 8 c-7 -20 -48
-23 -48 -4 0 11 9 16 26 16 16 0 24 -5 22 -12z m110 0 c-7 -20 -48 -23 -48 -4
0 11 9 16 26 16 16 0 24 -5 22 -12z m112 3 c0 -11 -49 -21 -55 -11 -2 4 -2 10
2 14 10 9 53 7 53 -3z m-69 -82 l-10 -24 0 26 c-1 14 2 29 6 33 12 12 14 -9 4
-35z m69 31 c0 -5 -12 -10 -27 -9 l-28 1 25 8 c14 4 26 8 28 9 1 1 2 -3 2 -9z
m103 3 c-7 -2 -21 -2 -30 0 -10 3 -4 5 12 5 17 0 24 -2 18 -5z m37 -9 c0 -8
-5 -12 -10 -9 -6 4 -8 11 -5 16 9 14 15 11 15 -7z m85 6 c-3 -5 -18 -10 -33
-9 -24 0 -25 1 -7 9 28 12 47 12 40 0z m-452 -7 c-7 -2 -21 -2 -30 0 -10 3 -4
5 12 5 17 0 24 -2 18 -5z m110 0 c-7 -2 -21 -2 -30 0 -10 3 -4 5 12 5 17 0 24
-2 18 -5z m137 -13 c0 -11 -7 -20 -15 -20 -7 0 -19 -8 -24 -17 -9 -16 -10 -15
-11 5 0 16 7 26 20 29 11 3 20 9 20 14 0 5 2 9 5 9 3 0 5 -9 5 -20z m-110 1
c0 -4 -12 -21 -26 -36 -26 -28 -26 -28 -19 -4 4 13 15 29 24 36 19 15 21 15
21 4z m127 -13 c-3 -8 -6 -5 -6 6 -1 11 2 17 5 13 3 -3 4 -12 1 -19z m-315
-10 c-7 -7 -12 -8 -12 -2 0 14 12 26 19 19 2 -3 -1 -11 -7 -17z m131 -9 c-5
-18 -7 -19 -21 -6 -16 17 -8 39 12 31 8 -3 12 -14 9 -25z m104 9 c-3 -8 -6 -5
-6 6 -1 11 2 17 5 13 3 -3 4 -12 1 -19z m305 -18 c7 0 6 -5 -1 -14 -11 -14
-51 -11 -51 3 0 14 14 22 28 16 7 -3 18 -5 24 -5z m-330 -10 c6 0 6 -6 -2 -15
-14 -17 -20 -18 -39 -6 -17 11 -4 34 16 27 8 -3 19 -6 25 -6z m106 -2 c-6 -16
-48 -18 -48 -1 0 7 11 13 26 13 15 0 24 -5 22 -12z m116 -3 c-4 -8 -17 -15
-30 -15 -15 0 -24 6 -24 15 0 10 10 15 30 15 22 0 28 -4 24 -15z m-446 -7 c-5
-15 -58 -24 -58 -10 0 15 12 22 38 22 14 0 22 -5 20 -12z m110 0 c-7 -20 -48
-23 -48 -4 0 11 9 16 26 16 16 0 24 -5 22 -12z m-58 -52 c7 -18 4 -40 -10 -78
l-19 -53 0 46 c-1 47 8 109 15 109 3 0 9 -11 14 -24z m284 13 c-3 -5 -16 -9
-30 -9 -33 0 -24 15 10 16 14 1 23 -2 20 -7z m221 1 c-3 -5 -15 -10 -26 -10
-10 0 -19 5 -19 10 0 6 12 10 26 10 14 0 23 -4 19 -10z m-435 -10 c0 -5 -15
-9 -32 -9 l-33 1 30 8 c17 4 31 8 33 9 1 0 2 -3 2 -9z m105 0 c-3 -5 -16 -10
-28 -9 -21 0 -21 1 -2 9 28 12 37 12 30 0z m218 3 c-7 -2 -21 -2 -30 0 -10 3
-4 5 12 5 17 0 24 -2 18 -5z m-450 -10 c-7 -2 -21 -2 -30 0 -10 3 -4 5 12 5
17 0 24 -2 18 -5z m547 -13 c0 -5 -5 -10 -11 -10 -5 0 -7 5 -4 10 3 6 8 10 11
10 2 0 4 -4 4 -10z m-538 -22 c-7 -7 -12 -8 -12 -2 0 14 12 26 19 19 2 -3 -1
-11 -7 -17z m101 5 c-7 -2 -19 -2 -25 0 -7 3 -2 5 12 5 14 0 19 -2 13 -5z
m127 -24 c0 -14 -27 -22 -47 -14 -17 6 -17 7 0 20 19 14 47 10 47 -6z m218 9
c-7 -20 -48 -23 -48 -4 0 11 9 16 26 16 16 0 24 -5 22 -12z m111 -14 c-15 -18
-49 -18 -49 0 0 15 26 25 48 18 9 -3 10 -8 1 -18z m-219 1 c0 -9 -9 -15 -25
-15 -24 0 -32 10 -18 23 12 13 43 7 43 -8z m-222 -7 c-7 -20 -58 -23 -58 -4 0
11 10 16 31 16 20 0 29 -4 27 -12z m-118 -8 c0 -6 -7 -13 -15 -16 -20 -8 -48
3 -40 16 8 13 55 13 55 0z m230 -30 c0 -5 -12 -10 -27 -9 l-28 1 25 8 c14 4
26 8 28 9 1 1 2 -3 2 -9z m215 0 c-3 -5 -12 -10 -20 -10 -8 0 -17 5 -20 10 -4
6 5 10 20 10 15 0 24 -4 20 -10z m120 0 c-3 -5 -16 -10 -28 -9 -20 1 -20 2 3
9 14 4 26 8 28 9 2 1 0 -3 -3 -9z m-225 -10 c0 -5 -9 -10 -19 -10 -11 0 -23 5
-26 10 -4 6 5 10 19 10 14 0 26 -4 26 -10z m-227 -7 c-7 -2 -21 -2 -30 0 -10
3 -4 5 12 5 17 0 24 -2 18 -5z m-120 -10 c-7 -2 -21 -2 -30 0 -10 3 -4 5 12 5
17 0 24 -2 18 -5z m207 -48 c0 -9 -9 -15 -25 -15 -16 0 -25 6 -25 15 0 9 9 15
25 15 16 0 25 -6 25 -15z m-150 -10 c-8 -9 -30 -15 -57 -15 -39 0 -44 2 -33
15 8 9 30 15 57 15 39 0 44 -2 33 -15z m264 0 c-4 -8 -17 -15 -30 -15 -15 0
-24 6 -24 15 0 10 10 15 30 15 22 0 28 -4 24 -15z m106 0 c-7 -8 -21 -15 -31
-15 -11 0 -19 7 -19 15 0 10 10 15 31 15 27 0 30 -2 19 -15z m110 -10 c-7 -8
-21 -15 -31 -15 -11 0 -19 7 -19 15 0 10 10 15 31 15 27 0 30 -2 19 -15z
m-484 -40 c-22 -17 -76 -20 -76 -6 0 6 19 12 43 14 23 2 44 4 47 5 3 1 -4 -5
-14 -13z m269 5 c-3 -5 -16 -10 -28 -9 -20 1 -20 2 3 9 14 4 26 8 28 9 2 1 0
-3 -3 -9z m101 -3 c4 -4 -2 -7 -14 -7 -12 0 -22 4 -22 9 0 10 26 9 36 -2z
m107 -14 c-7 -2 -19 -2 -25 0 -7 3 -2 5 12 5 14 0 19 -2 13 -5z"/>
<path d="M1370 7708 c3 -80 1 -88 -21 -88 -18 0 -20 4 -14 23 4 12 8 38 9 57
1 34 0 35 -43 38 l-44 3 6 -60 c6 -57 5 -61 -14 -61 -18 0 -21 5 -19 43 4 76
4 77 -40 77 -39 0 -40 -1 -40 -35 0 -19 5 -46 12 -60 14 -30 7 -39 -22 -30
-19 6 -22 12 -17 46 8 64 0 79 -43 79 -30 0 -40 -5 -45 -20 -10 -31 4 -77 25
-83 15 -4 18 -12 15 -48 -2 -24 -4 -86 -4 -136 -1 -75 -4 -93 -16 -93 -18 0
-29 -41 -21 -75 5 -19 13 -25 34 -25 38 0 52 17 52 62 0 32 -3 38 -21 38 -34
0 -19 34 16 38 17 2 36 8 43 14 9 8 12 3 12 -21 0 -20 -5 -31 -14 -31 -18 0
-25 -47 -12 -78 8 -18 16 -22 40 -20 23 2 31 9 38 33 9 36 2 65 -18 65 -10 0
-14 12 -14 43 0 23 -3 87 -7 141 -5 78 -4 98 6 91 7 -4 11 -16 8 -26 -3 -10 1
-23 9 -30 17 -14 18 -54 3 -98 -14 -40 9 -81 46 -81 18 0 25 -5 25 -20 0 -13
-7 -20 -20 -20 -16 0 -20 -7 -20 -38 0 -45 14 -62 51 -62 42 0 56 71 20 102
-17 14 -19 28 -16 96 4 108 24 145 25 46 0 -74 15 -104 53 -104 9 0 17 -7 17
-15 0 -8 -9 -15 -20 -15 -16 0 -20 -7 -20 -38 0 -21 5 -43 12 -50 17 -17 65
-15 72 4 12 32 6 73 -12 83 -16 9 -19 21 -16 85 2 56 7 80 20 93 16 16 16 14
10 -49 -9 -78 2 -105 41 -111 27 -4 27 -4 6 -12 -18 -6 -23 -15 -23 -44 0 -44
14 -61 51 -61 22 0 29 6 34 30 8 37 -2 70 -22 70 -12 0 -14 9 -8 51 5 38 3 54
-8 67 -14 16 -14 19 9 41 l24 23 1 -33 c1 -19 0 -44 -1 -56 -2 -32 18 -63 40
-63 23 0 27 -18 5 -26 -20 -8 -20 -68 1 -88 34 -35 74 -9 74 49 0 18 -7 28
-26 35 -20 8 -24 14 -18 28 4 9 9 36 12 59 3 34 1 42 -15 46 -16 4 -16 5 0 6
9 0 17 9 17 18 0 13 3 14 12 5 6 -6 11 -33 10 -59 0 -61 11 -83 47 -83 34 0
44 -9 30 -26 -21 -26 -17 -64 9 -84 50 -40 112 -17 112 40 0 34 -23 50 -62 43
-23 -4 -29 -1 -37 20 -5 14 -9 39 -9 56 1 16 -5 37 -11 45 -11 13 -10 18 3 31
9 9 16 24 17 33 1 9 7 -1 14 -23 7 -22 11 -54 8 -71 -8 -48 12 -76 50 -72 31
3 32 5 32 48 0 43 -1 45 -31 48 -20 2 -34 10 -36 20 -4 14 2 17 31 17 36 0 36
0 36 45 0 37 -4 45 -20 48 -31 6 -36 16 -43 73 -7 53 -8 54 -41 57 -52 5 -71
-48 -31 -88 27 -27 25 -40 -5 -40 -27 0 -33 13 -37 85 -3 40 -3 40 -43 40 -36
0 -40 -3 -43 -28 -2 -16 4 -39 12 -52 21 -32 20 -45 -3 -45 -24 0 -31 19 -31
81 l0 50 -42 -3 c-42 -3 -43 -4 -43 -38 0 -34 1 -35 34 -32 23 3 31 0 26 -8
-4 -6 -16 -8 -28 -4 -22 7 -22 6 -3 -15 19 -21 19 -21 -7 -21 -20 0 -27 5 -27
20 0 11 -5 20 -11 20 -6 0 -9 -7 -6 -15 4 -8 2 -17 -3 -20 -13 -8 -19 18 -8
38 5 10 8 32 6 50 -3 30 -6 32 -46 35 l-44 3 2 -43z m78 14 c3 -10 -4 -13 -24
-10 -15 2 -29 9 -32 16 -3 10 4 13 24 10 15 -2 29 -9 32 -16z m-228 -12 c0
-14 -39 -18 -50 -6 -5 7 -8 15 -5 18 8 7 55 -3 55 -12z m114 4 c5 -12 0 -15
-21 -12 -14 2 -28 9 -31 16 -6 18 45 15 52 -4z m224 -2 c3 -10 -4 -13 -24 -10
-15 2 -29 9 -32 16 -3 10 4 13 24 10 15 -2 29 -9 32 -16z m220 0 c3 -10 -4
-13 -24 -10 -15 2 -29 9 -32 16 -3 10 4 13 24 10 15 -2 29 -9 32 -16z m-678
-2 c0 -5 -3 -10 -7 -11 -5 0 -16 -2 -25 -4 -10 -2 -18 3 -18 11 0 8 10 14 25
14 14 0 25 -4 25 -10z m568 -2 c-6 -17 -35 -18 -49 -2 -9 12 -6 14 21 14 20 0
30 -4 28 -12z m-228 -38 c0 -5 -9 -10 -19 -10 -11 0 -23 5 -26 10 -4 6 5 10
19 10 14 0 26 -4 26 -10z m-335 -10 c-3 -5 -18 -10 -33 -9 l-27 1 25 8 c35 11
42 11 35 0z m105 -6 c0 -2 -9 -4 -20 -4 -11 0 -20 4 -20 9 0 5 9 7 20 4 11 -3
20 -7 20 -9z m116 9 c-11 -11 -35 -12 -42 -2 -3 5 7 9 22 9 15 0 24 -3 20 -7z
m320 -11 c-10 -2 -22 0 -28 6 -6 6 0 7 19 4 21 -5 23 -7 9 -10z m124 8 c0 -5
-9 -10 -19 -10 -11 0 -23 5 -26 10 -4 6 5 10 19 10 14 0 26 -4 26 -10z m-360
-25 c0 -8 -4 -15 -10 -15 -5 0 -10 7 -10 15 0 8 5 15 10 15 6 0 10 -7 10 -15z
m17 -7 c-3 -8 -6 -5 -6 6 -1 11 2 17 5 13 3 -3 4 -12 1 -19z m-317 2 c0 -5 -4
-10 -10 -10 -5 0 -10 5 -10 10 0 6 5 10 10 10 6 0 10 -4 10 -10z m204 -16 c4
-15 5 -29 1 -32 -3 -3 -5 1 -5 8 0 7 -7 22 -17 32 -14 16 -14 18 -1 18 9 0 19
-12 22 -26z m246 14 c0 -7 -5 -20 -10 -28 -8 -12 -10 -9 -10 13 0 15 5 27 10
27 6 0 10 -6 10 -12z m106 -10 c-3 -13 -6 -34 -7 -48 0 -18 -4 -13 -15 20 -7
25 -14 46 -14 48 0 1 10 2 21 2 17 0 20 -4 15 -22z m118 13 c4 -5 2 -20 -3
-33 -9 -24 -10 -24 -26 27 -5 16 20 21 29 6z m-490 -37 c5 -12 0 -15 -21 -12
-14 2 -28 9 -31 16 -6 18 45 15 52 -4z m100 10 c26 -10 18 -24 -14 -24 -20 0
-30 5 -30 15 0 16 17 19 44 9z m124 -12 c3 -10 -4 -13 -24 -10 -15 2 -29 9
-32 16 -3 10 4 13 24 10 15 -2 29 -9 32 -16z m-378 -7 c-7 -8 -21 -15 -31 -15
-11 0 -19 7 -19 15 0 10 10 15 31 15 27 0 30 -2 19 -15z m490 -1 c0 -11 -8
-14 -27 -12 -39 4 -42 28 -4 28 21 0 31 -5 31 -16z m108 -2 c3 -10 -4 -13 -24
-10 -15 2 -29 9 -32 16 -3 10 4 13 24 10 15 -2 29 -9 32 -16z m110 0 c3 -10
-4 -13 -24 -10 -15 2 -29 9 -32 16 -3 10 4 13 24 10 15 -2 29 -9 32 -16z
m-558 -43 c0 -14 -36 -11 -49 4 -8 11 -5 13 19 9 17 -2 30 -8 30 -13z m214 0
c-8 -13 -30 -11 -43 4 -8 11 -5 13 19 9 16 -2 27 -8 24 -13z m-104 1 c0 -5
-11 -10 -25 -10 -14 0 -25 5 -25 10 0 6 11 10 25 10 14 0 25 -4 25 -10z m-267
-7 c-7 -2 -21 -2 -30 0 -10 3 -4 5 12 5 17 0 24 -2 18 -5z m37 -17 c0 -19 -4
-22 -25 -18 l-24 4 22 19 c28 23 27 23 27 -5z m445 14 c-3 -5 -12 -10 -20 -10
-8 0 -17 5 -20 10 -4 6 5 10 20 10 15 0 24 -4 20 -10z m115 0 c0 -5 -9 -10
-19 -10 -11 0 -23 5 -26 10 -4 6 5 10 19 10 14 0 26 -4 26 -10z m110 0 c0 -5
-9 -10 -19 -10 -11 0 -23 5 -26 10 -4 6 5 10 19 10 14 0 26 -4 26 -10z m-270
-15 c7 -9 8 -15 2 -15 -5 0 -12 7 -16 15 -3 8 -4 15 -2 15 2 0 9 -7 16 -15z
m130 -17 c0 -5 -7 -8 -15 -8 -8 0 -15 2 -15 4 0 2 -3 12 -6 21 -6 15 -4 15 15
4 11 -8 21 -17 21 -21z m-430 12 c0 -5 -6 -10 -14 -10 -8 0 -18 5 -21 10 -3 6
3 10 14 10 12 0 21 -4 21 -10z m103 3 c-7 -2 -19 -2 -25 0 -7 3 -2 5 12 5 14
0 19 -2 13 -5z m107 -2 c0 -6 -4 -13 -10 -16 -5 -3 -10 1 -10 9 0 9 5 16 10
16 6 0 10 -4 10 -9z m-337 -36 c-3 -13 -53 -20 -53 -7 0 15 13 23 35 20 11 -2
19 -7 18 -13z m141 -1 c5 -12 0 -15 -21 -12 -14 2 -28 9 -31 16 -6 18 45 15
52 -4z m116 1 c0 -8 -8 -15 -19 -15 -10 0 -24 7 -31 15 -11 13 -8 15 19 15 21
0 31 -5 31 -15z m220 -1 c0 -11 -8 -14 -27 -12 -39 4 -42 28 -4 28 21 0 31 -5
31 -16z m-112 -12 c3 -10 -4 -13 -24 -10 -15 2 -29 9 -32 16 -3 10 4 13 24 10
15 -2 29 -9 32 -16z m222 2 c0 -11 -8 -14 -27 -12 -39 4 -42 28 -4 28 21 0 31
-5 31 -16z m118 -12 c3 -10 -4 -13 -24 -10 -15 2 -29 9 -32 16 -3 10 4 13 24
10 15 -2 29 -9 32 -16z m-472 -30 c-10 -2 -22 0 -28 6 -6 6 0 7 19 4 21 -5 23
-7 9 -10z m-231 -2 c-3 -5 -15 -10 -26 -10 -10 0 -19 5 -19 10 0 6 12 10 26
10 14 0 23 -4 19 -10z m135 0 c0 -5 -9 -10 -19 -10 -11 0 -23 5 -26 10 -4 6 5
10 19 10 14 0 26 -4 26 -10z m330 0 c0 -5 -9 -10 -19 -10 -11 0 -23 5 -26 10
-4 6 5 10 19 10 14 0 26 -4 26 -10z m-117 -7 c-7 -2 -21 -2 -30 0 -10 3 -4 5
12 5 17 0 24 -2 18 -5z m232 -3 c-3 -5 -15 -10 -25 -10 -10 0 -22 5 -25 10 -4
6 7 10 25 10 18 0 29 -4 25 -10z m115 -10 c0 -5 -9 -10 -19 -10 -11 0 -23 5
-26 10 -4 6 5 10 19 10 14 0 26 -4 26 -10z m-412 -58 c3 -10 -4 -13 -24 -10
-15 2 -29 9 -32 16 -3 10 4 13 24 10 15 -2 29 -9 32 -16z m102 -8 c0 -16 -18
-18 -40 -4 -13 9 -13 11 -1 19 18 12 41 3 41 -15z m118 8 c3 -10 -4 -13 -24
-10 -15 2 -29 9 -32 16 -3 10 4 13 24 10 15 -2 29 -9 32 -16z m-554 -13 c-3
-5 -17 -9 -32 -9 -25 1 -26 2 -9 15 20 14 51 10 41 -6z m116 6 c0 -9 -9 -15
-25 -15 -16 0 -25 6 -25 15 0 9 9 15 25 15 16 0 25 -6 25 -15z m104 0 c4 -11
-1 -15 -19 -15 -25 0 -39 12 -28 24 12 11 41 6 47 -9z m524 -2 c6 -19 -72 -17
-89 3 -11 13 -7 15 36 12 27 -2 50 -8 53 -15z m-423 -43 c-3 -5 -12 -10 -20
-10 -8 0 -17 5 -20 10 -4 6 5 10 20 10 15 0 24 -4 20 -10z m110 0 c4 -6 -5
-10 -19 -10 -14 0 -26 5 -26 10 0 6 9 10 19 10 11 0 23 -4 26 -10z m108 3 c-7
-2 -21 -2 -30 0 -10 3 -4 5 12 5 17 0 24 -2 18 -5z m196 -9 c2 -2 -14 -4 -37
-4 -22 0 -43 4 -46 9 -6 8 73 3 83 -5z m-734 -4 c-3 -5 -15 -10 -26 -10 -11 0
-17 5 -14 10 3 6 15 10 26 10 11 0 17 -4 14 -10z m105 0 c0 -5 -9 -10 -20 -10
-11 0 -20 5 -20 10 0 6 9 10 20 10 11 0 20 -4 20 -10z m110 0 c0 -5 -11 -10
-25 -10 -14 0 -25 5 -25 10 0 6 11 10 25 10 14 0 25 -4 25 -10z"/>
<path d="M550 7224 c-6 -14 -10 -40 -10 -58 0 -33 1 -33 53 -40 119 -14 593
-18 841 -7 142 7 265 15 272 18 17 6 18 53 2 88 -12 26 -14 26 -77 20 -117
-12 -934 -16 -945 -5 -5 5 -36 10 -68 10 -54 0 -59 -2 -68 -26z m125 6 c7 -12
857 -12 950 -1 56 7 74 2 75 -20 0 -4 -24 -9 -52 -13 -95 -11 -729 -19 -910
-11 -159 6 -178 9 -178 24 0 10 3 21 7 24 10 11 101 8 108 -3z m1025 -69 c0
-19 -187 -26 -652 -26 -349 0 -480 3 -489 12 -8 8 79 10 362 7 206 -3 448 -1
539 4 236 13 240 13 240 3z"/>
</g>
</svg>
